<?xml version="1.0" encoding="utf-8"?>
<!-- Generator: Adobe Illustrator 21.1.0, SVG Export Plug-In . SVG Version: 6.00 Build 0)  -->
<svg version="1.1" xmlns="http://www.w3.org/2000/svg" xmlns:xlink="http://www.w3.org/1999/xlink" x="0px" y="0px"
	 viewBox="0 0 1000 618" style="enable-background:new 0 0 1000 618;" xml:space="preserve">
<style type="text/css">
	.st0{fill:#E7B425;}
</style>
<g id="Layer_2_1_">
	<rect class="st0" width="1000" height="618"/>
</g>
<g id="Layer_1">
	<g id="Layer_2">
		<g>
			<g>
				<path d="M676.2,301.1c2.2,11.2,0.9,13.4-10.7,13c-7.2-0.4-14.3-1.8-21.5-2.7c-2.2-0.4-4,0-6.3,0.4c-0.9,0-1.8,1.8-3.1,1.8
					c-9.4,0-18.8,0-29.1,0c-2.7,22.8-10.3,43.8-26.8,62.6c4.9,4.5,9.8,8.9,14.3,13.4c3.1,3.1,4.9,7.6,7.6,11.2
					c1.3,1.8,2.7,3.6,4.5,4.9c6.3,4.9,13,9.8,18.8,15.2c4,3.1,5.8,7.2,1.3,11.6c-4.9,4.5-8.5,1.3-11.6-2.2
					c-4.9-6.3-9.4-13-14.3-18.3c-3.1-3.6-8-4.9-11.6-8c-5.8-5.4-11.2-11.6-17.4-17.9c-18.8,15.7-39.8,24.1-61.7,25.9
					c-1.3,6.3-2.2,12.1-3.1,17.4c0,1.3-0.4,2.7-0.4,4c0.4,1.3,2.2,3.1,1.8,4c-6.3,12.1,2.7,24.1,0.4,36.7c-0.9,4.9-0.9,9.8-7.2,9.8
					c-6.7,0-8-4.9-7.2-10.3c0.9-7.6,2.2-15.7,3.1-23.3c0.4-2.2,0-4-0.9-6.3c-0.4-1.3-2.7-3.1-2.2-3.6c4-8.9-4-17.9,0.4-26.8
					c-11.6-3.1-22.8-5.4-33.1-9.4c-10.3-4.5-19.7-10.7-31.7-17.4c-3.6,4.5-8,9.8-13.4,14.8c-2.2,2.2-5.8,3.6-8.9,5.8
					c-1.8,1.3-4,2.7-5.4,4.9c-5.4,6.7-9.8,13.9-15.7,19.7c-1.8,1.8-7.6,2.2-9.8,0.9c-4.9-3.1-3.1-7.6,0.4-10.7
					c6.3-5.4,13.4-10.3,19.7-16.1c3.1-3.1,4.9-8.5,8-11.6c5.4-5.8,11.6-10.7,17.9-16.5c-16.1-19.7-25-40.2-26.4-62.2
					c-6.7-1.3-12.1-2.2-17.9-3.1c-2.7-0.4-6.3,2.7-8,1.3c-12.5-6.3-24.1,2.7-36.7,0.4c-8.9-1.8-10.7-3.1-8.5-12.5
					c49.2,0,98.8,0,148,0c-1.3,13.9,3.1,25,16.1,30.9c20.1,9.4,42.9-7.2,39.3-30.9C577.8,301.1,627,301.1,676.2,301.1z M496,344.9
					c-5.8-2.2-11.6-4.5-17-6.3c-7.2,7.2-14.3,13.9-23.3,22.8c13.9,5.4,26.4,10.3,40.2,16.1C496,364.1,496,354.7,496,344.9z
					 M504.5,374.9c14.8-1.3,27.7-5.8,38-14.8c-7.2-7.6-14.3-14.8-21-21.5c-5.8,2.2-11.6,4.5-17.4,6.3
					C504.5,354.7,504.5,364.1,504.5,374.9z M462.4,310.5c-9.8,0-19.7,0-30,0c1.3,14.8,5.8,27.3,14.3,37.6c8-7.2,15.2-13.9,21.9-20.6
					C466.5,321.7,464.2,316.3,462.4,310.5z M538.9,311.4c-2.2,6.3-4.5,11.6-6.3,15.7c7.2,7.6,13.9,14.8,22.8,24.1
					c5.4-13.9,10.3-25.9,15.7-39.8C558.6,311.4,548.7,311.4,538.9,311.4z M572.9,370.4c0.9,0,2.2,0,3.1,0
					c13.9-17,22.4-36.2,21.5-59.5c-3.1,1.3-5.8,3.6-6.3,5.8c-2.7,16.5-8.5,31.3-18.3,44.7C571.5,363.7,572.9,367.3,572.9,370.4z
					 M494.6,404.8c0.9-0.9,1.8-2.2,2.7-3.1c-2.2-1.8-4.5-4.5-6.7-4.9c-16.5-2.7-31.7-8-44.7-18.3c-5.4-4-7.2-1.3-9.4,3.1
					C453.9,395.9,472.7,403.9,494.6,404.8z M404.3,309.1c-0.9,0.9-1.3,1.3-2.2,2.2c0.9,22.4,8.9,41.6,25,58.6
					c1.3-3.1,2.7-6.7,1.3-8.5c-10.3-13.9-16.1-29.5-18.3-46.5C409.7,312.7,406.1,310.9,404.3,309.1z M563.9,382c0-0.9,0-2.2,0-3.1
					c-3.1,0-6.7-1.3-8.5,0c-13.9,9.8-29.1,16.1-45.6,17.4c-6.3,0.4-5.8,3.6-4,8C527.7,403.9,547,395.9,563.9,382z"/>
				<path d="M517,301.1c0.9,13.4-4,21.5-14.3,22.4c-12.5,1.3-22.4-9.4-18.8-22.4C495.1,301.1,506.3,301.1,517,301.1z"/>
			</g>
			<g>
				<path d="M128.9,270.2c0.4,0,0.4,0,0.9,0.4l2.2,2.2c-1.8,1.8-3.6,3.1-5.8,4.5c-2.2,1.3-4.9,1.3-8,1.3c-2.7,0-5.4-0.4-7.6-1.3
					c-2.2-0.9-4-2.2-5.8-4s-2.7-3.6-3.6-6.3c-0.9-2.7-1.3-4.9-1.3-8c0-3.1,0.4-5.4,1.3-8s2.2-4.5,4-6.3c1.8-1.8,3.6-3.1,6.3-4
					c2.2-0.9,4.9-1.3,8-1.3c2.7,0,5.4,0.4,7.2,1.3s4,2.2,5.4,3.6l-1.8,2.2l-0.4,0.4c0,0-0.4,0-0.9,0c-0.4,0-0.4,0-0.9-0.4
					c-0.4-0.4-0.4-0.4-0.9-0.4c-0.4,0-0.9-0.4-1.3-0.9s-0.9-0.4-1.8-0.9c-0.4-0.4-1.3-0.4-2.2-0.4s-1.8-0.4-3.1-0.4
					c-2.2,0-4,0.4-5.8,0.9c-1.8,0.9-3.1,1.8-4.5,3.1c-1.3,1.3-2.2,2.7-2.7,4.9c-0.4,2.2-0.9,4-0.9,6.3s0.4,4.5,0.9,6.3
					c0.9,1.8,1.8,3.6,2.7,4.9c0.9,1.3,2.7,2.2,4,3.1c1.8,0.9,3.6,0.9,5.4,0.9c1.3,0,2.2,0,3.1,0c0.9,0,1.8-0.4,2.7-0.4
					c0.9-0.4,1.3-0.4,2.2-0.9c0.9-0.4,1.3-0.9,2.2-1.8C128.4,270.7,128.4,270.2,128.9,270.2z"/>
				<path d="M174.9,278.3h-4c-0.4,0-0.9,0-1.3-0.4c-0.4-0.4-0.4-0.4-0.4-0.9l-3.6-9.4h-17.4l-3.6,9.4c0,0.4-0.4,0.4-0.4,0.9
					c0,0.4-0.9,0.4-1.3,0.4h-4l15.2-38.5h5.4L174.9,278.3z M149.9,264h14.3l-5.8-15.7c-0.4-0.9-0.9-2.2-1.3-3.6
					c0,0.9-0.4,1.3-0.4,2.2c0,0.4-0.4,1.3-0.4,1.8L149.9,264z"/>
				<path d="M190.1,264v14.3h-5.4v-38.5h11.6c2.2,0,4.5,0.4,6.3,0.9c1.8,0.4,3.1,1.3,4.5,2.2s2.2,2.2,2.7,3.6
					c0.4,1.3,0.9,3.1,0.9,4.9s-0.4,3.6-0.9,4.9c-0.4,1.3-1.3,2.7-2.7,4c-1.3,0.9-2.7,1.8-4.5,2.7c-1.8,0.4-4,0.9-6.3,0.9
					C196.4,264,190.1,264,190.1,264z M190.1,259.9h6.3c1.3,0,2.7,0,4-0.4c1.3-0.4,2.2-0.9,2.7-1.8c0.9-0.9,1.3-1.3,1.8-2.7
					c0.4-0.9,0.4-2.2,0.4-3.1c0-2.2-0.9-4.5-2.2-5.8c-1.3-1.3-3.6-2.2-6.7-2.2h-6.3V259.9z"/>
				<path d="M248.3,239.8v4.5h-12.5v34h-5.4v-34h-12.5v-4.5H248.3z"/>
				<path d="M286.7,278.3h-4c-0.4,0-0.9,0-1.3-0.4c-0.4-0.4-0.4-0.4-0.4-0.9l-3.6-9.4h-17.4l-3.6,9.4c0,0.4-0.4,0.4-0.4,0.9
					c0,0.4-0.9,0.4-1.3,0.4h-4l15.2-38.5h5.4L286.7,278.3z M261.2,264h14.3l-5.8-15.7c-0.4-0.9-0.9-2.2-1.3-3.6
					c0,0.9-0.4,1.3-0.4,2.2c0,0.4-0.4,1.3-0.4,1.8L261.2,264z"/>
				<path d="M302.4,278.3H297v-38.5h5.4V278.3z"/>
				<path d="M321.1,240.3c0,0,0.4,0.4,0.9,0.9l22.4,29.1c0-0.4,0-0.9,0-1.3s0-0.9,0-1.3v-27.7h4.5v38.5h-2.7c-0.4,0-0.9,0-0.9,0
					c-0.4,0-0.4-0.4-0.9-0.9L322,248.3c0,0.4,0,0.9,0,1.3c0,0.4,0,0.9,0,1.3v27.3h-4.5v-38.5h2.7
					C320.2,239.8,320.7,239.8,321.1,240.3z"/>
				<path d="M401.2,239.8v4.5h-18.3v13.4h15.7v4h-15.7v16.5h-5.4v-38.5H401.2z"/>
				<path d="M441,278.3h-4c-0.4,0-0.9,0-1.3-0.4c-0.4-0.4-0.4-0.4-0.4-0.9l-3.6-9.4h-17.4l-3.6,9.4c0,0.4-0.4,0.4-0.4,0.9
					c0,0.4-0.9,0.4-1.3,0.4h-4l15.2-38.5h5.4L441,278.3z M415.5,264h14.3l-5.8-15.7c-0.4-0.9-0.9-2.2-1.3-3.6c0,0.9-0.4,1.3-0.4,2.2
					c0,0.4-0.4,1.3-0.4,1.8L415.5,264z"/>
				<path d="M473.2,239.8v4.5h-12.5v34h-5.4v-34h-12.5v-4.5H473.2z"/>
				<path d="M509.4,239.8v4.5h-12.5v34h-5.4v-34H479v-4.5H509.4z"/>
				<path d="M534.4,263.1v15.2h-5.4v-15.2l-14.3-23.3h4.5c0.4,0,0.9,0,0.9,0.4c0.4,0.4,0.4,0.4,0.9,0.9l8.9,14.8
					c0.4,0.4,0.4,1.3,0.9,1.8s0.4,0.9,0.4,1.8c0-0.4,0.4-0.9,0.4-1.8c0.4-0.4,0.4-1.3,0.9-1.8l8.9-14.8c0-0.4,0.4-0.4,0.4-0.9
					c0.4-0.4,0.4-0.4,0.9-0.4h4.5L534.4,263.1z"/>
				<path d="M561.7,238c0.4,0.9,0.9,1.8,1.3,2.7s0.4,1.8,0.4,2.7c0,1.8-0.4,3.1-1.3,4.5c-0.9,1.3-1.8,2.7-3.1,4l-1.3-0.9
					c0,0-0.4,0-0.4-0.4c0,0,0,0,0-0.4s0-0.4,0.4-0.4c0.4-0.4,0.4-0.9,0.9-0.9c0.4-0.4,0.4-0.9,0.9-1.3s0.4-0.9,0.4-1.3
					c0-0.4,0-0.9,0-1.3s0-1.3-0.4-1.8c0-0.4-0.4-1.3-0.9-1.8v-0.4c0-0.4,0.4-0.9,0.9-0.9L561.7,238z"/>
				<path d="M594.8,246.1c0,0.4-0.4,0.4-0.4,0.4s-0.4,0-0.9,0s-0.4,0-0.9-0.4c-0.4-0.4-0.9-0.4-1.3-0.9c-0.4-0.4-1.3-0.9-2.2-0.9
					c-0.9-0.4-1.8-0.4-3.1-0.4c-1.3,0-2.2,0-3.1,0.4c-0.9,0.4-1.8,0.9-2.2,1.3c-0.4,0.4-0.9,1.3-1.3,1.8c-0.4,0.9-0.4,1.3-0.4,2.2
					c0,0.9,0.4,1.8,0.9,2.7s1.3,1.3,2.2,1.8c0.9,0.4,1.8,0.9,3.1,1.3c0.9,0.4,2.2,0.9,3.6,1.3c1.3,0.4,2.2,0.9,3.6,1.3
					c1.3,0.4,2.2,0.9,3.1,1.8c0.9,0.9,1.3,1.8,2.2,2.7c0.4,0.9,0.9,2.2,0.9,4s-0.4,3.1-0.9,4.9c-0.4,1.3-1.3,2.7-2.7,4
					s-2.2,1.8-4,2.7c-1.8,0.4-3.6,0.9-5.4,0.9c-2.7,0-4.9-0.4-6.7-1.3c-2.2-0.9-3.6-2.2-5.4-3.6l1.3-2.7l0.4-0.4c0,0,0.4,0,0.9,0
					s0.9,0,1.3,0.4c0.4,0.4,0.9,0.9,1.8,1.3c0.9,0.4,1.8,0.9,2.7,1.3c0.9,0.4,2.2,0.4,3.6,0.4c1.3,0,2.2,0,3.1-0.4
					c0.9-0.4,1.8-0.9,2.2-1.3s1.3-1.3,1.3-2.2c0.4-0.9,0.4-1.8,0.4-2.7c0-1.3-0.4-2.2-0.9-2.7c-0.4-0.9-1.3-1.3-2.2-1.8
					c-0.9-0.4-1.8-0.9-3.1-1.3c-0.9-0.4-2.2-0.9-3.6-0.9c-1.3-0.4-2.2-0.9-3.6-1.3c-0.9-0.4-2.2-0.9-3.1-1.8
					c-0.9-0.9-1.3-1.8-2.2-2.7c-0.4-1.3-0.9-2.7-0.9-4.5c0-1.3,0.4-2.7,0.9-4s1.3-2.2,2.2-3.6c0.9-0.9,2.2-1.8,3.6-2.2
					c1.3-0.4,3.1-0.9,4.9-0.9c2.2,0,4,0.4,5.8,0.9c1.8,0.9,3.1,1.8,4.5,3.1L594.8,246.1z"/>
				<path d="M623.4,278.3v-38.5h12.1c2.2,0,4.5,0.4,6.3,0.9s3.1,1.3,4,1.8c0.9,0.4,1.8,1.8,2.2,3.1c0.4,1.3,0.9,2.7,0.9,4
					c0,0.9,0,1.8-0.4,2.7c-0.4,0.9-0.9,1.8-1.3,2.2c-0.4,0.4-1.3,1.3-2.2,1.8c-0.9,0.4-1.8,0.9-3.1,1.3c2.7,0.4,4.9,1.8,6.3,3.1
					s2.2,3.6,2.2,5.8c0,1.8-0.4,3.1-0.9,4.5c-0.4,1.3-1.3,2.7-2.7,3.6c-1.3,0.9-2.7,1.8-4,2.2c-1.8,0.4-3.6,0.9-5.8,0.9h-13.4V278.3
					z M628.3,257.3h6.7c1.3,0,2.7,0,4-0.4c0.9-0.4,1.8-0.9,2.7-1.3c0.9-0.4,1.3-1.3,1.8-2.2s0.4-1.8,0.4-2.7c0-2.2-0.9-4-2.2-4.9
					c-1.3-0.9-3.6-1.8-6.3-1.8h-7.2V257.3z M628.3,260.8v13.4h8.5c1.3,0,2.7,0,4-0.4c0.9-0.4,1.8-0.9,2.7-1.3
					c0.9-0.4,1.3-1.3,1.3-2.2c0.4-0.9,0.4-1.8,0.4-2.7c0-1.8-0.9-3.6-2.2-4.9c-1.3-1.3-3.6-1.8-6.3-1.8
					C636.8,260.8,628.3,260.8,628.3,260.8z"/>
				<path d="M668.6,262.2v16.1h-5.4v-38.5h10.7c2.2,0,4.5,0.4,6.3,0.9s3.1,1.3,4.5,2.2c1.3,0.9,1.8,2.2,2.7,3.6
					c0.9,1.3,0.9,2.7,0.9,4.5c0,1.3,0,2.7-0.4,4c-0.4,1.3-0.9,2.2-1.8,3.1c-0.9,0.9-1.8,1.8-3.1,2.2c-1.3,0.4-2.7,1.3-4,1.3
					c0.4,0.4,1.3,0.9,1.8,1.8l11.2,15.2h-4.5c-0.9,0-1.8-0.4-2.2-0.9l-9.8-13.9c-0.4-0.4-0.4-0.9-0.9-0.9c-0.4,0-0.9-0.4-1.8-0.4h-4
					V262.2z M668.6,258.6h5.4c1.3,0,2.7,0,4-0.4c1.3-0.4,2.2-0.9,2.7-1.3c0.9-0.9,1.3-1.3,1.8-2.2c0.4-0.9,0.4-1.8,0.4-3.1
					c0-2.2-0.9-4-2.2-5.4c-1.3-1.3-3.6-1.8-6.7-1.8h-5.8v14.3H668.6z"/>
				<path d="M725.8,239.8v4.5h-18.3v13h14.8v4h-14.8v13h18.3v4h-23.7v-38.5H725.8z"/>
				<path d="M733.4,239.8h4.5c0.4,0,0.9,0,1.3,0.4c0.4,0.4,0.4,0.4,0.4,0.9l8,26.8c0,0.4,0.4,0.9,0.4,1.3c0,0.4,0.4,1.3,0.4,1.8
					c0-0.4,0.4-1.3,0.4-1.8c0-0.4,0.4-0.9,0.4-1.3l8.9-26.8c0-0.4,0.4-0.4,0.4-0.9c0.4-0.4,0.9-0.4,1.3-0.4h1.3c0.4,0,0.9,0,1.3,0.4
					c0.4,0.4,0.4,0.4,0.4,0.9l8.9,26.8c0.4,0.9,0.4,1.8,0.9,3.1c0-0.4,0-1.3,0.4-1.8c0-0.4,0-0.9,0.4-1.3l8-26.8
					c0-0.4,0.4-0.4,0.4-0.9c0.4-0.4,0.9-0.4,1.3-0.4h4l-12.1,38.5h-4.5l-9.8-29.5c0-0.4-0.4-1.3-0.4-1.8c0,0.4,0,0.9-0.4,0.9
					c0,0.4,0,0.4-0.4,0.9l-9.8,29.5h-4.5L733.4,239.8z"/>
				<path d="M821.1,239.8v4.5h-18.3v13h14.8v4h-14.8v13h18.3v4h-23.7v-38.5H821.1z"/>
				<path d="M838.9,262.2v16.1h-5.4v-38.5h10.7c2.2,0,4.5,0.4,6.3,0.9s3.1,1.3,4.5,2.2c1.3,0.9,1.8,2.2,2.7,3.6
					c0.9,1.3,0.9,2.7,0.9,4.5c0,1.3,0,2.7-0.4,4c-0.4,1.3-0.9,2.2-1.8,3.1c-0.9,0.9-1.8,1.8-3.1,2.2c-1.3,0.4-2.7,1.3-4,1.3
					c0.4,0.4,1.3,0.9,1.8,1.8l11.2,15.2h-4.5c-0.9,0-1.8-0.4-2.2-0.9l-9.8-13.9c-0.4-0.4-0.4-0.9-0.9-0.9s-0.9-0.4-1.8-0.4h-4V262.2
					z M838.9,258.6h5.4c1.3,0,2.7,0,4-0.4c1.3-0.4,2.2-0.9,2.7-1.3c0.9-0.9,1.3-1.3,1.8-2.2c0.4-0.9,0.4-1.8,0.4-3.1
					c0-2.2-0.9-4-2.2-5.4c-1.3-1.3-3.6-1.8-6.7-1.8h-5.8v14.3H838.9z"/>
				<path d="M887.2,263.1v15.2h-5.4v-15.2l-14.3-23.3h4.5c0.4,0,0.9,0,0.9,0.4c0.4,0.4,0.4,0.4,0.9,0.9l8.9,14.8
					c0.4,0.4,0.4,1.3,0.9,1.8s0.4,0.9,0.4,1.8c0-0.4,0.4-0.9,0.4-1.8c0.4-0.4,0.4-1.3,0.9-1.8l8.9-14.8c0-0.4,0.4-0.4,0.4-0.9
					c0.4-0.4,0.4-0.4,0.9-0.4h4.5L887.2,263.1z"/>
			</g>
		</g>
	</g>
</g>
</svg>
