<?xml version="1.0" encoding="utf-8"?>
<!-- Generator: Adobe Illustrator 21.1.0, SVG Export Plug-In . SVG Version: 6.00 Build 0)  -->
<svg version="1.1" xmlns="http://www.w3.org/2000/svg" xmlns:xlink="http://www.w3.org/1999/xlink" x="0px" y="0px"
	 viewBox="0 0 1000 618" style="enable-background:new 0 0 1000 618;" xml:space="preserve">
<style type="text/css">
	.st0{fill:#FFFFFF;}
</style>
<g id="Layer_2">
	<rect class="st0" width="1000" height="618"/>
</g>
<g id="Layer_1">
	<g>
		<path d="M710,115.4c18.7,0,36.8-1.1,54.6,0.3c16.8,1.1,27.8,14.6,29.2,31.6c1.4,16.8-7.8,30.5-23.5,35.4
			c-6.8,1.9-13.8,2.7-21.6,4.1c15.4,20.3,30.8,40.3,46.2,60.3c-11.1,3.5-14.9,2.2-21.4-6.2c-13-17-25.9-34.1-39.2-50.5
			c-1.9-2.4-5.9-3.8-8.9-5.4c-0.8,0.5-1.4,1.1-2.2,1.6c0,45.4,0,90.6,0,136.2c-4.9,0-8.9,0-13.2,0C710,253.3,710,184.1,710,115.4z
			 M724.1,172.7c13.2-0.8,26.2-0.5,38.9-2.2c10.8-1.4,17-10.3,17-21.1s-6.8-19.2-17.6-20.5c-12.4-1.4-25.1-1.4-38.1-1.9
			C724.1,142.7,724.1,157,724.1,172.7z"/>
		<path d="M356.2,247.8c-4.6,0-8.4,0-13.2,0c-4.3-31.1-8.6-62.2-13.2-95.4c-1.9,3.2-3,4.9-3.8,6.5c-13.5,27.8-27,55.7-40.8,83.5
			c-1.1,1.9-3,3.5-4.3,5.4c-1.6-1.6-3.5-3.2-4.6-5.1c-13.8-27.6-27.3-55.1-40.8-82.7c-1.1-2.2-2.2-4.3-4.3-8.1
			c-4.3,33-8.6,64.1-13,95.4c-4.3,0-8.4,0-13,0c6.2-44.6,12.4-88.9,18.7-133.3c0.8-0.3,1.6-0.5,2.4-0.8
			c18.1,36.8,36,73.3,54.6,110.8c18.1-37.6,35.7-73.8,53.5-110.3c0.8,0,1.9,0,2.7,0.3C343.5,158.4,349.7,203,356.2,247.8z"/>
		<path d="M670,217c3.5,1.9,6.8,3.5,9.7,5.1c-8.9,21.9-37.6,33.2-63.8,25.4c-24.1-7.3-38.4-32.7-33.2-59.2
			c4.9-25.9,29.2-42.7,56.5-39.7c26.2,3,44.9,24.3,44.3,51.9c-29.5,0-58.9,0-88.4,0c0.3,16.8,8.9,30,23.2,34.6
			C640,241.9,657.1,235.1,670,217z M669.2,188.4c-4.1-18.1-18.9-28.7-38.4-28.1c-17.3,0.5-31.1,12.2-33.5,28.1
			C621.1,188.4,644.9,188.4,669.2,188.4z"/>
		<path d="M466.8,166.2c0-5.9,0-10.5,0-15.7c4.3,0,8.1,0,12.4,0c0,32.4,0,64.9,0,97.6c-4.1,0-7.6,0-11.9,0c0-4.6,0-9.2,0-16.2
			c-13,13.5-27.3,19.2-43.8,17.8c-16.8-1.4-29.7-9.2-38.9-23c-13.8-20.5-9.7-48.9,9.2-65.7C414,142.7,441.1,144.3,466.8,166.2z
			 M429.2,160.3c-21.9-0.3-40,16.8-40.3,38.4c-0.3,21.1,17.6,38.9,38.7,39.2c22.2,0.3,39.2-15.9,40-37.6
			C468.1,178.4,451.1,160.5,429.2,160.3z"/>
		<path d="M571.9,150.3C553.5,178.9,535.7,207,517,236c18.1,0,35.1,0,53,0c0,4.3,0,7.8,0,11.9c-24.9,0-49.7,0-76,0
			c18.4-28.7,36.2-56.8,55.1-86.2c-17.3,0-33.5,0-49.7,0c0-4.1,0-7.6,0-11.4C523.2,150.3,547,150.3,571.9,150.3z"/>
		<path d="M722.5,622.8c-4.3,0-8.4,0-12.4,0c0-54.3,0-108.1,0-162.5c4.3,0,8.1,0,12.4,0C722.5,514.4,722.5,568.2,722.5,622.8z"/>
		<path class="st0" d="M724.1,172.7c0-15.7,0-30.3,0-46c13,0.5,25.7,0.5,38.1,1.9c11.1,1.4,17.6,9.7,17.6,20.5s-6.2,19.7-17,21.1
			C750.3,172.2,737.3,172.2,724.1,172.7z"/>
		<path class="st0" d="M669.2,188.4c-24.3,0-48.1,0-71.9,0c2.4-15.9,16.5-27.3,33.5-28.1C650,159.5,665.2,170.3,669.2,188.4z"/>
		<path class="st0" d="M429.2,160.3c21.9,0.3,38.9,18.1,38.4,40c-0.5,21.6-17.8,37.8-40,37.6c-21.1-0.3-38.9-18.1-38.7-39.2
			C389.2,177,407.3,160,429.2,160.3z"/>
	</g>
	<circle cx="500" cy="368" r="9.5"/>
</g>
</svg>
