<svg width="669" height="305" xmlns="http://www.w3.org/2000/svg">
 <style type="text/css">.st0{display:none;}
	.st1{display:inline;fill:#319E16;stroke:#000000;stroke-width:0.5;stroke-linecap:round;stroke-linejoin:round;}
	.st2{fill:#63C250;}
	.st3{fill:#81DD6B;}</style>

 <g>
  <title>background</title>
  <rect fill="none" id="canvas_background" height="307" width="671" y="-1" x="-1"/>
 </g>
 <g>
  <title>Layer 1</title>
  <g class="st0" id="Layer_2">
   <rect id="svg_1" height="1105" width="1105" class="st1" y="64.5" x="25.5"/>
  </g>
  <g transform="rotate(27.11766242980957 562.1746215820312,119.09728240966794) " stroke="null" id="Layer_1">
   <g stroke="null" id="XMLID_1_">
    <g stroke="null" id="svg_2">
     <path stroke="null" id="svg_3" d="m523.231755,164.827799c0.09126,0 0.164268,0 0.237276,-0.018252c0,0 0,0 0,0c5.931909,-0.255528 11.827314,-1.715691 17.83223,-0.784837c-5.731136,-2.208495 -11.517029,-1.971219 -17.339426,-0.803089l0,0c-1.587926,0.09126 -3.212357,1.514918 -5.110568,-0.529309c2.263251,-3.084593 4.416991,-6.296949 6.808006,-9.235526c4.088454,-4.982803 7.100039,-11.626541 13.78028,-12.831175c7.373819,-2.281503 14.729386,-4.782031 22.577757,-3.632153c-2.244999,-1.752195 -4.581259,-1.25939 -6.881014,-1.387154c-5.840649,-0.328536 -11.298005,3.358373 -17.211661,2.062479c8.176908,-9.673574 16.335564,-19.328897 24.512472,-29.002471c7.83012,-3.157601 16.02528,-3.686909 24.202188,-4.563007c-2.902072,-0.803089 -5.804145,-0.602317 -8.687965,-0.748333c-3.796422,-0.18252 -7.483331,2.993332 -11.279753,0.328536l0,0c5.165324,-5.58512 10.312395,-11.206745 15.514223,-16.737109c4.435243,-4.709023 8.596705,-9.746582 14.400849,-12.520891c3.741666,-1.788699 7.994388,-0.474553 12.101094,-3.851178c-4.453495,0.693577 -8.176908,1.277642 -12.393126,1.934715c2.354511,-3.851178 5.968413,-5.67638 7.757111,-9.418046c0,0 0.018252,0 0.018252,0l-0.018252,-0.018252c0,0 0,0 0,0c-3.942438,-1.825203 -3.887682,3.011584 -5.639876,4.745527c-6.424714,6.333453 -12.721663,12.849427 -19.055116,19.310645c0.675325,-11.042476 -0.620569,-21.555644 -6.278697,-30.937186c3.832926,9.764834 6.023169,19.821701 4.197966,30.590397l0,0c-0.310284,1.952967 -0.912601,3.686909 -2.208495,5.110568c-9.089509,10.038615 -18.160767,20.095482 -27.250276,30.152349c-3.376625,-8.888737 -5.804145,-18.434547 -12.192354,-25.443326c4.270974,7.884876 7.957884,16.080036 10.093371,25.114789l0,0c0.894349,2.51878 -0.511057,4.05195 -1.788699,5.621624c-1.971219,2.409268 -4.015446,4.763779 -5.950161,7.209551c-5.986665,7.611095 -11.936826,15.240443 -18.507555,23.654627c-1.478414,-6.096177 -2.719552,-11.279753 -3.978942,-16.48158c-0.054756,3.504389 0.693577,6.698494 1.478414,9.892599c1.332398,5.366096 1.095122,10.038615 -2.464024,14.58337c-3.394877,4.32573 -6.789754,8.906989 -8.687965,14.638126c5.4026,-5.986665 8.268168,-15.641987 17.412434,-16.007028c-0.018252,0 0,0 0,0zm109.238382,-128.439514c1.131626,8.742721 -1.514918,16.262556 -5.840649,23.125318c-3.887682,6.150933 -3.86943,6.424714 2.007723,9.564062c8.140404,4.343982 9.345038,12.009834 2.920324,19.438409c-4.033698,4.672519 -9.199022,7.154795 -14.273085,9.837843c-4.727275,2.500528 -4.982803,4.289226 -1.277642,8.450689c1.806951,2.044227 3.942438,3.723414 5.712884,5.804145c4.928047,5.731136 4.23447,11.571785 -2.062479,15.057922c-4.563007,2.537032 -9.436298,4.252722 -14.601622,4.307478c-5.731136,0.054756 -11.444021,0 -17.156905,0.346789c-2.044227,0.127764 -4.982803,-0.876097 -5.950161,1.971219c-0.967357,2.774308 1.752195,4.32573 3.048089,6.205689c4.343982,6.242193 2.500528,13.889793 -4.033698,16.408572c-2.756056,1.058618 -5.548616,1.496666 -8.468941,1.07687c-5.512112,-0.803089 -11.042476,-1.496666 -16.572841,-2.117235c-1.825203,-0.200772 -3.705161,-0.200772 -5.548616,-0.054756c-1.496666,0.127764 -3.449633,0.146016 -4.106706,1.770447c-0.766585,1.916463 1.113374,3.011584 2.080731,4.270974c2.098983,2.7013 5.785893,5.274836 4.033698,9.217274c-1.788699,4.033698 -5.731136,1.606178 -8.797477,1.332398c-1.003861,-0.09126 -1.989471,-0.419797 -2.993332,-0.547561c-6.789754,-0.894349 -7.337315,-0.27378 -6.388209,7.574591c0.584065,4.855039 -0.857845,7.866624 -5.055811,9.27203c-6.205689,2.117235 -12.356622,0.748333 -18.562311,0.292032c-3.358373,-0.237276 -7.063534,-2.299755 -10.038615,1.460162c-0.255528,-0.054756 -0.474553,-0.200772 -0.638821,-0.401545c0,0 0,0 0,0c-1.642682,-8.085648 -0.967357,-16.098288 1.095122,-23.873651c2.555284,-9.710078 4.216218,-19.365401 2.482276,-29.586536c-0.894349,-5.31134 0.346789,-10.111623 4.05195,-13.835036c2.628292,-2.628292 4.526503,-2.098983 5.931909,1.423658c0.492805,1.241138 0.803089,2.591788 1.149878,3.905934c0.657073,2.42752 0.967357,5.512112 3.559145,5.840649c2.683048,0.346789 4.088454,-2.445772 5.31134,-4.763779c2.208495,-4.179714 1.460162,-8.724469 0.693577,-13.177964c-1.16813,-6.826258 -4.179714,-12.867679 -6.023169,-19.401905c-1.879959,-6.698494 -2.591788,-13.451744 -1.058618,-20.314506c1.222886,-5.475608 3.796422,-6.972274 8.359428,-4.928047c4.617763,2.062479 8.37768,5.822397 12.393126,9.071257c3.559145,2.902072 5.913657,2.464024 7.994388,-2.299755c3.559145,-8.176908 5.366096,-16.956133 7.337315,-25.717106c1.405406,-6.296949 2.591788,-12.666907 5.548616,-18.288531c4.672519,-8.906989 10.348899,-9.144266 15.167434,-0.438049c1.715691,3.102845 2.865568,6.66199 4.23447,10.020363c2.7013,6.66199 5.986665,7.465079 10.385403,2.080731c3.029836,-3.686909 5.58512,-7.884876 8.468941,-11.736053c5.712884,-7.647599 8.943493,-7.720607 14.473857,0.146016c1.806951,2.573536 3.376625,2.847316 5.58512,1.332398c2.628292,-1.788699 5.31134,-3.340121 8.268168,-4.380486c4.23447,-1.496666 6.534226,0.383293 7.154795,5.256584z" class="st2"/>
     <path stroke="null" id="svg_4" d="m500.544485,190.435393c-0.255528,0.237276 -0.492805,0.474553 -0.748333,0.693577c0.036504,-0.365041 0.054756,-0.730081 0.09126,-1.113374c0,0 0,0 0,0c0.200772,0.237276 0.419797,0.365041 0.657073,0.419797z" class="st3"/>
     <path stroke="null" id="svg_5" d="m596.294619,72.545551c4.23447,-0.657073 7.939632,-1.241138 12.393126,-1.934715c-4.106706,3.376625 -8.37768,2.062479 -12.101094,3.851178c-5.804145,2.774308 -9.947355,7.811868 -14.400849,12.520891c-5.22008,5.530364 -10.348899,11.151989 -15.514223,16.737109l0,0c-0.693577,2.482276 -3.102845,2.993332 -4.23447,4.982803c-8.176908,9.673574 -16.353816,19.328897 -24.512472,29.002471l0,0c-3.175853,3.577397 1.25939,1.806951 1.53317,2.956828c-6.680242,1.204634 -9.691826,7.848372 -13.78028,12.831175c-2.409268,2.920324 -4.544755,6.150933 -6.808006,9.235526c1.879959,2.025975 3.522641,0.620569 5.110568,0.529309c-0.237276,0.529309 -0.492805,1.058618 -0.730081,1.587926c-9.126014,0.383293 -11.991582,10.038615 -17.394182,16.02528c1.916463,-5.731136 5.293088,-10.294143 8.687965,-14.638126c3.559145,-4.544755 3.814674,-9.217274 2.464024,-14.58337c-0.803089,-3.194105 -1.551422,-6.388209 -1.478414,-9.892599c1.241138,5.183576 2.500528,10.367151 3.978942,16.48158c6.57073,-8.414184 12.520891,-16.061784 18.507555,-23.654627c1.934715,-2.464024 3.978942,-4.800283 5.950161,-7.209551c1.277642,-1.569674 2.683048,-3.102845 1.788699,-5.621624c0.711829,0.127764 1.423658,0.255528 2.117235,0.383293c9.034753,-10.093371 18.106011,-20.16849 27.213772,-30.207105c1.295894,-1.423658 1.898211,-3.157601 2.208495,-5.110568l0,0c0.766585,-0.492805 1.149878,2.080731 2.080731,0.365041c6.351705,-6.442966 12.630403,-12.958939 19.055116,-19.310645c1.752195,-1.733943 1.697439,-6.57073 5.639876,-4.745527c-1.825203,3.741666 -5.420852,5.58512 -7.775364,9.418046z" class="st3"/>
     <path stroke="null" id="svg_6" d="m577.951332,103.391476c2.88382,0.146016 5.785893,-0.054756 8.687965,0.748333c-8.19516,0.876097 -16.372068,1.405406 -24.202188,4.563007c1.44191,-1.62443 4.636015,-1.204634 4.23447,-4.982803c3.796422,2.664796 7.483331,-0.529309 11.279753,-0.328536z" class="st3"/>
     <path stroke="null" id="svg_7" d="m573.078041,56.228238c5.658128,9.381542 6.954022,19.894709 6.278697,30.937186c-0.730081,0.109512 -1.222886,-1.53317 -2.080731,-0.365041l0,0l0,0c1.825203,-10.750444 -0.365041,-20.789059 -4.197966,-30.572145z" class="st3"/>
     <path stroke="null" id="svg_8" d="m577.276007,86.818636c0.857845,-1.16813 1.35065,0.456301 2.080731,0.365041c-0.930853,1.715691 -1.295894,-0.876097 -2.080731,-0.365041z" class="st3"/>
     <path stroke="null" id="svg_9" d="m566.671579,103.720013c0.401545,3.759918 -2.79256,3.358373 -4.23447,4.982803c1.131626,-1.989471 3.540893,-2.500528 4.23447,-4.982803l0,0l0,0z" class="st3"/>
     <path stroke="null" id="svg_10" d="m562.017312,137.01171c-7.848372,-1.149878 -15.203939,1.35065 -22.577757,3.632153c0.638821,-1.788699 -2.409268,-0.985609 -1.514918,-2.956828c5.913657,1.295894 11.389265,-2.391016 17.211661,-2.062479c2.299755,0.146016 4.636015,-0.365041 6.881014,1.387154z" class="st3"/>
     <path stroke="null" id="svg_11" d="m547.835487,122.099804c-0.711829,-0.127764 -1.423658,-0.255528 -2.117235,-0.383293c0.857845,-1.095122 1.44191,0.054756 2.117235,0.383293z" class="st3"/>
     <path stroke="null" id="svg_12" d="m547.835487,122.099804c-0.693577,-0.328536 -1.25939,-1.478414 -2.117235,-0.383293l0,0c-2.117235,-9.034753 -5.804145,-17.229914 -10.093371,-25.114789c6.388209,7.008778 8.815729,16.554589 12.210606,25.498082z" class="st3"/>
     <path stroke="null" id="svg_13" d="m537.924637,137.705287c-0.876097,1.971219 2.153739,1.149878 1.514918,2.956828c-0.27378,-1.16813 -4.690771,0.620569 -1.514918,-2.956828l0,0z" class="st3"/>
     <path stroke="null" id="svg_14" d="m541.301262,164.02471c-5.986665,-0.949105 -11.900322,0.511057 -17.83223,0.784837c0.857845,-0.09126 0.949105,-0.657073 0.474553,-1.569674l0,0c5.840649,-1.16813 11.626541,-1.423658 17.357678,0.784837z" class="st3"/>
     <path stroke="null" id="svg_15" d="m523.943584,163.239873c0.456301,0.912601 0.383293,1.496666 -0.474553,1.569674c0,0 0,0 0,0c-0.073008,0 -0.164268,0 -0.237276,0.018252c0,0 -0.018252,0 -0.018252,0c0.255528,-0.529309 0.492805,-1.058618 0.730081,-1.587926z" class="st3"/>
     <path stroke="null" id="svg_16" d="m500.544485,190.435393c-3.321869,6.826258 -6.643738,13.652516 -9.965607,20.478774c-0.638821,-0.456301 -1.25939,-0.930853 -1.898211,-1.387154c3.668657,-6.534226 6.826258,-13.469996 11.224997,-19.493165c-0.036504,0.365041 -0.054756,0.730081 -0.09126,1.113374c0.237276,-0.237276 0.492805,-0.474553 0.730081,-0.711829z" class="st3"/>
    </g>
    <g stroke="null" id="svg_17"/>
   </g>
  </g>
  <g transform="rotate(-152.38677978515625 103.4944839477539,203.0997314453125) " stroke="null" id="svg_35">
   <g stroke="null" id="svg_34">
    <g stroke="null" id="svg_32">
     <path stroke="null" id="svg_18" d="m64.551642,248.830261c0.09126,0 0.16427,0 0.23727,-0.01825c0,0 0,0 0,0c5.93191,-0.25553 11.82732,-1.71569 17.83224,-0.78484c-5.73114,-2.20849 -11.51703,-1.97122 -17.33943,-0.80309l0,0c-1.58793,0.09126 -3.21236,1.51492 -5.11057,-0.52931c2.26325,-3.08459 4.41699,-6.29695 6.80801,-9.23552c4.08845,-4.98281 7.10004,-11.62654 13.78028,-12.83118c7.37382,-2.2815 14.72938,-4.78203 22.57776,-3.63215c-2.245,-1.75219 -4.58126,-1.25939 -6.88102,-1.38715c-5.84065,-0.32854 -11.298,3.35837 -17.21166,2.06247c8.17691,-9.67357 16.33556,-19.32889 24.51247,-29.00247c7.83012,-3.1576 16.02528,-3.68691 24.20219,-4.563c-2.90207,-0.80309 -5.80414,-0.60232 -8.68796,-0.74834c-3.79643,-0.18252 -7.48334,2.99334 -11.27976,0.32854l0,0c5.16533,-5.58512 10.3124,-11.20674 15.51423,-16.73711c4.43524,-4.70902 8.5967,-9.74658 14.40085,-12.52089c3.74166,-1.7887 7.99438,-0.47455 12.10109,-3.85118c-4.4535,0.69358 -8.17691,1.27765 -12.39313,1.93472c2.35451,-3.85118 5.96842,-5.67638 7.75711,-9.41805c0,0 0.01826,0 0.01826,0l-0.01826,-0.01825c0,0 0,0 0,0c-3.94243,-1.8252 -3.88768,3.01158 -5.63987,4.74553c-6.42472,6.33345 -12.72166,12.84942 -19.05512,19.31064c0.67533,-11.04247 -0.62057,-21.55564 -6.2787,-30.93718c3.83293,9.76483 6.02317,19.8217 4.19797,30.59039l0,0c-0.31028,1.95297 -0.9126,3.68691 -2.20849,5.11057c-9.08951,10.03862 -18.16077,20.09548 -27.25028,30.15235c-3.37663,-8.88874 -5.80415,-18.43455 -12.19236,-25.44333c4.27098,7.88488 7.95789,16.08004 10.09338,25.11479l0,0c0.89435,2.51878 -0.51106,4.05195 -1.7887,5.62163c-1.97122,2.40926 -4.01545,4.76378 -5.95016,7.20955c-5.98667,7.61109 -11.93683,15.24044 -18.50756,23.65463c-1.47841,-6.09618 -2.71955,-11.27976 -3.97894,-16.48159c-0.05476,3.50439 0.69358,6.6985 1.47841,9.8926c1.3324,5.3661 1.09512,10.03862 -2.46402,14.58337c-3.39488,4.32573 -6.78975,8.90699 -8.68797,14.63813c5.4026,-5.98667 8.26817,-15.64199 17.41244,-16.00703c-0.01825,0 0,0 0,0zm109.23838,-128.43951c1.13163,8.74272 -1.51492,16.26255 -5.84065,23.12531c-3.88768,6.15094 -3.86943,6.42472 2.00772,9.56407c8.14041,4.34398 9.34504,12.00983 2.92033,19.43841c-4.0337,4.67251 -9.19902,7.15479 -14.27309,9.83784c-4.72727,2.50053 -4.9828,4.28922 -1.27764,8.45069c1.80695,2.04422 3.94244,3.72341 5.71289,5.80414c4.92804,5.73114 4.23447,11.57179 -2.06248,15.05792c-4.56301,2.53704 -9.4363,4.25273 -14.60162,4.30748c-5.73114,0.05476 -11.44403,0 -17.15691,0.34679c-2.04423,0.12776 -4.9828,-0.8761 -5.95016,1.97122c-0.96736,2.77431 1.75219,4.32573 3.04809,6.20569c4.34398,6.24219 2.50053,13.88979 -4.0337,16.40857c-2.75606,1.05862 -5.54862,1.49667 -8.46894,1.07687c-5.51211,-0.80309 -11.04248,-1.49667 -16.57284,-2.11723c-1.8252,-0.20078 -3.70516,-0.20078 -5.54862,-0.05476c-1.49666,0.12776 -3.44963,0.14602 -4.1067,1.77045c-0.76659,1.91646 1.11337,3.01158 2.08073,4.27097c2.09898,2.7013 5.78589,5.27484 4.0337,9.21727c-1.7887,4.0337 -5.73114,1.60618 -8.79748,1.3324c-1.00386,-0.09126 -1.98947,-0.41979 -2.99333,-0.54756c-6.78976,-0.89435 -7.33732,-0.27378 -6.38821,7.57459c0.58406,4.85504 -0.85785,7.86663 -5.05581,9.27203c-6.20569,2.11724 -12.35663,0.74834 -18.56232,0.29203c-3.35837,-0.23727 -7.06353,-2.29975 -10.03861,1.46017c-0.25553,-0.05476 -0.47455,-0.20078 -0.63882,-0.40155c0,0 0,0 0,0c-1.64268,-8.08565 -0.96736,-16.09829 1.09512,-23.87365c2.55528,-9.71008 4.21622,-19.3654 2.48228,-29.58653c-0.89435,-5.31134 0.34678,-10.11163 4.05195,-13.83504c2.62829,-2.62829 4.5265,-2.09898 5.9319,1.42366c0.49281,1.24113 0.80309,2.59178 1.14988,3.90593c0.65707,2.42752 0.96736,5.51211 3.55915,5.84065c2.68305,0.34679 4.08845,-2.44577 5.31134,-4.76378c2.20849,-4.17971 1.46016,-8.72447 0.69357,-13.17796c-1.16813,-6.82626 -4.17971,-12.86768 -6.02316,-19.40191c-1.87996,-6.69849 -2.59179,-13.45174 -1.05862,-20.3145c1.22288,-5.47561 3.79642,-6.97228 8.35943,-4.92805c4.61776,2.06248 8.37768,5.8224 12.39312,9.07126c3.55915,2.90207 5.91366,2.46402 7.99439,-2.29976c3.55915,-8.17691 5.3661,-16.95613 7.33731,-25.71711c1.40541,-6.29694 2.59179,-12.6669 5.54862,-18.28853c4.67252,-8.90699 10.3489,-9.14426 15.16744,-0.43805c1.71569,3.10285 2.86556,6.66199 4.23447,10.02037c2.7013,6.66199 5.98666,7.46508 10.3854,2.08073c3.02984,-3.68691 5.58512,-7.88488 8.46894,-11.73605c5.71288,-7.6476 8.94349,-7.72061 14.47386,0.14601c1.80695,2.57354 3.37662,2.84732 5.58512,1.3324c2.62829,-1.7887 5.31134,-3.34012 8.26817,-4.38049c4.23447,-1.49666 6.53422,0.3833 7.15479,5.25659z" class="st2"/>
     <path stroke="null" id="svg_19" d="m41.864372,274.437851c-0.25553,0.23728 -0.49281,0.47456 -0.74833,0.69358c0.0365,-0.36504 0.05475,-0.73008 0.09126,-1.11337c0,0 0,0 0,0c0.20077,0.23727 0.41979,0.36504 0.65707,0.41979z" class="st3"/>
     <path stroke="null" id="svg_20" d="m137.614502,156.548011c4.23447,-0.65707 7.93963,-1.24114 12.39313,-1.93471c-4.10671,3.37662 -8.37768,2.06248 -12.10109,3.85118c-5.80415,2.7743 -9.94736,7.81186 -14.40085,12.52089c-5.22008,5.53036 -10.3489,11.15198 -15.51423,16.7371l0,0c-0.69357,2.48228 -3.10284,2.99334 -4.23447,4.98281c-8.17691,9.67357 -16.35381,19.32889 -24.51247,29.00247l0,0c-3.17585,3.5774 1.25939,1.80695 1.53317,2.95683c-6.68024,1.20463 -9.69183,7.84837 -13.78028,12.83117c-2.40927,2.92033 -4.54475,6.15094 -6.80801,9.23553c1.87996,2.02597 3.52265,0.62057 5.11057,0.52931c-0.23727,0.52931 -0.4928,1.05861 -0.73008,1.58792c-9.12601,0.3833 -11.99158,10.03862 -17.39418,16.02528c1.91646,-5.73113 5.29309,-10.29414 8.68796,-14.63812c3.55915,-4.54476 3.81468,-9.21728 2.46403,-14.58337c-0.80309,-3.19411 -1.55142,-6.38821 -1.47842,-9.8926c1.24114,5.18357 2.50053,10.36715 3.97895,16.48158c6.57072,-8.41419 12.52089,-16.06178 18.50755,-23.65463c1.93472,-2.46402 3.97894,-4.80028 5.95016,-7.20955c1.27764,-1.56967 2.68305,-3.10284 1.7887,-5.62162c0.71183,0.12776 1.42366,0.25553 2.11724,0.38329c9.03475,-10.09337 18.10601,-20.16849 27.21377,-30.20711c1.29589,-1.42365 1.89821,-3.1576 2.20849,-5.11056l0,0c0.76659,-0.49281 1.14988,2.08073 2.08073,0.36504c6.35171,-6.44297 12.63041,-12.95894 19.05512,-19.31065c1.75219,-1.73394 1.69744,-6.57073 5.63988,-4.74552c-1.82521,3.74166 -5.42086,5.58512 -7.77537,9.41804z" class="st3"/>
     <path stroke="null" id="svg_21" d="m119.271222,187.393941c2.88382,0.14601 5.78589,-0.05476 8.68796,0.74833c-8.19516,0.8761 -16.37207,1.40541 -24.20219,4.56301c1.44191,-1.62443 4.63602,-1.20464 4.23447,-4.98281c3.79642,2.6648 7.48333,-0.5293 11.27976,-0.32853z" class="st3"/>
     <path stroke="null" id="svg_22" d="m114.397922,140.230701c5.65813,9.38154 6.95403,19.89471 6.2787,30.93719c-0.73008,0.10951 -1.22288,-1.53317 -2.08073,-0.36504l0,0l0,0c1.8252,-10.75045 -0.36504,-20.78906 -4.19797,-30.57215z" class="st3"/>
     <path stroke="null" id="svg_23" d="m118.595892,170.821101c0.85785,-1.16813 1.35065,0.4563 2.08073,0.36504c-0.93085,1.71569 -1.29589,-0.8761 -2.08073,-0.36504z" class="st3"/>
     <path stroke="null" id="svg_24" d="m107.991462,187.722471c0.40155,3.75992 -2.79256,3.35838 -4.23447,4.98281c1.13163,-1.98947 3.5409,-2.50053 4.23447,-4.98281l0,0l0,0z" class="st3"/>
     <path stroke="null" id="svg_25" d="m103.337202,221.014171c-7.84838,-1.14988 -15.20394,1.35065 -22.57776,3.63216c0.63882,-1.7887 -2.40927,-0.98561 -1.51492,-2.95683c5.91366,1.29589 11.38927,-2.39102 17.21166,-2.06248c2.29976,0.14601 4.63602,-0.36504 6.88102,1.38715z" class="st3"/>
     <path stroke="null" id="svg_26" d="m89.155372,206.102271c-0.71183,-0.12777 -1.42366,-0.25553 -2.11723,-0.3833c0.85784,-1.09512 1.44191,0.05476 2.11723,0.3833z" class="st3"/>
     <path stroke="null" id="svg_27" d="m89.155372,206.102271c-0.69358,-0.32854 -1.25939,-1.47842 -2.11723,-0.3833l0,0c-2.11724,-9.03475 -5.80415,-17.22991 -10.09338,-25.11479c6.38821,7.00878 8.81573,16.55459 12.21061,25.49809z" class="st3"/>
     <path stroke="null" id="svg_28" d="m79.244522,221.707751c-0.8761,1.97122 2.15374,1.14988 1.51492,2.95683c-0.27378,-1.16813 -4.69077,0.62057 -1.51492,-2.95683l0,0z" class="st3"/>
     <path stroke="null" id="svg_29" d="m82.621152,248.027171c-5.98667,-0.9491 -11.90033,0.51106 -17.83224,0.78484c0.85785,-0.09126 0.94911,-0.65707 0.47456,-1.56968l0,0c5.84065,-1.16813 11.62654,-1.42365 17.35768,0.78484z" class="st3"/>
     <path stroke="null" id="svg_30" d="m65.263472,247.242331c0.4563,0.91261 0.38329,1.49667 -0.47456,1.56968c0,0 0,0 0,0c-0.073,0 -0.16426,0 -0.23727,0.01825c0,0 -0.01825,0 -0.01825,0c0.25552,-0.52931 0.4928,-1.05862 0.73008,-1.58793z" class="st3"/>
     <path stroke="null" id="svg_31" d="m41.864372,274.437851c-3.32187,6.82626 -6.64374,13.65252 -9.96561,20.47878c-0.63882,-0.4563 -1.25939,-0.93085 -1.89821,-1.38715c3.66866,-6.53423 6.82626,-13.47 11.225,-19.49317c-0.03651,0.36504 -0.05476,0.73008 -0.09126,1.11337c0.23727,-0.23727 0.4928,-0.47455 0.73008,-0.71183z" class="st3"/>
    </g>
    <g stroke="null" id="svg_33"/>
   </g>
  </g>
  <text xml:space="preserve" text-anchor="start" font-family="Helvetica, Arial, sans-serif" font-size="111" id="svg_36" y="190.895724" x="37.0716" stroke-width="0" stroke="#000" fill="#ffffff">Bookkeeper</text>
 </g>
</svg>