<?xml version="1.0" encoding="utf-8"?>
<!-- Generator: Adobe Illustrator 21.1.0, SVG Export Plug-In . SVG Version: 6.00 Build 0)  -->
<svg version="1.1" xmlns="http://www.w3.org/2000/svg" xmlns:xlink="http://www.w3.org/1999/xlink" x="0px" y="0px"
	 viewBox="0 0 200 76" style="enable-background:new 0 0 200 76;" xml:space="preserve">
<g id="Layer_1">
</g>
<g id="Layer_2">
	<g>
		<g>
			<path d="M139.3,24.7c0.5,2.5,0.2,3-2.4,2.9c-1.6-0.1-3.2-0.4-4.8-0.6c-0.5-0.1-0.9,0-1.4,0.1c-0.2,0-0.4,0.4-0.7,0.4
				c-2.1,0-4.2,0-6.5,0c-0.6,5.1-2.3,9.8-6,14c1.1,1,2.2,2,3.2,3c0.7,0.7,1.1,1.7,1.7,2.5c0.3,0.4,0.6,0.8,1,1.1
				c1.4,1.1,2.9,2.2,4.2,3.4c0.9,0.7,1.3,1.6,0.3,2.6c-1.1,1-1.9,0.3-2.6-0.5c-1.1-1.4-2.1-2.9-3.2-4.1c-0.7-0.8-1.8-1.1-2.6-1.8
				c-1.3-1.2-2.5-2.6-3.9-4c-4.2,3.5-8.9,5.4-13.8,5.8c-0.3,1.4-0.5,2.7-0.7,3.9c0,0.3-0.1,0.6-0.1,0.9c0.1,0.3,0.5,0.7,0.4,0.9
				c-1.4,2.7,0.6,5.4,0.1,8.2c-0.2,1.1-0.2,2.2-1.6,2.2c-1.5,0-1.8-1.1-1.6-2.3c0.2-1.7,0.5-3.5,0.7-5.2c0.1-0.5,0-0.9-0.2-1.4
				c-0.1-0.3-0.6-0.7-0.5-0.8c0.9-2-0.9-4,0.1-6c-2.6-0.7-5.1-1.2-7.4-2.1c-2.3-1-4.4-2.4-7.1-3.9c-0.8,1-1.8,2.2-3,3.3
				c-0.5,0.5-1.3,0.8-2,1.3c-0.4,0.3-0.9,0.6-1.2,1.1c-1.2,1.5-2.2,3.1-3.5,4.4c-0.4,0.4-1.7,0.5-2.2,0.2c-1.1-0.7-0.7-1.7,0.1-2.4
				c1.4-1.2,3-2.3,4.4-3.6c0.7-0.7,1.1-1.9,1.8-2.6c1.2-1.3,2.6-2.4,4-3.7c-3.6-4.4-5.6-9-5.9-13.9c-1.5-0.3-2.7-0.5-4-0.7
				c-0.6-0.1-1.4,0.6-1.8,0.3c-2.8-1.4-5.4,0.6-8.2,0.1c-2-0.4-2.4-0.7-1.9-2.8c11,0,22.1,0,33.1,0c-0.3,3.1,0.7,5.6,3.6,6.9
				c4.5,2.1,9.6-1.6,8.8-6.9C117.3,24.7,128.3,24.7,139.3,24.7z M99,34.5c-1.3-0.5-2.6-1-3.8-1.4c-1.6,1.6-3.2,3.1-5.2,5.1
				c3.1,1.2,5.9,2.3,9,3.6C99,38.8,99,36.7,99,34.5z M100.9,41.2c3.3-0.3,6.2-1.3,8.5-3.3c-1.6-1.7-3.2-3.3-4.7-4.8
				c-1.3,0.5-2.6,1-3.9,1.4C100.9,36.7,100.9,38.8,100.9,41.2z M91.5,26.8c-2.2,0-4.4,0-6.7,0c0.3,3.3,1.3,6.1,3.2,8.4
				c1.8-1.6,3.4-3.1,4.9-4.6C92.4,29.3,91.9,28.1,91.5,26.8z M108.6,27c-0.5,1.4-1,2.6-1.4,3.5c1.6,1.7,3.1,3.3,5.1,5.4
				c1.2-3.1,2.3-5.8,3.5-8.9C113,27,110.8,27,108.6,27z M116.2,40.2c0.2,0,0.5,0,0.7,0c3.1-3.8,5-8.1,4.8-13.3
				c-0.7,0.3-1.3,0.8-1.4,1.3c-0.6,3.7-1.9,7-4.1,10C115.9,38.7,116.2,39.5,116.2,40.2z M98.7,47.9c0.2-0.2,0.4-0.5,0.6-0.7
				c-0.5-0.4-1-1-1.5-1.1c-3.7-0.6-7.1-1.8-10-4.1c-1.2-0.9-1.6-0.3-2.1,0.7C89.6,45.9,93.8,47.7,98.7,47.9z M78.5,26.5
				c-0.2,0.2-0.3,0.3-0.5,0.5c0.2,5,2,9.3,5.6,13.1c0.3-0.7,0.6-1.5,0.3-1.9c-2.3-3.1-3.6-6.6-4.1-10.4
				C79.7,27.3,78.9,26.9,78.5,26.5z M114.2,42.8c0-0.2,0-0.5,0-0.7c-0.7,0-1.5-0.3-1.9,0c-3.1,2.2-6.5,3.6-10.2,3.9
				c-1.4,0.1-1.3,0.8-0.9,1.8C106.1,47.7,110.4,45.9,114.2,42.8z"/>
			<path d="M103.7,24.7c0.2,3-0.9,4.8-3.2,5c-2.8,0.3-5-2.1-4.2-5C98.8,24.7,101.3,24.7,103.7,24.7z"/>
		</g>
		<g>
			<path d="M16.9,17.8c0.1,0,0.1,0,0.2,0.1l0.5,0.5c-0.4,0.4-0.8,0.7-1.3,1s-1.1,0.3-1.8,0.3c-0.6,0-1.2-0.1-1.7-0.3
				c-0.5-0.2-0.9-0.5-1.3-0.9c-0.4-0.4-0.6-0.8-0.8-1.4s-0.3-1.1-0.3-1.8s0.1-1.2,0.3-1.8s0.5-1,0.9-1.4c0.4-0.4,0.8-0.7,1.4-0.9
				c0.5-0.2,1.1-0.3,1.8-0.3c0.6,0,1.2,0.1,1.6,0.3s0.9,0.5,1.2,0.8l-0.4,0.5c0,0-0.1,0.1-0.1,0.1c0,0-0.1,0-0.2,0
				c-0.1,0-0.1,0-0.2-0.1s-0.1-0.1-0.2-0.1s-0.2-0.1-0.3-0.2s-0.2-0.1-0.4-0.2c-0.1-0.1-0.3-0.1-0.5-0.1c-0.2,0-0.4-0.1-0.7-0.1
				c-0.5,0-0.9,0.1-1.3,0.2c-0.4,0.2-0.7,0.4-1,0.7s-0.5,0.6-0.6,1.1s-0.2,0.9-0.2,1.4c0,0.5,0.1,1,0.2,1.4c0.2,0.4,0.4,0.8,0.6,1.1
				s0.6,0.5,0.9,0.7c0.4,0.2,0.8,0.2,1.2,0.2c0.3,0,0.5,0,0.7,0c0.2,0,0.4-0.1,0.6-0.1c0.2-0.1,0.3-0.1,0.5-0.2s0.3-0.2,0.5-0.4
				C16.8,17.9,16.8,17.8,16.9,17.8z"/>
			<path d="M27.2,19.6h-0.9c-0.1,0-0.2,0-0.3-0.1c-0.1-0.1-0.1-0.1-0.1-0.2l-0.8-2.1h-3.9l-0.8,2.1c0,0.1-0.1,0.1-0.1,0.2
				s-0.2,0.1-0.3,0.1h-0.9l3.4-8.6h1.2L27.2,19.6z M21.6,16.4h3.2l-1.3-3.5c-0.1-0.2-0.2-0.5-0.3-0.8c0,0.2-0.1,0.3-0.1,0.5
				c0,0.1-0.1,0.3-0.1,0.4L21.6,16.4z"/>
			<path d="M30.6,16.4v3.2h-1.2V11H32c0.5,0,1,0.1,1.4,0.2s0.7,0.3,1,0.5c0.3,0.2,0.5,0.5,0.6,0.8c0.1,0.3,0.2,0.7,0.2,1.1
				c0,0.4-0.1,0.8-0.2,1.1c-0.1,0.3-0.3,0.6-0.6,0.9c-0.3,0.2-0.6,0.4-1,0.6c-0.4,0.1-0.9,0.2-1.4,0.2H30.6z M30.6,15.5H32
				c0.3,0,0.6,0,0.9-0.1s0.5-0.2,0.6-0.4c0.2-0.2,0.3-0.3,0.4-0.6c0.1-0.2,0.1-0.5,0.1-0.7c0-0.5-0.2-1-0.5-1.3
				c-0.3-0.3-0.8-0.5-1.5-0.5h-1.4V15.5z"/>
			<path d="M43.6,11v1h-2.8v7.6h-1.2V12h-2.8v-1H43.6z"/>
			<path d="M52.2,19.6h-0.9c-0.1,0-0.2,0-0.3-0.1c-0.1-0.1-0.1-0.1-0.1-0.2l-0.8-2.1h-3.9l-0.8,2.1c0,0.1-0.1,0.1-0.1,0.2
				s-0.2,0.1-0.3,0.1h-0.9l3.4-8.6h1.2L52.2,19.6z M46.5,16.4h3.2l-1.3-3.5c-0.1-0.2-0.2-0.5-0.3-0.8c0,0.2-0.1,0.3-0.1,0.5
				c0,0.1-0.1,0.3-0.1,0.4L46.5,16.4z"/>
			<path d="M55.7,19.6h-1.2V11h1.2V19.6z"/>
			<path d="M59.9,11.1c0,0,0.1,0.1,0.2,0.2l5,6.5c0-0.1,0-0.2,0-0.3c0-0.1,0-0.2,0-0.3V11h1v8.6h-0.6c-0.1,0-0.2,0-0.2,0
				c-0.1,0-0.1-0.1-0.2-0.2l-5-6.5c0,0.1,0,0.2,0,0.3c0,0.1,0,0.2,0,0.3v6.1h-1V11h0.6C59.7,11,59.8,11,59.9,11.1z"/>
			<path d="M77.8,11V12h-4.1v3h3.5v0.9h-3.5v3.7h-1.2V11H77.8z"/>
			<path d="M86.7,19.6h-0.9c-0.1,0-0.2,0-0.3-0.1c-0.1-0.1-0.1-0.1-0.1-0.2l-0.8-2.1h-3.9l-0.8,2.1c0,0.1-0.1,0.1-0.1,0.2
				s-0.2,0.1-0.3,0.1h-0.9L82,11h1.2L86.7,19.6z M81,16.4h3.2l-1.3-3.5c-0.1-0.2-0.2-0.5-0.3-0.8c0,0.2-0.1,0.3-0.1,0.5
				c0,0.1-0.1,0.3-0.1,0.4L81,16.4z"/>
			<path d="M93.9,11v1h-2.8v7.6h-1.2V12h-2.8v-1H93.9z"/>
			<path d="M102,11v1h-2.8v7.6h-1.2V12h-2.8v-1H102z"/>
			<path d="M107.6,16.2v3.4h-1.2v-3.4l-3.2-5.2h1c0.1,0,0.2,0,0.2,0.1c0.1,0.1,0.1,0.1,0.2,0.2l2,3.3c0.1,0.1,0.1,0.3,0.2,0.4
				c0.1,0.1,0.1,0.2,0.1,0.4c0-0.1,0.1-0.2,0.1-0.4c0.1-0.1,0.1-0.3,0.2-0.4l2-3.3c0-0.1,0.1-0.1,0.1-0.2c0.1-0.1,0.1-0.1,0.2-0.1h1
				L107.6,16.2z"/>
			<path d="M113.7,10.6c0.1,0.2,0.2,0.4,0.3,0.6c0.1,0.2,0.1,0.4,0.1,0.6c0,0.4-0.1,0.7-0.3,1c-0.2,0.3-0.4,0.6-0.7,0.9l-0.3-0.2
				c0,0-0.1,0-0.1-0.1c0,0,0,0,0-0.1c0-0.1,0-0.1,0.1-0.1c0.1-0.1,0.1-0.2,0.2-0.2c0.1-0.1,0.1-0.2,0.2-0.3s0.1-0.2,0.1-0.3
				c0-0.1,0-0.2,0-0.3c0-0.1,0-0.3-0.1-0.4c0-0.1-0.1-0.3-0.2-0.4c0,0,0-0.1,0-0.1c0-0.1,0.1-0.2,0.2-0.2L113.7,10.6z"/>
			<path d="M121.1,12.4c0,0.1-0.1,0.1-0.1,0.1c0,0-0.1,0-0.2,0c-0.1,0-0.1,0-0.2-0.1c-0.1-0.1-0.2-0.1-0.3-0.2
				c-0.1-0.1-0.3-0.2-0.5-0.2c-0.2-0.1-0.4-0.1-0.7-0.1c-0.3,0-0.5,0-0.7,0.1c-0.2,0.1-0.4,0.2-0.5,0.3s-0.2,0.3-0.3,0.4
				c-0.1,0.2-0.1,0.3-0.1,0.5c0,0.2,0.1,0.4,0.2,0.6c0.1,0.2,0.3,0.3,0.5,0.4c0.2,0.1,0.4,0.2,0.7,0.3c0.2,0.1,0.5,0.2,0.8,0.3
				c0.3,0.1,0.5,0.2,0.8,0.3s0.5,0.2,0.7,0.4c0.2,0.2,0.3,0.4,0.5,0.6c0.1,0.2,0.2,0.5,0.2,0.9c0,0.4-0.1,0.7-0.2,1.1
				c-0.1,0.3-0.3,0.6-0.6,0.9s-0.5,0.4-0.9,0.6c-0.4,0.1-0.8,0.2-1.2,0.2c-0.6,0-1.1-0.1-1.5-0.3c-0.5-0.2-0.8-0.5-1.2-0.8l0.3-0.6
				c0,0,0.1-0.1,0.1-0.1c0,0,0.1,0,0.2,0c0.1,0,0.2,0,0.3,0.1c0.1,0.1,0.2,0.2,0.4,0.3c0.2,0.1,0.4,0.2,0.6,0.3
				c0.2,0.1,0.5,0.1,0.8,0.1c0.3,0,0.5,0,0.7-0.1c0.2-0.1,0.4-0.2,0.5-0.3c0.1-0.1,0.3-0.3,0.3-0.5c0.1-0.2,0.1-0.4,0.1-0.6
				c0-0.3-0.1-0.5-0.2-0.6c-0.1-0.2-0.3-0.3-0.5-0.4c-0.2-0.1-0.4-0.2-0.7-0.3c-0.2-0.1-0.5-0.2-0.8-0.2c-0.3-0.1-0.5-0.2-0.8-0.3
				c-0.2-0.1-0.5-0.2-0.7-0.4c-0.2-0.2-0.3-0.4-0.5-0.6c-0.1-0.3-0.2-0.6-0.2-1c0-0.3,0.1-0.6,0.2-0.9c0.1-0.3,0.3-0.5,0.5-0.8
				c0.2-0.2,0.5-0.4,0.8-0.5c0.3-0.1,0.7-0.2,1.1-0.2c0.5,0,0.9,0.1,1.3,0.2c0.4,0.2,0.7,0.4,1,0.7L121.1,12.4z"/>
			<path d="M127.5,19.6V11h2.7c0.5,0,1,0.1,1.4,0.2c0.4,0.1,0.7,0.3,0.9,0.4s0.4,0.4,0.5,0.7s0.2,0.6,0.2,0.9c0,0.2,0,0.4-0.1,0.6
				c-0.1,0.2-0.2,0.4-0.3,0.5s-0.3,0.3-0.5,0.4c-0.2,0.1-0.4,0.2-0.7,0.3c0.6,0.1,1.1,0.4,1.4,0.7c0.3,0.3,0.5,0.8,0.5,1.3
				c0,0.4-0.1,0.7-0.2,1c-0.1,0.3-0.3,0.6-0.6,0.8c-0.3,0.2-0.6,0.4-0.9,0.5c-0.4,0.1-0.8,0.2-1.3,0.2H127.5z M128.6,14.9h1.5
				c0.3,0,0.6,0,0.9-0.1c0.2-0.1,0.4-0.2,0.6-0.3c0.2-0.1,0.3-0.3,0.4-0.5c0.1-0.2,0.1-0.4,0.1-0.6c0-0.5-0.2-0.9-0.5-1.1
				c-0.3-0.2-0.8-0.4-1.4-0.4h-1.6V14.9z M128.6,15.7v3h1.9c0.3,0,0.6,0,0.9-0.1c0.2-0.1,0.4-0.2,0.6-0.3c0.2-0.1,0.3-0.3,0.3-0.5
				c0.1-0.2,0.1-0.4,0.1-0.6c0-0.4-0.2-0.8-0.5-1.1c-0.3-0.3-0.8-0.4-1.4-0.4H128.6z"/>
			<path d="M137.6,16v3.6h-1.2V11h2.4c0.5,0,1,0.1,1.4,0.2c0.4,0.1,0.7,0.3,1,0.5c0.3,0.2,0.4,0.5,0.6,0.8s0.2,0.6,0.2,1
				c0,0.3,0,0.6-0.1,0.9c-0.1,0.3-0.2,0.5-0.4,0.7c-0.2,0.2-0.4,0.4-0.7,0.5c-0.3,0.1-0.6,0.3-0.9,0.3c0.1,0.1,0.3,0.2,0.4,0.4
				l2.5,3.4h-1c-0.2,0-0.4-0.1-0.5-0.2l-2.2-3.1c-0.1-0.1-0.1-0.2-0.2-0.2c-0.1,0-0.2-0.1-0.4-0.1H137.6z M137.6,15.2h1.2
				c0.3,0,0.6,0,0.9-0.1c0.3-0.1,0.5-0.2,0.6-0.3c0.2-0.2,0.3-0.3,0.4-0.5c0.1-0.2,0.1-0.4,0.1-0.7c0-0.5-0.2-0.9-0.5-1.2
				c-0.3-0.3-0.8-0.4-1.5-0.4h-1.3V15.2z"/>
			<path d="M150.4,11V12h-4.1v2.9h3.3v0.9h-3.3v2.9h4.1v0.9h-5.3V11H150.4z"/>
			<path d="M152.1,11h1c0.1,0,0.2,0,0.3,0.1c0.1,0.1,0.1,0.1,0.1,0.2l1.8,6c0,0.1,0.1,0.2,0.1,0.3c0,0.1,0.1,0.3,0.1,0.4
				c0-0.1,0.1-0.3,0.1-0.4c0-0.1,0.1-0.2,0.1-0.3l2-6c0-0.1,0.1-0.1,0.1-0.2c0.1-0.1,0.2-0.1,0.3-0.1h0.3c0.1,0,0.2,0,0.3,0.1
				c0.1,0.1,0.1,0.1,0.1,0.2l2,6c0.1,0.2,0.1,0.4,0.2,0.7c0-0.1,0-0.3,0.1-0.4c0-0.1,0-0.2,0.1-0.3l1.8-6c0-0.1,0.1-0.1,0.1-0.2
				c0.1-0.1,0.2-0.1,0.3-0.1h0.9l-2.7,8.6h-1l-2.2-6.6c0-0.1-0.1-0.3-0.1-0.4c0,0.1,0,0.2-0.1,0.2c0,0.1,0,0.1-0.1,0.2l-2.2,6.6h-1
				L152.1,11z"/>
			<path d="M171.7,11V12h-4.1v2.9h3.3v0.9h-3.3v2.9h4.1v0.9h-5.3V11H171.7z"/>
			<path d="M175.7,16v3.6h-1.2V11h2.4c0.5,0,1,0.1,1.4,0.2c0.4,0.1,0.7,0.3,1,0.5c0.3,0.2,0.4,0.5,0.6,0.8s0.2,0.6,0.2,1
				c0,0.3,0,0.6-0.1,0.9c-0.1,0.3-0.2,0.5-0.4,0.7c-0.2,0.2-0.4,0.4-0.7,0.5c-0.3,0.1-0.6,0.3-0.9,0.3c0.1,0.1,0.3,0.2,0.4,0.4
				l2.5,3.4h-1c-0.2,0-0.4-0.1-0.5-0.2l-2.2-3.1c-0.1-0.1-0.1-0.2-0.2-0.2c-0.1,0-0.2-0.1-0.4-0.1H175.7z M175.7,15.2h1.2
				c0.3,0,0.6,0,0.9-0.1c0.3-0.1,0.5-0.2,0.6-0.3c0.2-0.2,0.3-0.3,0.4-0.5c0.1-0.2,0.1-0.4,0.1-0.7c0-0.5-0.2-0.9-0.5-1.2
				c-0.3-0.3-0.8-0.4-1.5-0.4h-1.3V15.2z"/>
			<path d="M186.5,16.2v3.4h-1.2v-3.4l-3.2-5.2h1c0.1,0,0.2,0,0.2,0.1c0.1,0.1,0.1,0.1,0.2,0.2l2,3.3c0.1,0.1,0.1,0.3,0.2,0.4
				c0.1,0.1,0.1,0.2,0.1,0.4c0-0.1,0.1-0.2,0.1-0.4c0.1-0.1,0.1-0.3,0.2-0.4l2-3.3c0-0.1,0.1-0.1,0.1-0.2c0.1-0.1,0.1-0.1,0.2-0.1h1
				L186.5,16.2z"/>
		</g>
	</g>
</g>
</svg>
