<?xml version="1.0" encoding="utf-8"?>
<!-- Generator: Adobe Illustrator 21.1.0, SVG Export Plug-In . SVG Version: 6.00 Build 0)  -->
<svg version="1.1" xmlns="http://www.w3.org/2000/svg" xmlns:xlink="http://www.w3.org/1999/xlink" x="0px" y="0px"
	 viewBox="0 0 238 200" style="enable-background:new 0 0 238 200;" xml:space="preserve">
<style type="text/css">
	.st0{fill:#FFFFFF;}
</style>
<g id="Layer_2">
	<g>
		<g>
			<g id="XMLID_1_">
				<g>
					<polygon class="st0" points="104.4,41.6 104.7,40.7 105,40.7 105,41.7 104.8,41.7 104.8,40.8 104.4,41.7 104.3,41.7 
						103.9,40.8 103.9,40.8 103.9,41.7 103.8,41.7 103.8,40.7 104,40.7 					"/>
					<path class="st0" d="M134.8,52.4v0.9h-0.1c0-0.6-0.3-0.8-0.8-0.8h-1.4v2.7h1.1c0.1,0,0.8,0,0.8-0.6h0.1V56h-0.1
						c0-0.4-0.3-0.6-0.8-0.6h-1.2v2c0,0.3,0,0.7,0.6,0.7h0.8c0.6,0,0.8-0.2,1-0.7h0.1l-0.1,0.7l0,0.3h-3.9v-0.1c0.3,0,0.7,0,0.7-0.7
						v-4.5c0-0.1,0-0.7-0.6-0.7h-0.1v-0.1L134.8,52.4L134.8,52.4z"/>
					<path class="st0" d="M135,45.3c0,1.7-1.3,3.1-3.1,3.2l0-0.2c1.3,0,2-1.2,2-2.8c0-1.9-1-3.1-2.3-3.1c0,0-0.1,0-0.1,0l0-0.2
						c0.1,0,0.2,0,0.3,0C133.4,42.2,135,43.4,135,45.3z"/>
					<path class="st0" d="M110.3,44.9l-1.1-3.3h0l-1.1,3.3H110.3z M105.9,48.2c0.6,0,0.9-0.6,1.1-1l1.9-5.8c0.1-0.5-0.4-0.6-0.7-0.7
						v-0.1h1.9l2.2,6.5c0.3,1,0.7,1.1,1.2,1.2v0.1h-3v-0.1c0.2,0,0.8,0,0.8-0.6c0-0.1,0-0.2-0.1-0.6l-0.6-1.9h-2.5l-0.6,1.8
						c-0.1,0.3-0.1,0.5-0.1,0.6c0,0.6,0.5,0.6,0.6,0.6v0.1h-2V48.2z"/>
					<path class="st0" d="M148.5,57.6c0,0.7,0.4,0.7,0.7,0.7v0.1h-2.3v-0.1c0.3,0,0.7,0,0.7-0.7V53c0-0.6-0.4-0.7-0.7-0.7v-0.1h2.3
						v0.1c-0.3,0-0.7,0.1-0.7,0.7V57.6z"/>
					<path class="st0" d="M151.9,48.2c0.8,0,1.4-0.6,1.4-1.3c0-0.8-0.6-1.3-1.6-1.9c-0.9-0.6-1.8-1.1-1.8-2.4c0-0.9,0.6-2,2.2-2
						c0.4,0,0.7,0.1,1,0.1c0.1,0,0.3,0.1,0.4,0.1c0.1,0,0.3-0.1,0.3-0.3h0.1l-0.1,1.8h-0.1c-0.2-0.9-0.7-1.5-1.7-1.5
						c-0.9,0-1.3,0.6-1.3,1.3c0,0.8,0.8,1.4,1.6,1.8c1.1,0.7,2,1.2,2,2.4c0,0.5-0.1,1.1-0.7,1.6c-0.5,0.5-1,0.6-1.7,0.6
						c-0.4,0-0.8-0.1-1.2-0.2c-0.4-0.2-0.5-0.2-0.6-0.2s-0.3,0-0.3,0.3h-0.1l0.1-2h0.1c0,0.3,0.1,0.9,0.7,1.3
						C151,48.1,151.5,48.2,151.9,48.2z"/>
					<path class="st0" d="M115.8,42.3C115.9,42.3,115.9,42.3,115.8,42.3l0,0.2c-0.1,0-0.4,0-0.5,0.1v2.7v0.2v2.1
						c0,0.5,0.3,0.7,0.7,0.7v0.1h-2.3v-0.1c0.5,0,0.7-0.2,0.7-0.7v-4.5c0-0.7-0.4-0.7-0.7-0.7v-0.1H115.8z"/>
					<path class="st0" d="M113.8,58.3h-2V57h0h0c0,0,0,0.1,0,0.1l-0.2-0.1c0.3-0.4,0.3-1.1,0.3-1.3v-4c0-0.8-0.5-0.9-0.9-0.9v-0.1
						h2.9v0.1c-0.4,0-0.9,0.1-0.9,0.9v0.7v5c0,0.8,0.5,0.9,0.9,0.9V58.3z"/>
					<path class="st0" d="M137.5,55.4v2.1c0,0.5,0.3,0.7,0.7,0.7v0.1h-2.3v-0.1c0.5,0,0.7-0.2,0.7-0.7v-4.5c0-0.7-0.4-0.7-0.7-0.7
						v-0.1h2.1c0,0,0,0,0,0l0,0.2c-0.1,0-0.4,0-0.5,0.1v2.7V55.4z"/>
					<path class="st0" d="M118.5,47.3c0.5,0.7,0.8,0.9,1.1,0.9v0.1h-1.4c-0.1-0.1-0.2-0.2-0.3-0.3c0,0-0.2-0.2-0.2-0.2c0,0,0,0,0,0
						l-0.8-1.2c0,0,0,0,0-0.1c0,0-0.4-0.6-0.8-0.8c-0.2-0.1-0.3-0.1-0.7-0.1v-0.2c0.7,0,1.8-0.1,1.8-1.3c0-0.4-0.2-1.4-1.3-1.4
						l0-0.2c0.8,0,1.1,0.1,1.3,0.2c0.6,0.2,1,0.8,1,1.4c0,0.7-0.5,1.3-1.4,1.4v0c0.5,0.1,0.8,0.6,1.2,1.1l0,0.1L118.5,47.3
						C118.5,47.3,118.5,47.3,118.5,47.3z"/>
					<path class="st0" d="M131.8,48.3l0,0.2c0,0,0,0-0.1,0c-1.2,0-2.3-0.6-2.8-1.6c-0.3-0.4-0.4-1-0.4-1.5c0-0.7,0.2-1.3,0.6-1.8
						c0.5-0.8,1.4-1.3,2.3-1.4l0,0.2c-0.8,0.1-1.9,0.7-1.9,2.8C129.6,46.9,130.4,48.3,131.8,48.3z"/>
					<path class="st0" d="M141,43.1v5.4h-0.1l-4.5-5v4.1c0,0.7,0.4,0.7,0.7,0.7v0.1h-1.7v-0.1c0.3,0,0.7,0,0.7-0.7v-4.4l-0.2-0.3
						c0,0,0,0,0,0c-0.4-0.4-0.6-0.4-0.8-0.4v-0.1h1.5l4.2,4.6v-3.9c0-0.6-0.4-0.7-0.7-0.7v-0.1h1.7v0.1
						C141.4,42.4,141,42.4,141,43.1z"/>
					<path class="st0" d="M142.9,57.9c0.3,0.2,0.7,0.4,1,0.4c0.6,0,1.1-0.5,1.1-1.1c0-0.6-0.5-1-1.3-1.5c-0.7-0.4-1.4-0.9-1.4-1.9
						c0-0.7,0.5-1.6,1.8-1.6c0.3,0,0.6,0,0.8,0.1c0.1,0,0.3,0.1,0.3,0.1c0.1,0,0.2-0.1,0.2-0.2h0.1l0,0.2l-0.1,1.2h-0.1
						c-0.1-0.7-0.6-1.2-1.3-1.2c-0.7,0-1.1,0.5-1.1,1c0,0.7,0.6,1.1,1.2,1.5c0.9,0.5,1.6,1,1.6,1.9c0,0.3-0.1,0.7-0.4,1.1
						c0,0.1-0.1,0.1-0.2,0.2c-0.4,0.4-0.8,0.5-1.3,0.5c-0.3,0-0.6-0.1-0.9-0.2c-0.3-0.1-0.4-0.2-0.5-0.2c-0.1,0-0.2,0-0.2,0.3h-0.1
						l0.1-1.5h0.1C142.4,57.1,142.5,57.5,142.9,57.9z"/>
					<path class="st0" d="M120.3,53v5.3v0.2h-0.1l-4.5-5v4.1c0,0.7,0.4,0.7,0.7,0.7v0.1h-1.7v-0.1c0.3,0,0.7,0,0.7-0.7v-4.4
						l-0.2-0.3c0,0,0,0,0,0c-0.4-0.4-0.6-0.4-0.8-0.4v-0.1h1.5l4.2,4.6V53c0-0.6-0.4-0.7-0.7-0.7v-0.1h1.7v0.1
						C120.7,52.4,120.3,52.4,120.3,53z"/>
					<polygon class="st0" points="102.8,40.7 103.6,40.7 103.6,40.8 103.3,40.8 103.3,41.7 103.1,41.7 103.1,40.8 102.8,40.8 					
						"/>
					<path class="st0" d="M155.9,42.3h3.3c0.6,0,0.7,0,0.8-0.1c0.1,0,0.2-0.1,0.2-0.2h0.1v1.5h-0.1c-0.1-0.8-0.7-0.8-1.2-0.8h-1v4.9
						c0,0.7,0.4,0.7,0.7,0.7v0.1h-2.3v-0.1c0.3,0,0.7,0,0.7-0.7v-4.9h-1c-0.5,0-1.1,0.1-1.2,0.8h-0.1V42h0.1c0,0.1,0.1,0.1,0.2,0.2
						C155.3,42.3,155.8,42.3,155.9,42.3z"/>
					<path class="st0" d="M122.2,42.4c-0.3,0-0.7,0-0.7,0.7v4.5c0,0.7,0.4,0.7,0.7,0.7v0.1h-2.3v-0.1c0.3,0,0.7,0,0.7-0.7v-4.5
						c0-0.6-0.4-0.7-0.7-0.7v-0.1L122.2,42.4L122.2,42.4z"/>
					<path class="st0" d="M89,50l3.7-0.3c0,0,0.1,0,0.1,0c0,0,0,0,0-0.1h0.5V53c0,0.9,0.5,1.4,1.4,1.4c0.6,0,1.8-0.3,1.8-1.4V40.7
						h5.8V56c0,0,0,0.7,0.6,1.3c0.5,0.5,0.8,0.8,0.8,0.8c0.1,0.1,0,0.1-0.1,0.1h-5.5c-0.6,0-1-0.3-1.2-0.7l-0.2-0.7
						c-0.5,0.9-1.6,1.4-2.8,1.5c-3.3,0.3-5.2-0.5-6.1-2.2l0.4-0.5l0.8,0.7c0,0,0.1,0,0.1,0c0,0,0,0,0-0.1s0-0.1,0-0.1l-0.8-1.1
						l0.4-0.7l1.4,0.9c0,0,0.1,0,0.1,0c0,0,0,0,0-0.1c0,0,0-0.1,0-0.1l-1.7-1.6l0.2-0.4l2.4,1c0.1,0,0.1,0,0.1,0c0,0,0,0,0-0.1
						c0,0,0,0,0-0.1l-2.8-1.8l0-0.2l3.3,0.8c0.1,0,0.1,0,0.1-0.1c0,0,0-0.1,0-0.1c0,0,0,0-0.1-0.1L88.8,51c0,0,0,0,0,0c0,0,0,0,0,0
						c0,0,0,0,0,0l3.7,0.2c0.1,0,0.1,0,0.1-0.1c0,0,0-0.1,0-0.1c0,0,0,0-0.1,0L89,50C89,50.1,89,50.1,89,50C89,50.1,89,50.1,89,50
						C89,50,89,50,89,50z"/>
					<path class="st0" d="M175.8,48.4h-3.9v-0.1c0.3,0,0.7,0,0.7-0.7v-4.5c0-0.1,0-0.7-0.6-0.7h-0.1v-0.1h3.9v1h-0.1
						c0-0.6-0.3-0.8-0.8-0.8h-1.4v2.7h1.1c0.2,0,0.8,0,0.8-0.6h0.1v1.5h-0.1c0-0.4-0.3-0.6-0.8-0.6h-1.2v2c0,0.3,0,0.7,0.6,0.7h0.8
						c0.6,0,0.8-0.2,1-0.7h0.1L175.8,48.4z"/>
					<path class="st0" d="M160.3,52.7c0-0.3-0.4-0.3-0.5-0.3v-0.1h1.8v0.1c-0.2,0-0.4,0-0.5,0.1c-0.3,0.2-0.7,0.8-0.7,0.8l-1.3,1.9
						v2.3c0,0.6,0.3,0.7,0.7,0.7v0.1h-2.3v-0.1c0.3,0,0.7-0.1,0.7-0.7v-2.3l-1.4-2.2c0,0,0,0,0,0c0,0,0,0-0.2-0.3
						c-0.1-0.2-0.4-0.4-0.8-0.4v-0.1h2.4v0v0.1c-0.1,0-0.5,0-0.5,0.3c0,0.2,0.1,0.4,0.2,0.5l1.1,1.7l1-1.5c0,0,0,0,0,0
						C160.2,53.1,160.3,52.8,160.3,52.7z"/>
					<path class="st0" d="M167,42.7c-0.5,0-1.1,0.1-1.2,0.8h-0.1V42h0.1c0,0.1,0.1,0.1,0.2,0.2c0.1,0.1,0.6,0.1,0.8,0.1h3.3
						c0.6,0,0.7,0,0.8-0.1c0.1,0,0.2-0.1,0.2-0.2h0.1v1.5h-0.1c-0.1-0.8-0.7-0.8-1.2-0.8h-1v4.9c0,0.7,0.4,0.7,0.7,0.7v0.1h-2.3
						v-0.1c0.3,0,0.7,0,0.7-0.7v-4.9H167z"/>
					<path class="st0" d="M92.7,48c0,0-0.1-0.1-0.1-0.1l-3.7,0.2c0,0,0,0,0,0c0,0,0,0,0,0c0,0,0,0,0,0l3.3-1.5c0,0,0,0,0.1-0.1
						c0,0,0,0,0-0.1c0,0-0.1-0.1-0.1-0.1l-3.6,0.8c0,0,0,0,0,0c0,0,0,0,0,0c0,0,0,0,0,0l3-2c0,0,0,0,0-0.1s0-0.1,0-0.1
						c0,0-0.1-0.1-0.1,0l-3.4,1.4c0,0,0,0,0,0c0,0,0,0,0,0c0,0,0,0,0,0l2.6-2.4c0,0,0,0,0-0.1c0,0,0-0.1,0-0.1c0,0-0.1-0.1-0.1,0
						l-3.1,1.9c0,0,0,0,0,0c0,0,0,0,0,0c0,0,0,0,0,0l2.1-2.8c0,0,0,0,0-0.1s0,0,0-0.1c0,0-0.1,0-0.2,0l-2.7,2.3c0,0,0,0,0,0
						c0,0,0,0,0,0c0,0,0,0,0,0l1.5-3.1c0,0,0,0,0-0.1c0,0,0,0,0-0.1c-0.1,0-0.1,0-0.1,0l-2.2,2.8c-0.6-0.3-1.7-0.5-2.1-0.5h0
						c-1,0-1.7,0.2-2.1,0.6c-0.2,0.2-0.3,0.5-0.3,0.9c0,0.5,0.3,0.9,0.8,1.2c0.5,0.3,1.2,0.6,2,0.9c1,0.4,2.1,0.8,3.1,1.4
						c1.1,0.7,1.7,1.6,1.9,2.7l0,0l0.1,0l0,0.2l0,0c0,0.2,0.1,0.5,0.1,0.7V53l0.2,0.1l-0.2,0.4v0c0,0.2,0,0.5-0.1,0.7l0,0l0.2,0.1
						l-0.4,0.7l0,0c0,0.2-0.1,0.3-0.2,0.4l0,0l0.1,0.1l-0.4,0.5c-1.2,1.8-3.6,2.1-6.5,2.1H78v-1.1c0,0,0.1,0,0.1,0
						c0,0,2.2-2.7,2.2-2.7c0.4,0.2,0.9,0.3,1.2,0.4c1,0.1,2-0.1,2.5-0.6c0.3-0.3,0.4-0.5,0.4-0.9c0-1.3-1.4-1.8-3.1-2.3
						c-1.7-0.6-3.6-1.2-4.5-2.9l0,0l-0.1,0l0-0.1l0,0c-0.1-0.3-0.2-0.6-0.3-0.9v0l-0.2,0l0.1-0.5l0,0c0-0.2,0-0.4,0-0.6v-0.1
						l0.1-0.9l0,0c0-0.2,0-0.3,0.1-0.5l0,0l-1-0.6c0,0,0,0-0.1,0l1.2-0.1c1-2.6,3.9-3.1,7.1-3.1c0.8,0,1.5,0,2.1,0
						c0.6,0,1.2,0,1.9,0h5.7v8.9h-0.5c0,0,0-0.1,0-0.1c0,0,0,0-0.1,0L89,49.1c0,0,0,0,0,0c0,0,0,0,0,0s0,0,0,0l3.6-0.9
						C92.6,48.1,92.6,48.1,92.7,48C92.7,48.1,92.7,48.1,92.7,48z"/>
					<path class="st0" d="M106.7,55.5v-3.9c0-0.8-0.5-0.9-0.9-0.9v-0.1h2.9v0.1c-0.4,0-0.9,0.1-0.9,0.9v3.8c0,0.4,0,0.9,0.2,1.3
						c0.3,0.7,1,1.1,1.7,1.1c0.8,0,1.4-0.5,1.7-0.9l0.2,0.1c-0.3,0.5-1,1.3-2.3,1.3C108.4,58.4,106.7,57.9,106.7,55.5z"/>
					<path class="st0" d="M162.6,43l-0.8,2.6h1.8L162.6,43L162.6,43z M160,48.3c0.5,0,0.7-0.4,0.9-0.8l1.7-5.2h0.7l1.8,5.1
						c0.3,0.8,0.6,0.9,0.9,0.9v0.1h-2.3v-0.1c0.2,0,0.6,0,0.6-0.5c0-0.1,0-0.2-0.1-0.4l-0.5-1.5h-1.9l-0.4,1.4
						c-0.1,0.2-0.1,0.3-0.1,0.5c0,0.5,0.4,0.5,0.5,0.5v0.1L160,48.3L160,48.3z"/>
					<path class="st0" d="M126.4,48.1c1.5,0,1.7-0.6,1.8-1h0.1l-0.2,1.3h-5.3v-0.1l4.1-5.6h-2.7c-0.8,0-1.2,0.2-1.2,0.8h-0.1v-1.1
						v-0.1h5.3l-0.3,0.4l-3.8,5.4H126.4z"/>
					<path class="st0" d="M155.5,52v1.5h-0.1c-0.1-0.8-0.7-0.8-1.2-0.8h-1v4.9c0,0.7,0.4,0.7,0.7,0.7v0.1h-2.3v-0.1
						c0.3,0,0.7,0,0.7-0.7v-4.9h-1c-0.5,0-1.1,0.1-1.2,0.8H150V52h0.1c0,0.1,0.1,0.1,0.2,0.2c0.1,0.1,0.6,0.1,0.8,0.1h3.3
						c0.6,0,0.7,0,0.8-0.1C155.3,52.2,155.4,52.1,155.5,52L155.5,52z"/>
					<path class="st0" d="M143.2,45.6h1.7l-0.9-2.6h0L143.2,45.6z M145.1,45.9h-1.9l-0.4,1.4c-0.1,0.2-0.1,0.3-0.1,0.5
						c0,0.5,0.4,0.5,0.5,0.5v0.1h-1.6v-0.1c0.5,0,0.7-0.4,0.9-0.8l1.7-5.2h0.7l1.8,5.1c0.3,0.8,0.6,0.9,0.9,0.9v0.1h-2.4v-0.1
						c0.2,0,0.6,0,0.6-0.5c0-0.1,0-0.2-0.1-0.4L145.1,45.9z"/>
					<path class="st0" d="M123.3,57.6c0,0.7,0.4,0.7,0.7,0.7v0.1h-2.3v-0.1c0.3,0,0.7,0,0.7-0.7V53c0-0.6-0.4-0.7-0.7-0.7v-0.1h2.3
						v0.1c-0.3,0-0.7,0.1-0.7,0.7V57.6z"/>
					<path class="st0" d="M140.6,57.3c0.5,0.7,0.8,0.9,1.1,0.9v0.1h-1.4c-0.1-0.1-0.2-0.2-0.3-0.3c0,0-0.2-0.2-0.2-0.2c0,0,0,0,0,0
						l-0.8-1.2c0,0,0,0,0-0.1c0,0-0.4-0.6-0.8-0.8c-0.2-0.1-0.3-0.1-0.7-0.1v-0.2c0.7,0,1.8-0.1,1.8-1.3c0-0.4-0.2-1.4-1.3-1.4
						l0-0.2c0.8,0,1.1,0.1,1.3,0.2c0.6,0.2,1,0.8,1,1.4c0,0.7-0.5,1.3-1.4,1.4v0c0.5,0.2,0.8,0.6,1.2,1.1l0,0L140.6,57.3
						C140.6,57.3,140.6,57.3,140.6,57.3z"/>
					<path class="st0" d="M129,53.5c0.1-0.2,0.1-0.5,0.1-0.6c0-0.4-0.4-0.5-0.6-0.5v-0.1h1.7v0.1c-0.3,0-0.6,0.1-0.9,0.9
						c0,0-0.1,0.3-0.1,0.3l-1.7,5h-0.1l-2.1-5.3c0,0,0-0.1,0-0.1c0,0,0,0,0-0.1c-0.2-0.3-0.3-0.6-0.8-0.7v-0.1h2.4v0.1
						c-0.2,0-0.6,0-0.6,0.5c0,0.2,0.2,0.7,0.2,0.7l1.3,3.4L129,53.5C128.9,53.5,129,53.5,129,53.5z"/>
					<path class="st0" d="M72.7,51.9l-1.8-7.3l-1.8,7.3H72.7z M79.3,54.1C79.3,54.1,79.4,54.1,79.3,54.1
						C79.4,54.1,79.4,54.1,79.3,54.1C79.4,54.1,79.4,54.1,79.3,54.1l-1.4,3.1c0,0,0,0.1,0,0.1c0,0,0,0.1,0,0.1c0,0,0,0,0.1,0v1.1
						h-3.7l-0.8-3.3h-5.2l-0.8,3.3H62l3.7-14.9c0,0,0.3-1.1-0.4-1.9c-0.5-0.6-0.8-0.8-0.8-0.8c-0.1-0.1,0-0.1,0.1-0.1h1.8h7.6h0.8
						c0.5,0,1,0.3,1.1,0.8l0.6,2.3l-1.2,0.1c0,0-0.1,0-0.1,0c0,0,0,0,0,0.1c0,0,0,0.1,0,0.1l1,1l-0.1,0.9l-1.8-0.7c0,0-0.1,0-0.1,0
						c0,0,0,0,0,0.1c0,0,0,0.1,0,0.1l2,1.3L76.2,47l-2.5-0.6c-0.1,0-0.1,0-0.1,0.1c0,0,0,0.1,0,0.1c0,0,0,0,0.1,0.1l3.1,1.4l0,0.1
						L73.3,48c-0.1,0-0.1,0-0.1,0.1c0,0,0,0,0,0.1c0,0,0,0,0.1,0l3.6,0.9c0,0,0,0,0,0c0,0,0,0,0,0c0,0,0,0,0,0l-3.7,0.3
						c-0.1,0-0.1,0-0.1,0.1c0,0,0,0,0,0.1c0,0,0,0,0.1,0l3.7,0.3c0,0,0,0,0,0c0,0,0,0,0,0c0,0,0,0,0,0L73.2,51c0,0-0.1,0-0.1,0
						c0,0,0,0,0,0.1c0,0,0.1,0.1,0.1,0.1L77,51c0,0,0,0,0,0c0,0,0,0,0,0c0,0,0,0,0,0l-3.3,1.5c0,0,0,0-0.1,0.1c0,0,0,0.1,0,0.1
						c0,0,0.1,0.1,0.1,0.1l3.6-0.8c0,0,0,0,0,0c0,0,0,0,0,0c0,0,0,0,0,0l-3,1.9c0,0,0,0-0.1,0.1s0,0.1,0,0.1c0,0,0.1,0.1,0.1,0
						l3.4-1.4c0,0,0,0,0.1,0c0,0,0,0,0,0c0,0,0,0,0,0l-2.6,2.4c0,0,0,0,0,0.1c0,0,0,0.1,0,0.1c0,0,0.1,0,0.2,0l3.1-1.9c0,0,0,0,0,0
						c0,0,0,0,0,0c0,0,0,0,0,0l-2.1,2.8c0,0,0,0,0,0.1c0,0,0,0.1,0,0.1c0,0,0.1,0,0.2,0L79.3,54.1z"/>
				</g>
				<g>
				</g>
			</g>
		</g>
	</g>
</g>
<g id="Layer_4">
	<g>
		<path class="st0" d="M36.5,82.7c2,0,3.6,0.3,4.8,1c1.3,0.7,2.3,1.7,3,2.8c0.2,0.3,0.4,0.6,0.5,1c0.1,0.3,0.3,0.7,0.4,1.1
			c0,0.1,0.1,0.3,0.1,0.4c0,0.2,0,0.3,0,0.5c0,0.1-0.1,0.2-0.2,0.2c-0.1,0-0.2,0.1-0.4,0.1h-0.2c-0.1,0-0.2,0.1-0.4,0
			c-0.1,0-0.3,0-0.4,0c-0.2,0-0.4,0-0.6,0c-0.2,0-0.5,0-0.7,0c-0.2,0-0.4,0-0.6-0.1c-0.2,0-0.3-0.1-0.4-0.1
			c-0.1-0.1-0.3-0.3-0.3-0.5s-0.2-0.4-0.3-0.6c-0.4-0.6-0.8-1.1-1.4-1.5c-0.4-0.2-0.8-0.4-1.3-0.6c-0.3-0.1-0.7-0.2-1.2-0.2
			c-0.5,0-0.9,0-1.2,0.1c-0.1,0-0.3,0.1-0.4,0.1c-0.1,0-0.2,0.1-0.4,0.1c-1.3,0.5-2.2,1.4-2.7,2.7c-0.1,0.2-0.2,0.5-0.3,0.7
			c-0.1,0.2-0.2,0.5-0.3,0.8c0,0.1,0,0.3-0.1,0.4c0,0.1,0,0.2-0.1,0.4c0,0.1-0.1,0.2,0,0.4c0,0.1,0,0.2,0,0.4c0,0.1-0.1,0.3,0,0.5
			c0,0.2,0,0.3,0,0.5c0,0.1,0,0.1,0,0.2c0,0.1,0,0.1,0,0.2v0.3c0,0.1,0.1,0.2,0,0.3c0,0.1,0,0.2,0,0.3c0,0.1,0,0.3,0.1,0.4
			c0,0.2,0.1,0.4,0.1,0.6c0,0.2,0.1,0.4,0.1,0.5c0.3,0.8,0.6,1.5,1,2c0.4,0.6,1,1,1.6,1.4c0.2,0.1,0.4,0.2,0.6,0.2
			c0.2,0.1,0.5,0.1,0.7,0.2c0.1,0,0.2,0,0.3,0c0.1,0,0.2,0,0.3,0h0.2c0.1,0,0.2,0.1,0.4,0c0.1,0,0.3,0,0.4,0c0.1,0,0.2,0,0.3,0
			c0.2,0,0.4-0.1,0.6-0.1c0.2,0,0.4-0.1,0.6-0.2c0.4-0.2,0.8-0.4,1.1-0.7c0.3-0.3,0.6-0.7,0.8-1c0.1-0.2,0.2-0.4,0.3-0.6
			c0.1-0.2,0.2-0.4,0.3-0.7c0.1-0.2,0.1-0.4,0.2-0.6c0.1-0.2,0.2-0.3,0.4-0.4c0.1,0,0.3-0.1,0.4-0.1s0.3,0,0.5,0h1.7
			c0.2,0,0.3,0,0.5,0c0.2,0,0.3,0,0.4,0.1c0.1,0.1,0.2,0.2,0.2,0.4c0,0.2,0,0.4-0.1,0.6l-0.2,0.8c-0.1,0.3-0.2,0.6-0.3,0.8
			c-0.1,0.3-0.2,0.5-0.3,0.8c-0.1,0.1-0.2,0.3-0.2,0.4c-0.1,0.1-0.1,0.3-0.2,0.4c-1,1.6-2.5,2.7-4.5,3.4c-0.2,0.1-0.4,0.1-0.6,0.2
			c-0.2,0-0.4,0.1-0.6,0.1c-0.1,0-0.2,0.1-0.3,0s-0.2,0-0.3,0c-0.1,0-0.3,0-0.4,0c-0.1,0-0.2,0-0.4,0h-0.4c-0.2,0-0.3,0-0.5,0
			s-0.3,0-0.5-0.1c-0.1,0-0.1,0-0.3,0c-0.1,0-0.3,0-0.4-0.1c-0.1,0-0.3,0-0.4-0.1c-0.2-0.1-0.4-0.1-0.5-0.1c-0.2,0-0.4-0.1-0.5-0.1
			c-0.2-0.1-0.3-0.1-0.5-0.2s-0.3-0.1-0.5-0.2c-1.1-0.5-2.1-1.1-2.8-1.9c-0.8-0.8-1.4-1.8-1.9-2.9c-0.1-0.3-0.2-0.6-0.3-0.8
			c-0.1-0.3-0.2-0.6-0.3-0.9c0-0.1-0.1-0.2-0.1-0.2s0-0.1,0-0.2c0-0.2-0.1-0.3-0.1-0.5c0-0.2,0-0.4-0.1-0.5c0-0.1-0.1-0.2,0-0.2
			s0-0.1,0-0.2v-0.5c0-0.1-0.1-0.2-0.1-0.4c0-0.2,0-0.3,0.1-0.4c0-0.1,0-0.1,0-0.2c0-0.1,0-0.1,0-0.2v-0.3c0-0.1,0.1-0.3,0.1-0.5
			c0-0.2,0-0.3,0-0.5c0-0.1,0.1-0.3,0.1-0.4s0-0.3,0.1-0.4c0.1-0.3,0.1-0.5,0.2-0.8c0.1-0.3,0.1-0.5,0.2-0.7
			c0.1-0.2,0.2-0.5,0.3-0.7c0.1-0.2,0.2-0.5,0.4-0.7c0.3-0.5,0.6-1,0.9-1.4c0.1-0.1,0.2-0.3,0.3-0.4c0.1-0.1,0.2-0.2,0.3-0.3
			c0.5-0.5,1-0.9,1.5-1.2c0.5-0.3,1.1-0.6,1.8-0.9c0.2-0.1,0.5-0.2,0.7-0.2c0.2-0.1,0.5-0.1,0.8-0.2c0.1,0,0.2-0.1,0.3-0.1
			s0.2,0,0.3-0.1c0.1,0,0.3,0,0.4,0c0.1,0,0.3,0,0.4,0c0,0,0.1,0,0.1,0C36.4,82.7,36.4,82.7,36.5,82.7z"/>
		<path class="st0" d="M49.1,83.1h2c0.2,0,0.4,0,0.5,0c0.2,0,0.3,0.1,0.4,0.2c0.1,0.1,0.2,0.3,0.2,0.5c0,0.2,0,0.4,0,0.7V87v10.1
			v4.3c0,0.2,0,0.5,0,0.8c0,0.3,0,0.5-0.1,0.7c-0.1,0.1-0.3,0.3-0.5,0.3c-0.1,0-0.2,0-0.4,0c-0.1,0-0.3,0-0.4,0h-1.3
			c-0.2,0-0.4,0-0.6,0c-0.2,0-0.3-0.1-0.4-0.2c-0.1-0.1-0.2-0.2-0.2-0.4c0-0.2,0-0.4,0-0.6v-2.5V88.9V85c0-0.2,0-0.5,0-0.9
			c0-0.3,0-0.6,0.1-0.7c0-0.1,0.1-0.1,0.2-0.2c0.1,0,0.1-0.1,0.2-0.1c0,0,0.1,0,0.1,0C49,83.1,49.1,83.1,49.1,83.1z"/>
		<path class="st0" d="M68.5,102c0,0.2,0.1,0.4,0.1,0.6c0,0.2-0.1,0.3-0.3,0.4c-0.1,0.1-0.2,0.1-0.4,0.1s-0.3,0-0.4,0H66
			c-0.2,0-0.3,0-0.5,0c-0.2,0-0.3-0.1-0.4-0.1c-0.1-0.1-0.2-0.2-0.3-0.3s-0.2-0.3-0.3-0.4c0,0-0.1-0.1-0.1-0.1c-0.1,0-0.1,0-0.2,0
			c-0.1,0-0.2,0.1-0.3,0.1c-0.1,0.1-0.2,0.1-0.3,0.1c-0.1,0.1-0.2,0.1-0.3,0.2c-0.1,0.1-0.2,0.1-0.3,0.2c-0.2,0.1-0.5,0.2-0.8,0.3
			c-0.3,0.1-0.5,0.1-0.8,0.2c-0.1,0-0.3,0.1-0.4,0.1c-0.1,0-0.2,0-0.4,0c-0.1,0-0.1,0-0.2,0s-0.1,0-0.2,0H60c-0.2,0-0.4,0-0.6,0
			h-0.3c-0.1,0-0.3-0.1-0.4,0c-0.1,0-0.2,0-0.4,0c-0.2,0-0.4-0.1-0.5-0.1c-0.2,0-0.3-0.1-0.5-0.2c-0.5-0.2-1-0.5-1.4-0.8
			c-0.4-0.3-0.7-0.8-0.9-1.3c-0.1-0.1-0.1-0.3-0.2-0.4c0-0.1-0.1-0.3-0.1-0.5c0-0.1-0.1-0.2,0-0.3c0-0.1,0-0.2,0-0.3
			c0-0.1,0-0.2,0-0.3s0-0.3,0-0.4c0-0.2,0.1-0.3,0.1-0.5c0.1-0.2,0.1-0.4,0.2-0.6c0.1-0.2,0.1-0.4,0.2-0.6c0.3-0.5,0.7-1,1.1-1.2
			c0.4-0.3,0.9-0.5,1.6-0.7c0.2-0.1,0.5-0.2,0.8-0.2c0.3,0,0.5-0.1,0.8-0.1c0.1,0,0.3-0.1,0.5-0.1c0.2,0,0.3,0,0.5-0.1
			c0.1,0,0.3-0.1,0.4,0c0.1,0,0.3,0,0.4,0c0.1,0,0.3-0.1,0.4-0.1c0.1,0,0.3,0,0.4-0.1c0.4-0.1,0.8-0.2,1.1-0.2
			c0.3-0.1,0.6-0.2,0.9-0.5c0.2-0.2,0.3-0.4,0.3-0.6c0-0.1,0-0.1,0-0.1c0,0,0-0.1,0-0.1c0,0,0-0.1,0-0.2c0-0.1,0-0.1,0-0.2
			c0-0.1,0-0.1,0-0.2c0-0.1,0-0.1,0-0.2c-0.2-0.6-0.6-0.9-1.2-1.1C63,91,62.8,91,62.6,90.9c-0.2,0-0.5,0-0.7,0s-0.5,0-0.7,0.1
			c-0.2,0-0.4,0.1-0.6,0.1c-0.1,0-0.2,0.1-0.3,0.2c-0.1,0.1-0.2,0.1-0.3,0.2c-0.1,0.1-0.2,0.2-0.3,0.3c-0.1,0.1-0.2,0.3-0.2,0.4
			c-0.1,0.2-0.2,0.4-0.2,0.5S59,93,58.8,93c-0.1,0-0.3,0.1-0.5,0.1s-0.3,0-0.5,0h-1.1c-0.1,0-0.2,0-0.3,0s-0.2,0-0.3,0H56
			c0,0-0.1,0-0.1,0c-0.1,0-0.1,0-0.1-0.1c-0.1,0-0.3-0.2-0.3-0.4c0-0.1,0-0.2,0-0.3c0-0.1,0-0.2,0.1-0.3c0.1-0.2,0.1-0.4,0.2-0.6
			c0.1-0.2,0.1-0.3,0.2-0.5c0.1-0.1,0.1-0.2,0.2-0.3c0.1-0.1,0.1-0.2,0.2-0.3c0.1-0.2,0.3-0.4,0.6-0.6c0,0,0.1-0.1,0.2-0.1
			c0.1-0.1,0.2-0.1,0.3-0.2c0.1-0.1,0.2-0.1,0.3-0.2c0.3-0.2,0.7-0.4,1-0.5c0.4-0.1,0.7-0.2,1.1-0.4c0.2-0.1,0.5-0.1,0.7-0.1
			s0.5-0.1,0.7-0.1c0.1,0,0.2,0,0.4,0c0.2,0,0.3,0,0.3,0c0.8,0,1.5,0,2.2,0.1c0.7,0.1,1.3,0.2,1.9,0.4c0.6,0.2,1.1,0.5,1.5,0.8
			c0.4,0.3,0.7,0.8,1,1.3c0.1,0.3,0.2,0.7,0.2,1.1c0,0.4,0,0.8,0,1.3v6.2c0,0.4,0,0.7,0,1.1c0,0.4,0,0.7,0.1,1c0,0.1,0,0.1,0,0.2
			S68.5,101.9,68.5,102z M64.4,97.7c0-0.1,0-0.2,0-0.3c0-0.1,0-0.2,0-0.3c0-0.1-0.1-0.2-0.1-0.3s0-0.2-0.1-0.2
			c-0.1-0.1-0.2-0.1-0.4-0.1c-0.1,0-0.1,0-0.2,0c-0.1,0-0.1,0-0.2,0c-0.1,0-0.3,0.1-0.4,0.1c-0.1,0-0.3,0-0.4,0.1
			c-0.1,0-0.1,0-0.3,0c-0.2,0.1-0.5,0.1-0.7,0.1c-0.2,0-0.5,0.1-0.7,0.1c-0.1,0-0.3,0.1-0.4,0.1c-0.1,0-0.3,0.1-0.4,0.1
			c-0.4,0.2-0.7,0.4-1,0.8c-0.3,0.3-0.4,0.8-0.3,1.4c0,0.3,0.1,0.6,0.3,0.8c0.1,0.2,0.3,0.4,0.6,0.5c0.3,0.1,0.5,0.2,0.9,0.3
			s0.6,0.1,1,0c0.3,0,0.7-0.1,1-0.2c0.5-0.1,0.9-0.4,1.1-0.7c0.3-0.3,0.5-0.7,0.6-1.2c0-0.1,0.1-0.3,0.1-0.4c0-0.1,0-0.3,0.1-0.4
			V97.7z"/>
		<path class="st0" d="M77,88.3c1.4,0,2.6,0.1,3.7,0.5c1,0.3,1.8,0.9,2.4,1.8c0.1,0.2,0.2,0.4,0.4,0.6c0.1,0.2,0.2,0.5,0.3,0.7
			c0,0.1,0.1,0.2,0.1,0.4c0,0.1,0,0.2-0.1,0.3c-0.1,0.1-0.2,0.2-0.3,0.2c-0.1,0-0.2,0.1-0.3,0.1c-0.1,0-0.3,0-0.4,0h-1.2
			c-0.1,0-0.3,0-0.4,0c-0.1,0-0.3,0-0.4,0c-0.2,0-0.3-0.1-0.4-0.2c-0.1-0.1-0.2-0.2-0.3-0.4c-0.1-0.1-0.1-0.3-0.2-0.4
			s-0.2-0.3-0.3-0.4c-0.2-0.1-0.4-0.3-0.5-0.3c-0.2-0.1-0.4-0.1-0.7-0.2c-0.1,0-0.3-0.1-0.6-0.1c-0.3,0-0.4,0-0.6,0h-0.2
			c-0.1,0-0.2,0-0.3,0c-0.1,0-0.2,0-0.3,0c-0.3,0.1-0.6,0.2-0.8,0.4c-0.2,0.2-0.3,0.4-0.4,0.7c0,0.1,0,0.3,0,0.4
			c0,0.1,0.1,0.2,0.1,0.3c0.1,0.2,0.3,0.4,0.5,0.5c0.2,0.1,0.4,0.2,0.6,0.3c0.4,0.1,0.7,0.3,1.2,0.4c0.4,0.1,0.8,0.2,1.3,0.3
			c0.4,0.1,0.9,0.2,1.3,0.3c0.4,0.1,0.8,0.2,1.2,0.4c0.2,0.1,0.3,0.1,0.5,0.2c0.2,0,0.3,0.1,0.5,0.2c0.4,0.2,0.7,0.5,1,0.7
			c0.3,0.3,0.5,0.6,0.7,1c0.1,0.1,0.1,0.3,0.1,0.4c0,0.1,0.1,0.3,0.1,0.4c0,0.1,0,0.3,0,0.5c0,0.2,0,0.4,0,0.5V99
			c0,0.1-0.1,0.2-0.1,0.3c0,0.1,0,0.2,0,0.3c-0.1,0.6-0.3,1.1-0.6,1.5c-0.3,0.4-0.7,0.8-1.1,1.1c-0.4,0.3-0.9,0.5-1.5,0.7
			c-0.2,0.1-0.4,0.2-0.7,0.2c-0.2,0-0.5,0.1-0.7,0.1c-0.2,0-0.3,0.1-0.5,0.1c-0.2,0-0.4,0-0.5,0.1H78c-0.1,0-0.3,0.1-0.6,0.1
			s-0.5,0-0.6-0.1c-0.1,0-0.1,0-0.2,0c-0.1,0-0.1,0-0.2,0c-0.2,0-0.4-0.1-0.7-0.1c-0.2,0-0.4-0.1-0.6-0.1c-0.7-0.2-1.4-0.4-1.9-0.7
			s-1-0.7-1.4-1.2c-0.3-0.4-0.5-0.8-0.7-1.2c0-0.1-0.1-0.3-0.1-0.4c0-0.1-0.1-0.2-0.1-0.4c0-0.2,0-0.3,0-0.4
			c0.1-0.1,0.1-0.2,0.3-0.3c0.1,0,0.2-0.1,0.3-0.1c0.1,0,0.3,0,0.4,0h1.3c0.1,0,0.3,0,0.4,0s0.3,0,0.4,0.1c0.2,0.1,0.3,0.2,0.4,0.4
			c0.1,0.2,0.1,0.3,0.2,0.5c0,0.1,0.1,0.2,0.2,0.4s0.2,0.2,0.3,0.3c0.2,0.2,0.4,0.3,0.6,0.4c0.2,0.1,0.5,0.2,0.8,0.3
			c0.1,0,0.2,0.1,0.3,0c0.1,0,0.2,0,0.3,0c0.1,0,0.3,0.1,0.5,0c0.2,0,0.3,0,0.5-0.1c0.1,0,0.2,0,0.3,0s0.2,0,0.3-0.1
			c0.3-0.1,0.5-0.2,0.7-0.3c0.2-0.1,0.4-0.3,0.5-0.5c0.1-0.1,0.2-0.4,0.2-0.7c0-0.1,0-0.3,0-0.4c0-0.1-0.1-0.2-0.1-0.3
			c-0.1-0.3-0.3-0.5-0.5-0.6c-0.2-0.1-0.4-0.3-0.7-0.4c-0.4-0.1-0.7-0.3-1.1-0.4c-0.4-0.1-0.8-0.2-1.2-0.3c-0.1,0-0.3-0.1-0.5-0.1
			s-0.3,0-0.5-0.1c-0.6-0.2-1.2-0.3-1.7-0.5c-0.5-0.2-1-0.4-1.5-0.7c-0.5-0.4-0.9-0.9-1.1-1.5c0-0.1-0.1-0.3-0.1-0.5
			c0-0.1-0.1-0.3-0.1-0.5s0-0.4,0-0.5c0-0.1,0-0.2,0-0.2c0-0.1,0-0.1,0-0.2c0-0.2,0.1-0.4,0.1-0.6c0-0.2,0.1-0.4,0.2-0.5
			c0.2-0.5,0.6-1,1-1.3c0.4-0.3,0.9-0.6,1.5-0.8c0.2-0.1,0.4-0.2,0.6-0.2c0.2,0,0.5-0.1,0.7-0.2c0.1,0,0.2-0.1,0.3-0.1
			c0.1,0,0.2,0,0.3,0c0.1,0,0.3,0,0.5,0S76.9,88.3,77,88.3z"/>
		<path class="st0" d="M92,88.3c1.4,0,2.6,0.1,3.7,0.5c1,0.3,1.8,0.9,2.4,1.8c0.1,0.2,0.2,0.4,0.4,0.6c0.1,0.2,0.2,0.5,0.3,0.7
			c0,0.1,0.1,0.2,0.1,0.4c0,0.1,0,0.2-0.1,0.3c-0.1,0.1-0.2,0.2-0.3,0.2c-0.1,0-0.2,0.1-0.3,0.1c-0.1,0-0.3,0-0.4,0h-1.2
			c-0.1,0-0.3,0-0.4,0c-0.1,0-0.3,0-0.4,0c-0.2,0-0.3-0.1-0.4-0.2c-0.1-0.1-0.2-0.2-0.3-0.4c-0.1-0.1-0.1-0.3-0.2-0.4
			s-0.2-0.3-0.3-0.4c-0.2-0.1-0.4-0.3-0.5-0.3c-0.2-0.1-0.4-0.1-0.7-0.2c-0.1,0-0.3-0.1-0.6-0.1c-0.3,0-0.4,0-0.6,0h-0.2
			c-0.1,0-0.2,0-0.3,0c-0.1,0-0.2,0-0.3,0c-0.3,0.1-0.6,0.2-0.8,0.4c-0.2,0.2-0.3,0.4-0.4,0.7c0,0.1,0,0.3,0,0.4
			c0,0.1,0.1,0.2,0.1,0.3c0.1,0.2,0.3,0.4,0.5,0.5c0.2,0.1,0.4,0.2,0.6,0.3c0.4,0.1,0.7,0.3,1.2,0.4c0.4,0.1,0.8,0.2,1.3,0.3
			c0.4,0.1,0.9,0.2,1.3,0.3c0.4,0.1,0.8,0.2,1.2,0.4c0.2,0.1,0.3,0.1,0.5,0.2c0.2,0,0.3,0.1,0.5,0.2c0.4,0.2,0.7,0.5,1,0.7
			c0.3,0.3,0.5,0.6,0.7,1c0.1,0.1,0.1,0.3,0.1,0.4c0,0.1,0.1,0.3,0.1,0.4c0,0.1,0,0.3,0,0.5c0,0.2,0,0.4,0,0.5V99
			c0,0.1-0.1,0.2-0.1,0.3c0,0.1,0,0.2,0,0.3c-0.1,0.6-0.3,1.1-0.6,1.5c-0.3,0.4-0.7,0.8-1.1,1.1c-0.4,0.3-0.9,0.5-1.5,0.7
			c-0.2,0.1-0.4,0.2-0.7,0.2c-0.2,0-0.5,0.1-0.7,0.1c-0.2,0-0.3,0.1-0.5,0.1c-0.2,0-0.4,0-0.5,0.1h-0.5c-0.1,0-0.3,0.1-0.6,0.1
			s-0.5,0-0.6-0.1c-0.1,0-0.1,0-0.2,0c-0.1,0-0.1,0-0.2,0c-0.2,0-0.4-0.1-0.7-0.1c-0.2,0-0.4-0.1-0.6-0.1c-0.7-0.2-1.4-0.4-1.9-0.7
			s-1-0.7-1.4-1.2c-0.3-0.4-0.5-0.8-0.7-1.2c0-0.1-0.1-0.3-0.1-0.4c0-0.1-0.1-0.2-0.1-0.4c0-0.2,0-0.3,0-0.4
			c0.1-0.1,0.1-0.2,0.3-0.3c0.1,0,0.2-0.1,0.3-0.1c0.1,0,0.3,0,0.4,0h1.3c0.1,0,0.3,0,0.4,0s0.3,0,0.4,0.1c0.2,0.1,0.3,0.2,0.4,0.4
			c0.1,0.2,0.1,0.3,0.2,0.5c0,0.1,0.1,0.2,0.2,0.4s0.2,0.2,0.3,0.3c0.2,0.2,0.4,0.3,0.6,0.4c0.2,0.1,0.5,0.2,0.8,0.3
			c0.1,0,0.2,0.1,0.3,0c0.1,0,0.2,0,0.3,0c0.1,0,0.3,0.1,0.5,0c0.2,0,0.3,0,0.5-0.1c0.1,0,0.2,0,0.3,0s0.2,0,0.3-0.1
			c0.3-0.1,0.5-0.2,0.7-0.3c0.2-0.1,0.4-0.3,0.5-0.5c0.1-0.1,0.2-0.4,0.2-0.7c0-0.1,0-0.3,0-0.4c0-0.1-0.1-0.2-0.1-0.3
			c-0.1-0.3-0.3-0.5-0.5-0.6c-0.2-0.1-0.4-0.3-0.7-0.4c-0.4-0.1-0.7-0.3-1.1-0.4c-0.4-0.1-0.8-0.2-1.2-0.3c-0.1,0-0.3-0.1-0.5-0.1
			s-0.3,0-0.5-0.1c-0.6-0.2-1.2-0.3-1.7-0.5c-0.5-0.2-1-0.4-1.5-0.7c-0.5-0.4-0.9-0.9-1.1-1.5c0-0.1-0.1-0.3-0.1-0.5
			c0-0.1-0.1-0.3-0.1-0.5s0-0.4,0-0.5c0-0.1,0-0.2,0-0.2c0-0.1,0-0.1,0-0.2c0-0.2,0.1-0.4,0.1-0.6c0-0.2,0.1-0.4,0.2-0.5
			c0.2-0.5,0.6-1,1-1.3c0.4-0.3,0.9-0.6,1.5-0.8c0.2-0.1,0.4-0.2,0.6-0.2c0.2,0,0.5-0.1,0.7-0.2c0.1,0,0.2-0.1,0.3-0.1
			c0.1,0,0.2,0,0.3,0c0.1,0,0.3,0,0.5,0S91.9,88.3,92,88.3z"/>
		<path class="st0" d="M118.4,82.7c2,0,3.6,0.3,4.8,1c1.3,0.7,2.3,1.7,3,2.8c0.2,0.3,0.4,0.6,0.5,1c0.1,0.3,0.3,0.7,0.4,1.1
			c0,0.1,0.1,0.3,0.1,0.4s0,0.3,0,0.5c0,0.1-0.1,0.2-0.2,0.2c-0.1,0-0.2,0.1-0.4,0.1h-0.2c-0.1,0-0.2,0.1-0.4,0c-0.1,0-0.3,0-0.4,0
			c-0.2,0-0.4,0-0.6,0c-0.2,0-0.5,0-0.7,0c-0.2,0-0.4,0-0.6-0.1c-0.2,0-0.3-0.1-0.4-0.1c-0.1-0.1-0.3-0.3-0.3-0.5s-0.2-0.4-0.3-0.6
			c-0.4-0.6-0.8-1.1-1.4-1.5c-0.4-0.2-0.8-0.4-1.3-0.6c-0.3-0.1-0.7-0.2-1.2-0.2c-0.5,0-0.9,0-1.2,0.1c-0.1,0-0.3,0.1-0.4,0.1
			s-0.2,0.1-0.4,0.1c-1.3,0.5-2.2,1.4-2.7,2.7c-0.1,0.2-0.2,0.5-0.3,0.7c-0.1,0.2-0.2,0.5-0.3,0.8c0,0.1,0,0.3-0.1,0.4
			c0,0.1,0,0.2-0.1,0.4c0,0.1-0.1,0.2,0,0.4c0,0.1,0,0.2,0,0.4c0,0.1-0.1,0.3,0,0.5c0,0.2,0,0.3,0,0.5c0,0.1,0,0.1,0,0.2
			c0,0.1,0,0.1,0,0.2v0.3c0,0.1,0.1,0.2,0,0.3c0,0.1,0,0.2,0,0.3c0,0.1,0,0.3,0.1,0.4c0,0.2,0.1,0.4,0.1,0.6c0,0.2,0.1,0.4,0.1,0.5
			c0.3,0.8,0.6,1.5,1,2c0.4,0.6,1,1,1.6,1.4c0.2,0.1,0.4,0.2,0.6,0.2c0.2,0.1,0.5,0.1,0.7,0.2c0.1,0,0.2,0,0.3,0c0.1,0,0.2,0,0.3,0
			h0.2c0.1,0,0.2,0.1,0.4,0c0.1,0,0.3,0,0.4,0c0.1,0,0.2,0,0.3,0c0.2,0,0.4-0.1,0.6-0.1c0.2,0,0.4-0.1,0.6-0.2
			c0.4-0.2,0.8-0.4,1.1-0.7c0.3-0.3,0.6-0.7,0.8-1c0.1-0.2,0.2-0.4,0.3-0.6c0.1-0.2,0.2-0.4,0.3-0.7c0.1-0.2,0.1-0.4,0.2-0.6
			c0.1-0.2,0.2-0.3,0.4-0.4c0.1,0,0.3-0.1,0.4-0.1s0.3,0,0.5,0h1.7c0.2,0,0.3,0,0.5,0c0.2,0,0.3,0,0.4,0.1c0.1,0.1,0.2,0.2,0.2,0.4
			c0,0.2,0,0.4-0.1,0.6l-0.2,0.8c-0.1,0.3-0.2,0.6-0.3,0.8c-0.1,0.3-0.2,0.5-0.3,0.8c-0.1,0.1-0.2,0.3-0.2,0.4
			c-0.1,0.1-0.1,0.3-0.2,0.4c-1,1.6-2.5,2.7-4.5,3.4c-0.2,0.1-0.4,0.1-0.6,0.2c-0.2,0-0.4,0.1-0.6,0.1c-0.1,0-0.2,0.1-0.3,0
			s-0.2,0-0.3,0c-0.1,0-0.3,0-0.4,0c-0.1,0-0.2,0-0.4,0h-0.4c-0.2,0-0.3,0-0.5,0s-0.3,0-0.5-0.1c-0.1,0-0.2,0-0.3,0
			c-0.1,0-0.3,0-0.4-0.1s-0.3,0-0.4-0.1c-0.2-0.1-0.4-0.1-0.5-0.1c-0.2,0-0.4-0.1-0.5-0.1c-0.2-0.1-0.3-0.1-0.5-0.2
			s-0.3-0.1-0.5-0.2c-1.1-0.5-2.1-1.1-2.8-1.9s-1.4-1.8-1.9-2.9c-0.1-0.3-0.2-0.6-0.3-0.8c-0.1-0.3-0.2-0.6-0.3-0.9
			c0-0.1-0.1-0.2-0.1-0.2s0-0.1,0-0.2c0-0.2-0.1-0.3-0.1-0.5c0-0.2,0-0.4-0.1-0.5c0-0.1-0.1-0.2,0-0.2s0-0.1,0-0.2v-0.5
			c0-0.1-0.1-0.2-0.1-0.4c0-0.2,0-0.3,0.1-0.4c0-0.1,0-0.1,0-0.2c0-0.1,0-0.1,0-0.2v-0.3c0-0.1,0.1-0.3,0.1-0.5c0-0.2,0-0.3,0-0.5
			c0-0.1,0.1-0.3,0.1-0.4c0-0.1,0-0.3,0.1-0.4c0.1-0.3,0.1-0.5,0.2-0.8c0.1-0.3,0.1-0.5,0.2-0.7c0.1-0.2,0.2-0.5,0.3-0.7
			c0.1-0.2,0.2-0.5,0.3-0.7c0.3-0.5,0.6-1,0.9-1.4c0.1-0.1,0.2-0.3,0.3-0.4c0.1-0.1,0.2-0.2,0.3-0.3c0.5-0.5,1-0.9,1.5-1.2
			s1.1-0.6,1.8-0.9c0.2-0.1,0.5-0.2,0.7-0.2c0.2-0.1,0.5-0.1,0.8-0.2c0.1,0,0.2-0.1,0.3-0.1s0.2,0,0.3-0.1c0.1,0,0.3,0,0.4,0
			c0.1,0,0.3,0,0.4,0c0,0,0.1,0,0.1,0C118.3,82.7,118.3,82.7,118.4,82.7z"/>
		<path class="st0" d="M143.2,102c0,0.2,0.1,0.4,0.1,0.6c0,0.2-0.1,0.3-0.3,0.4c-0.1,0.1-0.2,0.1-0.4,0.1s-0.3,0-0.4,0h-1.5
			c-0.2,0-0.3,0-0.5,0c-0.2,0-0.3-0.1-0.4-0.1c-0.1-0.1-0.2-0.2-0.3-0.3s-0.2-0.3-0.3-0.4c0,0-0.1-0.1-0.1-0.1c-0.1,0-0.1,0-0.2,0
			c-0.1,0-0.2,0.1-0.3,0.1c-0.1,0.1-0.2,0.1-0.3,0.1c-0.1,0.1-0.2,0.1-0.3,0.2c-0.1,0.1-0.2,0.1-0.3,0.2c-0.2,0.1-0.5,0.2-0.8,0.3
			c-0.3,0.1-0.5,0.1-0.8,0.2c-0.1,0-0.3,0.1-0.4,0.1c-0.1,0-0.2,0-0.4,0c-0.1,0-0.1,0-0.2,0s-0.1,0-0.2,0h-0.3c-0.2,0-0.4,0-0.6,0
			h-0.3c-0.1,0-0.3-0.1-0.4,0c-0.1,0-0.2,0-0.3,0c-0.2,0-0.4-0.1-0.5-0.1c-0.2,0-0.3-0.1-0.5-0.2c-0.5-0.2-1-0.5-1.4-0.8
			s-0.7-0.8-0.9-1.3c-0.1-0.1-0.1-0.3-0.2-0.4c0-0.1-0.1-0.3-0.1-0.5c0-0.1-0.1-0.2,0-0.3c0-0.1,0-0.2,0-0.3c0-0.1,0-0.2,0-0.3
			s0-0.3,0-0.4c0-0.2,0.1-0.3,0.1-0.5c0.1-0.2,0.1-0.4,0.2-0.6c0.1-0.2,0.1-0.4,0.2-0.6c0.3-0.5,0.7-1,1.1-1.2
			c0.4-0.3,0.9-0.5,1.6-0.7c0.2-0.1,0.5-0.2,0.8-0.2c0.3,0,0.5-0.1,0.8-0.1c0.1,0,0.3-0.1,0.5-0.1c0.2,0,0.3,0,0.5-0.1
			c0.1,0,0.3-0.1,0.4,0c0.1,0,0.3,0,0.4,0c0.1,0,0.3-0.1,0.4-0.1c0.1,0,0.3,0,0.4-0.1c0.4-0.1,0.8-0.2,1.1-0.2
			c0.3-0.1,0.6-0.2,0.9-0.5c0.2-0.2,0.3-0.4,0.3-0.6c0-0.1,0-0.1,0-0.1c0,0,0-0.1,0-0.1c0,0,0-0.1,0-0.2c0-0.1,0-0.1,0-0.2
			c0-0.1,0-0.1,0-0.2c0-0.1,0-0.1,0-0.2c-0.2-0.6-0.6-0.9-1.2-1.1c-0.2-0.1-0.4-0.1-0.6-0.1s-0.5,0-0.7,0s-0.5,0-0.7,0.1
			c-0.2,0-0.4,0.1-0.6,0.1c-0.1,0-0.2,0.1-0.3,0.2c-0.1,0.1-0.2,0.1-0.3,0.2c-0.1,0.1-0.2,0.2-0.3,0.3c-0.1,0.1-0.2,0.3-0.2,0.4
			c-0.1,0.2-0.2,0.4-0.2,0.5c-0.1,0.2-0.2,0.3-0.4,0.3c-0.1,0-0.3,0.1-0.5,0.1c-0.2,0-0.3,0-0.5,0h-1.1c-0.1,0-0.2,0-0.3,0
			s-0.2,0-0.3,0h-0.3c0,0-0.1,0-0.1,0c-0.1,0-0.1,0-0.1-0.1c-0.1,0-0.3-0.2-0.3-0.4c0-0.1,0-0.2,0-0.3c0-0.1,0-0.2,0.1-0.3
			c0.1-0.2,0.1-0.4,0.2-0.6c0.1-0.2,0.1-0.3,0.2-0.5c0.1-0.1,0.1-0.2,0.2-0.3c0.1-0.1,0.1-0.2,0.2-0.3c0.1-0.2,0.3-0.4,0.6-0.6
			c0,0,0.1-0.1,0.2-0.1c0.1-0.1,0.2-0.1,0.3-0.2c0.1-0.1,0.2-0.1,0.3-0.2c0.3-0.2,0.7-0.4,1-0.5c0.4-0.1,0.7-0.2,1.1-0.4
			c0.2-0.1,0.5-0.1,0.7-0.1s0.5-0.1,0.7-0.1c0.1,0,0.2,0,0.3,0c0.2,0,0.3,0,0.3,0c0.8,0,1.5,0,2.2,0.1c0.7,0.1,1.3,0.2,1.9,0.4
			c0.6,0.2,1.1,0.5,1.5,0.8c0.4,0.3,0.7,0.8,1,1.3c0.1,0.3,0.2,0.7,0.2,1.1c0,0.4,0,0.8,0,1.3v6.2c0,0.4,0,0.7,0,1.1
			c0,0.4,0,0.7,0.1,1c0,0.1,0,0.1,0,0.2S143.2,101.9,143.2,102z M139.1,97.7c0-0.1,0-0.2,0-0.3c0-0.1,0-0.2,0-0.3
			c0-0.1-0.1-0.2-0.1-0.3s0-0.2-0.1-0.2c-0.1-0.1-0.2-0.1-0.4-0.1c-0.1,0-0.1,0-0.2,0c-0.1,0-0.1,0-0.2,0c-0.1,0-0.3,0.1-0.4,0.1
			s-0.3,0-0.4,0.1c-0.1,0-0.1,0-0.3,0c-0.2,0.1-0.5,0.1-0.7,0.1c-0.2,0-0.5,0.1-0.7,0.1c-0.1,0-0.3,0.1-0.4,0.1
			c-0.1,0-0.3,0.1-0.4,0.1c-0.4,0.2-0.7,0.4-1,0.8s-0.4,0.8-0.3,1.4c0,0.3,0.1,0.6,0.3,0.8c0.1,0.2,0.3,0.4,0.6,0.5
			c0.3,0.1,0.5,0.2,0.9,0.3s0.6,0.1,1,0c0.3,0,0.7-0.1,1-0.2c0.5-0.1,0.9-0.4,1.1-0.7c0.3-0.3,0.5-0.7,0.6-1.2
			c0-0.1,0.1-0.3,0.1-0.4s0-0.3,0.1-0.4V97.7z"/>
		<path class="st0" d="M148.1,84.3h1.9c0.3,0,0.5,0,0.7,0c0.2,0,0.4,0.1,0.5,0.3c0,0.1,0.1,0.2,0.1,0.3c0,0.1,0,0.3,0,0.4v1.3
			c0,0.1,0,0.2,0,0.3c0,0.1,0,0.2,0,0.3v0.3c0,0.1,0,0.3,0,0.4c0,0.1,0.1,0.2,0.1,0.3c0.1,0.2,0.4,0.3,0.7,0.3c0.3,0,0.7,0,1,0
			c0.1,0,0.2,0,0.3,0c0.1,0,0.2,0,0.3,0.1c0.2,0.1,0.3,0.3,0.3,0.5s0,0.5,0,0.8c0,0.1,0,0.3,0,0.4c0,0.1,0,0.2,0,0.3
			c-0.1,0.3-0.3,0.5-0.6,0.5c-0.3,0-0.6,0-1,0c-0.1,0-0.2,0-0.2,0c-0.1,0-0.2,0-0.2,0c-0.1,0-0.1,0-0.2,0c-0.1,0-0.1,0-0.2,0
			c-0.2,0-0.3,0.1-0.3,0.2c-0.1,0.1-0.1,0.3-0.2,0.4c0,0.1,0,0.2,0,0.3c0,0.1,0,0.2,0,0.3v1.7v3.3c0,0.5,0,0.9,0,1.2
			c0,0.3,0.1,0.6,0.4,0.9c0.1,0.1,0.2,0.2,0.4,0.2c0.2,0,0.3,0.1,0.5,0.1c0.1,0,0.1,0,0.2,0c0.1,0,0.1,0,0.2,0h0.3
			c0.2,0,0.4,0,0.5,0c0.1,0,0.3,0.1,0.4,0.2c0.1,0.1,0.1,0.3,0.1,0.4c0,0.2,0,0.4,0,0.5c0,0.4,0,0.8,0,1.1c0,0.3-0.2,0.5-0.5,0.7
			c-0.1,0-0.2,0.1-0.3,0c-0.1,0-0.2,0-0.3,0h-0.3c0,0-0.1,0-0.2,0c-0.1,0-0.1,0-0.2,0c-0.1,0-0.2,0-0.3,0c-0.1,0-0.2,0-0.3,0
			c-0.1,0-0.2,0-0.3,0c-0.1,0-0.2,0-0.3,0h-0.3c-0.1,0-0.2,0-0.3,0c-0.1,0-0.2,0-0.3,0c-0.1,0-0.3,0-0.4-0.1c-0.1,0-0.2,0-0.3-0.1
			c-0.2-0.1-0.4-0.1-0.6-0.2c-0.2-0.1-0.4-0.2-0.5-0.3c-0.1,0-0.1-0.1-0.2-0.1c-0.1,0-0.1-0.1-0.2-0.2c0,0-0.1-0.1-0.1-0.1
			c-0.1,0-0.1-0.1-0.1-0.1c-0.3-0.4-0.5-0.7-0.6-1.2c0-0.1-0.1-0.1,0-0.2c0-0.1,0-0.1,0-0.2c0,0,0-0.1,0-0.1c0-0.1,0-0.1,0-0.1v-0.3
			c0-0.1,0-0.2,0-0.3c0-0.1,0-0.2,0-0.3v-1.1v-4.2v-1.5c0-0.1,0-0.3,0-0.4c0-0.1,0-0.3,0-0.4c-0.1-0.3-0.2-0.4-0.4-0.5
			c-0.2-0.1-0.5-0.1-0.8-0.1c-0.3,0-0.6,0-0.8-0.1c-0.1-0.1-0.2-0.1-0.3-0.3c0-0.1-0.1-0.3-0.1-0.4v-0.6c0-0.3,0-0.6,0.1-0.8
			c0-0.2,0.2-0.3,0.5-0.4c0.1,0,0.1-0.1,0.2,0c0.1,0,0.2,0,0.3,0c0.3,0,0.5,0,0.8,0c0.2,0,0.4-0.1,0.5-0.3c0.1-0.1,0.1-0.3,0.1-0.4
			c0-0.2,0-0.3,0-0.5v-1.7c0-0.1,0-0.3,0-0.5c0-0.2,0-0.3,0.1-0.4c0.1-0.2,0.2-0.3,0.4-0.4c0,0,0.1,0,0.2,0
			C148,84.4,148.1,84.4,148.1,84.3z"/>
		<path class="st0" d="M169.1,102c0,0.2,0.1,0.4,0.1,0.6c0,0.2-0.1,0.3-0.3,0.4c-0.1,0.1-0.2,0.1-0.4,0.1s-0.3,0-0.4,0h-1.5
			c-0.2,0-0.3,0-0.5,0c-0.2,0-0.3-0.1-0.4-0.1c-0.1-0.1-0.2-0.2-0.3-0.3s-0.2-0.3-0.3-0.4c0,0-0.1-0.1-0.1-0.1c-0.1,0-0.1,0-0.2,0
			c-0.1,0-0.2,0.1-0.3,0.1c-0.1,0.1-0.2,0.1-0.3,0.1c-0.1,0.1-0.2,0.1-0.3,0.2c-0.1,0.1-0.2,0.1-0.3,0.2c-0.2,0.1-0.5,0.2-0.8,0.3
			c-0.3,0.1-0.5,0.1-0.8,0.2c-0.1,0-0.3,0.1-0.4,0.1c-0.1,0-0.2,0-0.4,0c-0.1,0-0.1,0-0.2,0s-0.1,0-0.2,0h-0.3c-0.2,0-0.4,0-0.6,0
			h-0.3c-0.1,0-0.3-0.1-0.4,0c-0.1,0-0.2,0-0.3,0c-0.2,0-0.4-0.1-0.5-0.1c-0.2,0-0.3-0.1-0.5-0.2c-0.5-0.2-1-0.5-1.4-0.8
			s-0.7-0.8-0.9-1.3c-0.1-0.1-0.1-0.3-0.2-0.4c0-0.1-0.1-0.3-0.1-0.5c0-0.1-0.1-0.2,0-0.3c0-0.1,0-0.2,0-0.3c0-0.1,0-0.2,0-0.3
			s0-0.3,0-0.4c0-0.2,0.1-0.3,0.1-0.5c0.1-0.2,0.1-0.4,0.2-0.6c0.1-0.2,0.1-0.4,0.2-0.6c0.3-0.5,0.7-1,1.1-1.2
			c0.4-0.3,0.9-0.5,1.6-0.7c0.2-0.1,0.5-0.2,0.8-0.2c0.3,0,0.5-0.1,0.8-0.1c0.1,0,0.3-0.1,0.5-0.1c0.2,0,0.3,0,0.5-0.1
			c0.1,0,0.3-0.1,0.4,0c0.1,0,0.3,0,0.4,0c0.1,0,0.3-0.1,0.4-0.1c0.1,0,0.3,0,0.4-0.1c0.4-0.1,0.8-0.2,1.1-0.2
			c0.3-0.1,0.6-0.2,0.9-0.5c0.2-0.2,0.3-0.4,0.3-0.6c0-0.1,0-0.1,0-0.1c0,0,0-0.1,0-0.1c0,0,0-0.1,0-0.2c0-0.1,0-0.1,0-0.2
			c0-0.1,0-0.1,0-0.2c0-0.1,0-0.1,0-0.2c-0.2-0.6-0.6-0.9-1.2-1.1c-0.2-0.1-0.4-0.1-0.6-0.1s-0.5,0-0.7,0s-0.5,0-0.7,0.1
			c-0.2,0-0.4,0.1-0.6,0.1c-0.1,0-0.2,0.1-0.3,0.2c-0.1,0.1-0.2,0.1-0.3,0.2c-0.1,0.1-0.2,0.2-0.3,0.3c-0.1,0.1-0.2,0.3-0.2,0.4
			c-0.1,0.2-0.2,0.4-0.2,0.5c-0.1,0.2-0.2,0.3-0.4,0.3c-0.1,0-0.3,0.1-0.5,0.1c-0.2,0-0.3,0-0.5,0h-1.1c-0.1,0-0.2,0-0.3,0
			s-0.2,0-0.3,0h-0.3c0,0-0.1,0-0.1,0c-0.1,0-0.1,0-0.1-0.1c-0.1,0-0.3-0.2-0.3-0.4c0-0.1,0-0.2,0-0.3c0-0.1,0-0.2,0.1-0.3
			c0.1-0.2,0.1-0.4,0.2-0.6c0.1-0.2,0.1-0.3,0.2-0.5c0.1-0.1,0.1-0.2,0.2-0.3c0.1-0.1,0.1-0.2,0.2-0.3c0.1-0.2,0.3-0.4,0.6-0.6
			c0,0,0.1-0.1,0.2-0.1c0.1-0.1,0.2-0.1,0.3-0.2c0.1-0.1,0.2-0.1,0.3-0.2c0.3-0.2,0.7-0.4,1-0.5c0.4-0.1,0.7-0.2,1.1-0.4
			c0.2-0.1,0.5-0.1,0.7-0.1s0.5-0.1,0.7-0.1c0.1,0,0.2,0,0.3,0c0.2,0,0.3,0,0.3,0c0.8,0,1.5,0,2.2,0.1c0.7,0.1,1.3,0.2,1.9,0.4
			c0.6,0.2,1.1,0.5,1.5,0.8c0.4,0.3,0.7,0.8,1,1.3c0.1,0.3,0.2,0.7,0.2,1.1c0,0.4,0,0.8,0,1.3v6.2c0,0.4,0,0.7,0,1.1
			c0,0.4,0,0.7,0.1,1c0,0.1,0,0.1,0,0.2S169.1,101.9,169.1,102z M165,97.7c0-0.1,0-0.2,0-0.3c0-0.1,0-0.2,0-0.3
			c0-0.1-0.1-0.2-0.1-0.3s0-0.2-0.1-0.2c-0.1-0.1-0.2-0.1-0.4-0.1c-0.1,0-0.1,0-0.2,0c-0.1,0-0.1,0-0.2,0c-0.1,0-0.3,0.1-0.4,0.1
			s-0.3,0-0.4,0.1c-0.1,0-0.1,0-0.3,0c-0.2,0.1-0.5,0.1-0.7,0.1c-0.2,0-0.5,0.1-0.7,0.1c-0.1,0-0.3,0.1-0.4,0.1
			c-0.1,0-0.3,0.1-0.4,0.1c-0.4,0.2-0.7,0.4-1,0.8s-0.4,0.8-0.3,1.4c0,0.3,0.1,0.6,0.3,0.8c0.1,0.2,0.3,0.4,0.6,0.5
			c0.3,0.1,0.5,0.2,0.9,0.3s0.6,0.1,1,0c0.3,0,0.7-0.1,1-0.2c0.5-0.1,0.9-0.4,1.1-0.7c0.3-0.3,0.5-0.7,0.6-1.2
			c0-0.1,0.1-0.3,0.1-0.4s0-0.3,0.1-0.4V97.7z"/>
		<path class="st0" d="M173,83.1h2c0.2,0,0.4,0,0.5,0c0.2,0,0.3,0.1,0.4,0.2c0.1,0.1,0.2,0.3,0.2,0.5c0,0.2,0,0.4,0,0.7V87v10.1v4.3
			c0,0.2,0,0.5,0,0.8c0,0.3,0,0.5-0.1,0.7c-0.1,0.1-0.3,0.3-0.5,0.3c-0.1,0-0.2,0-0.4,0s-0.3,0-0.4,0h-1.3c-0.2,0-0.4,0-0.6,0
			c-0.2,0-0.3-0.1-0.4-0.2c-0.1-0.1-0.2-0.2-0.2-0.4c0-0.2,0-0.4,0-0.6v-2.5V88.9V85c0-0.2,0-0.5,0-0.9c0-0.3,0-0.6,0.1-0.7
			c0-0.1,0.1-0.1,0.2-0.2c0.1,0,0.1-0.1,0.2-0.1c0,0,0.1,0,0.1,0C172.9,83.1,173,83.1,173,83.1z"/>
		<path class="st0" d="M193.8,95.3c0,0.1,0.1,0.3,0.1,0.5c0,0.2,0,0.4-0.1,0.5v0.3c0,0.1-0.1,0.3,0,0.4c0,0.1,0,0.3,0,0.4
			c0,0.1-0.1,0.3-0.1,0.4c0,0.1,0,0.2-0.1,0.4c-0.1,0.2-0.1,0.4-0.2,0.6c-0.1,0.2-0.1,0.4-0.2,0.6c-0.4,0.9-0.9,1.6-1.5,2.2
			c-0.6,0.6-1.4,1-2.3,1.4c-0.2,0.1-0.5,0.2-0.7,0.2c-0.2,0-0.5,0.1-0.7,0.2c-0.1,0-0.2,0.1-0.3,0.1c-0.1,0-0.2,0-0.3,0
			c-0.1,0-0.1,0-0.2,0s-0.1,0-0.2,0c-0.1,0-0.2,0-0.4,0c-0.2,0-0.4,0-0.5,0h-0.3c-0.1,0-0.2,0-0.3,0s-0.2,0-0.3,0
			c-0.1,0-0.1,0-0.2,0s-0.1,0-0.2,0c-0.2-0.1-0.4-0.1-0.6-0.1c-0.2,0-0.4-0.1-0.5-0.2c-0.2-0.1-0.4-0.1-0.6-0.2
			c-0.2-0.1-0.4-0.2-0.6-0.3c-0.7-0.4-1.2-0.8-1.7-1.4c-0.5-0.5-0.9-1.1-1.2-1.9c-0.1-0.2-0.2-0.3-0.2-0.5c0-0.2-0.1-0.4-0.2-0.6
			c0-0.1-0.1-0.2-0.1-0.3c0-0.1,0-0.2-0.1-0.3c0-0.1-0.1-0.3-0.1-0.5s0-0.3-0.1-0.5c0-0.1,0-0.2,0-0.3c0-0.1,0-0.2,0-0.3
			c0-0.1-0.1-0.3,0-0.5c0-0.2,0-0.4,0.1-0.5v-0.2c0-0.1,0-0.2,0-0.3c0-0.1,0-0.2,0-0.3c0-0.1,0-0.2,0-0.3s0-0.2,0.1-0.3
			c0.1-0.2,0.1-0.5,0.2-0.7c0.1-0.2,0.1-0.5,0.2-0.7c0.3-0.8,0.7-1.4,1.2-1.9c0.5-0.5,1-1,1.7-1.4c0.2-0.1,0.4-0.2,0.6-0.3
			c0.2-0.1,0.4-0.2,0.6-0.3c0.2-0.1,0.5-0.2,0.8-0.2c0.3,0,0.5-0.1,0.8-0.2c0.1,0,0.3,0,0.4,0s0.3,0,0.4,0c1.1,0,2,0.1,2.8,0.3
			c0.8,0.2,1.5,0.6,2.1,1c0.2,0.1,0.4,0.3,0.6,0.5c0.2,0.2,0.4,0.4,0.5,0.6c0.1,0.2,0.3,0.4,0.4,0.6c0.1,0.2,0.2,0.4,0.4,0.6
			c0.1,0.2,0.2,0.4,0.3,0.7c0.1,0.2,0.2,0.5,0.3,0.7c0.1,0.1,0.1,0.3,0.1,0.5c0,0.2,0.1,0.3,0.1,0.5c0,0.1,0,0.1,0,0.2s0,0.1,0,0.2
			c0,0.1,0,0.2,0,0.3C193.7,95.1,193.7,95.2,193.8,95.3z M189.9,96.3c0-0.1,0-0.2,0-0.4c0-0.2,0-0.3,0-0.4v-0.2
			c0-0.1-0.1-0.2-0.1-0.3s0-0.2,0-0.3c0-0.1,0-0.1,0-0.2c0-0.1-0.1-0.3-0.1-0.5c0-0.2-0.1-0.3-0.1-0.5c-0.2-0.5-0.4-0.9-0.7-1.2
			c-0.3-0.3-0.7-0.6-1.1-0.8c-0.1,0-0.2-0.1-0.3-0.1c-0.1,0-0.2-0.1-0.4-0.1c-0.1,0-0.3-0.1-0.5,0c-0.2,0-0.3,0-0.5,0
			c-0.1,0-0.1,0.1-0.2,0c-0.1,0-0.1,0-0.2,0c-0.1,0-0.3,0.1-0.4,0.1c-0.1,0-0.2,0.1-0.3,0.1c-0.5,0.2-0.8,0.5-1.1,0.9
			c-0.3,0.4-0.5,0.8-0.7,1.3c-0.1,0.2-0.1,0.4-0.1,0.6c0,0.2-0.1,0.4-0.1,0.6c0,0.1,0,0.2,0,0.3c0,0.1,0,0.2,0,0.3
			c0,0.1-0.1,0.3,0,0.6c0,0.3,0,0.5,0.1,0.6v0.3c0,0.1,0.1,0.3,0.1,0.4s0,0.3,0.1,0.4c0.2,0.6,0.4,1,0.6,1.4c0.2,0.3,0.6,0.7,1,0.9
			c0.1,0.1,0.3,0.2,0.4,0.2c0.2,0.1,0.3,0.1,0.5,0.1c0.1,0,0.1,0,0.2,0c0.1,0,0.1,0,0.2,0c0.1,0,0.2,0,0.2,0c0.1,0,0.2,0,0.2,0h0.2
			c0.1,0,0.3-0.1,0.4-0.1c0.1,0,0.3-0.1,0.4-0.1c0.5-0.2,0.9-0.4,1.2-0.8s0.6-0.7,0.8-1.2c0.1-0.2,0.1-0.4,0.2-0.6
			c0-0.2,0.1-0.4,0.1-0.6c0-0.1,0-0.1,0-0.2c0-0.1,0-0.1,0-0.2c0-0.1,0-0.2,0-0.3S189.8,96.4,189.9,96.3z"/>
		<path class="st0" d="M210.1,88.8c0.1,0.1,0.2,0.2,0.2,0.5c0,0.2,0,0.4,0,0.7v12c0,0.1,0,0.3,0,0.4s0,0.3,0,0.4c0,0.1,0,0.3,0,0.4
			c0,0.1,0,0.3,0,0.4c-0.1,0.3-0.1,0.5-0.2,0.7c0,0.2-0.1,0.5-0.2,0.7c-0.3,0.7-0.7,1.3-1.2,1.8c-0.5,0.5-1.1,0.8-1.8,1.1
			c-0.2,0.1-0.4,0.2-0.6,0.2c-0.2,0.1-0.4,0.1-0.6,0.2c-0.2,0.1-0.4,0.1-0.6,0.1c-0.2,0-0.4,0-0.6,0.1c-0.1,0-0.1,0-0.2,0
			c-0.1,0-0.2,0-0.3,0c-0.1,0-0.2,0-0.3,0c-0.1,0-0.2,0-0.3,0c-0.1,0-0.2,0-0.4,0s-0.3,0-0.4,0c-0.1,0-0.2,0-0.3,0
			c-0.1,0-0.1,0-0.2,0c-0.1,0-0.3-0.1-0.5-0.1c-0.2,0-0.3,0-0.4-0.1c0,0-0.1,0-0.1,0c-0.1,0-0.1,0-0.1,0c-0.2,0-0.4-0.1-0.5-0.1
			c-0.2,0-0.4-0.1-0.5-0.2c-0.7-0.3-1.3-0.7-1.9-1.1c-0.6-0.5-1-1.1-1.2-1.8c0-0.1-0.1-0.1-0.1-0.2s0-0.1,0-0.1
			c-0.1-0.2,0-0.4,0.1-0.5c0.1-0.1,0.2-0.2,0.4-0.2c0.2,0,0.4-0.1,0.6,0c0.2,0,0.5,0,0.7,0h1c0.1,0,0.2,0,0.2,0c0.1,0,0.1,0,0.2,0
			c0.3,0.1,0.5,0.2,0.6,0.3c0.1,0.1,0.2,0.3,0.3,0.5c0.1,0.1,0.1,0.2,0.3,0.3c0,0,0,0.1,0.1,0.1c0,0,0,0,0.1,0.1
			c0.1,0.1,0.3,0.2,0.5,0.3c0.2,0.1,0.4,0.2,0.6,0.3c0.1,0,0.3,0.1,0.4,0.1c0.1,0,0.3,0,0.4,0.1h0.3c0.1,0,0.3,0,0.5,0
			s0.4-0.1,0.5-0.1c0.1,0,0.2-0.1,0.2-0.1s0.1,0,0.2-0.1c0.4-0.2,0.7-0.4,1-0.7c0.3-0.3,0.5-0.6,0.6-1c0-0.1,0.1-0.2,0.1-0.3
			c0-0.1,0-0.2,0.1-0.4c0-0.2,0.1-0.4,0.1-0.5c0-0.2,0-0.4,0-0.6c0-0.1,0-0.1,0-0.2c0-0.1,0-0.1,0-0.2c0-0.1-0.1-0.2,0-0.3
			c0-0.1,0-0.1,0-0.2c0,0,0-0.1-0.1-0.1s-0.1,0-0.1-0.1c-0.2,0-0.3,0-0.4,0.1c-0.1,0.1-0.2,0.2-0.3,0.3c-0.2,0.1-0.3,0.3-0.5,0.4
			c-0.2,0.1-0.4,0.2-0.6,0.3s-0.4,0.2-0.6,0.2c-0.2,0.1-0.4,0.1-0.6,0.2c-0.1,0-0.2,0-0.3,0c-0.1,0-0.2,0-0.3,0c-0.1,0-0.2,0-0.4,0
			c-0.2,0-0.4,0-0.4,0h-0.2c-0.1,0-0.1,0-0.2,0s-0.1,0-0.2,0c-0.3-0.1-0.5-0.1-0.8-0.2c-0.2,0-0.5-0.1-0.7-0.2
			c-0.8-0.3-1.5-0.8-1.9-1.3c-0.5-0.6-0.9-1.3-1.2-2.1c-0.1-0.2-0.2-0.4-0.2-0.6s-0.1-0.4-0.2-0.7c0-0.1,0-0.2,0-0.2
			c0-0.1-0.1-0.3-0.1-0.5c0-0.2,0-0.3-0.1-0.5c0-0.1,0-0.2,0-0.3s0-0.2,0-0.3c0-0.1,0-0.2,0-0.4c0-0.1,0-0.3,0-0.3v-0.3
			c0-0.1,0-0.1,0-0.2c0-0.1,0-0.1,0-0.2c0-0.2,0.1-0.4,0.1-0.5c0-0.2,0-0.4,0.1-0.5c0.1-0.4,0.2-0.7,0.3-1.1c0.1-0.3,0.3-0.7,0.5-1
			c0.1-0.2,0.2-0.4,0.3-0.5c0.1-0.2,0.2-0.3,0.4-0.5c0.1-0.1,0.1-0.2,0.2-0.3c0.1-0.1,0.2-0.2,0.3-0.3l0.2-0.2
			c0.1-0.1,0.2-0.1,0.3-0.2c0.1-0.1,0.2-0.1,0.3-0.2c0.2-0.1,0.5-0.3,0.8-0.4c0.3-0.1,0.6-0.2,0.9-0.3c0.1-0.1,0.3-0.1,0.5-0.1
			c0.2,0,0.3,0,0.5-0.1c0.1,0,0.2,0,0.3,0c0.1,0,0.2,0,0.3,0c0.6,0,1.1,0,1.6,0.2c0.5,0.1,0.9,0.3,1.3,0.6c0.1,0,0.1,0.1,0.2,0.1
			c0.1,0,0.1,0.1,0.2,0.2c0.1,0.1,0.2,0.2,0.3,0.3c0.1,0.1,0.2,0.2,0.3,0.3c0,0,0.1,0,0.2,0.1c0.1,0,0.1,0,0.2,0
			c0.1,0,0.1-0.1,0.2-0.2c0-0.1,0-0.2,0.1-0.3c0-0.1,0.1-0.2,0.1-0.3c0-0.1,0.1-0.2,0.2-0.3c0.1-0.1,0.2-0.1,0.4-0.1
			c0.2,0,0.3,0,0.5,0h1.4c0.2,0,0.4,0,0.5,0C209.9,88.7,210,88.7,210.1,88.8z M206.3,97.5c0.1-0.2,0.1-0.4,0.2-0.6
			c0.1-0.3,0.1-0.5,0.1-0.8c0-0.3,0-0.6,0-0.9c0-0.3,0-0.5-0.1-0.8c0-0.1-0.1-0.1,0-0.2c0,0,0-0.1,0-0.2c0-0.1-0.1-0.3-0.1-0.4
			c0-0.1-0.1-0.3-0.1-0.4c-0.3-0.7-0.6-1.2-1.1-1.5s-1.2-0.5-2.1-0.5c0,0-0.1,0.1-0.2,0c-0.1,0-0.1,0-0.2,0c-0.1,0-0.3,0.1-0.4,0.1
			c-0.1,0-0.2,0.1-0.3,0.1c-0.5,0.2-0.9,0.5-1.1,0.9c-0.3,0.4-0.5,0.9-0.6,1.4c0,0.1-0.1,0.2-0.1,0.2c0,0.1,0,0.1,0,0.2
			c-0.1,0.2-0.1,0.5-0.1,0.9s0,0.7,0.1,1v0.3c0,0.1,0.1,0.3,0.1,0.4c0,0.1,0,0.3,0.1,0.4c0.2,0.5,0.4,0.9,0.6,1.3
			c0.2,0.4,0.6,0.7,1,0.9c0.2,0.1,0.4,0.2,0.8,0.3c0.1,0,0.2,0,0.3,0c0,0,0.1,0,0.2,0c0.1,0,0.1,0,0.2,0h0.3c0.2,0,0.3-0.1,0.5-0.1
			c0.1,0,0.3-0.1,0.4-0.1c0.5-0.2,0.8-0.4,1.1-0.8C205.8,98.3,206.1,97.9,206.3,97.5z"/>
		<path class="st0" d="M72.7,116.3c2,0,3.6,0.3,4.8,1c1.3,0.7,2.3,1.7,3,2.8c0.2,0.3,0.4,0.6,0.5,1c0.1,0.3,0.3,0.7,0.4,1.1
			c0,0.1,0.1,0.3,0.1,0.4c0,0.2,0,0.3,0,0.5c0,0.1-0.1,0.2-0.2,0.2c-0.1,0-0.2,0.1-0.4,0.1h-0.2c-0.1,0-0.2,0.1-0.4,0
			c-0.1,0-0.3,0-0.4,0c-0.2,0-0.4,0-0.6,0c-0.2,0-0.5,0-0.7,0c-0.2,0-0.4,0-0.6-0.1c-0.2,0-0.3-0.1-0.4-0.1
			c-0.1-0.1-0.3-0.3-0.3-0.5s-0.2-0.4-0.3-0.6c-0.4-0.6-0.8-1.1-1.4-1.5c-0.4-0.2-0.8-0.4-1.3-0.6c-0.3-0.1-0.7-0.2-1.2-0.2
			c-0.5,0-0.9,0-1.2,0.1c-0.1,0-0.3,0.1-0.4,0.1c-0.1,0-0.2,0.1-0.4,0.1c-1.3,0.5-2.2,1.4-2.7,2.7c-0.1,0.2-0.2,0.5-0.3,0.7
			c-0.1,0.2-0.2,0.5-0.3,0.8c0,0.1,0,0.3-0.1,0.4c0,0.1,0,0.2-0.1,0.4c0,0.1-0.1,0.2,0,0.4c0,0.1,0,0.2,0,0.4c0,0.1-0.1,0.3,0,0.5
			c0,0.2,0,0.3,0,0.5c0,0.1,0,0.1,0,0.2c0,0.1,0,0.1,0,0.2v0.3c0,0.1,0.1,0.2,0,0.3c0,0.1,0,0.2,0,0.3c0,0.1,0,0.3,0.1,0.4
			c0,0.2,0.1,0.4,0.1,0.6c0,0.2,0.1,0.4,0.1,0.5c0.3,0.8,0.6,1.5,1,2c0.4,0.6,1,1,1.6,1.4c0.2,0.1,0.4,0.2,0.6,0.2
			c0.2,0.1,0.5,0.1,0.7,0.2c0.1,0,0.2,0,0.3,0c0.1,0,0.2,0,0.3,0h0.2c0.1,0,0.2,0.1,0.4,0c0.1,0,0.3,0,0.4,0c0.1,0,0.2,0,0.3,0
			c0.2,0,0.4-0.1,0.6-0.1c0.2,0,0.4-0.1,0.6-0.2c0.4-0.2,0.8-0.4,1.1-0.7c0.3-0.3,0.6-0.7,0.8-1c0.1-0.2,0.2-0.4,0.3-0.6
			c0.1-0.2,0.2-0.4,0.3-0.7c0.1-0.2,0.1-0.4,0.2-0.6c0.1-0.2,0.2-0.3,0.4-0.4c0.1,0,0.3-0.1,0.4-0.1s0.3,0,0.5,0h1.7
			c0.2,0,0.3,0,0.5,0c0.2,0,0.3,0,0.4,0.1c0.1,0.1,0.2,0.2,0.2,0.4c0,0.2,0,0.4-0.1,0.6l-0.2,0.8c-0.1,0.3-0.2,0.6-0.3,0.8
			c-0.1,0.3-0.2,0.5-0.3,0.8c-0.1,0.1-0.2,0.3-0.2,0.4c-0.1,0.1-0.1,0.3-0.2,0.4c-1,1.6-2.5,2.7-4.5,3.4c-0.2,0.1-0.4,0.1-0.6,0.2
			c-0.2,0-0.4,0.1-0.6,0.1c-0.1,0-0.2,0.1-0.3,0s-0.2,0-0.3,0c-0.1,0-0.3,0-0.4,0c-0.1,0-0.2,0-0.4,0h-0.4c-0.2,0-0.3,0-0.5,0
			s-0.3,0-0.5-0.1c-0.1,0-0.1,0-0.3,0c-0.1,0-0.3,0-0.4-0.1c-0.1,0-0.3,0-0.4-0.1c-0.2-0.1-0.4-0.1-0.5-0.1c-0.2,0-0.4-0.1-0.5-0.1
			c-0.2-0.1-0.3-0.1-0.5-0.2s-0.3-0.1-0.5-0.2c-1.1-0.5-2.1-1.1-2.8-1.9c-0.8-0.8-1.4-1.8-1.9-2.9c-0.1-0.3-0.2-0.6-0.3-0.8
			c-0.1-0.3-0.2-0.6-0.3-0.9c0-0.1-0.1-0.2-0.1-0.2s0-0.1,0-0.2c0-0.2-0.1-0.3-0.1-0.5c0-0.2,0-0.4-0.1-0.5c0-0.1-0.1-0.2,0-0.2
			s0-0.1,0-0.2v-0.5c0-0.1-0.1-0.2-0.1-0.4c0-0.2,0-0.3,0.1-0.4c0-0.1,0-0.1,0-0.2c0-0.1,0-0.1,0-0.2v-0.3c0-0.1,0.1-0.3,0.1-0.5
			c0-0.2,0-0.3,0-0.5c0-0.1,0.1-0.3,0.1-0.4s0-0.3,0.1-0.4c0.1-0.3,0.1-0.5,0.2-0.8c0.1-0.3,0.1-0.5,0.2-0.7
			c0.1-0.2,0.2-0.5,0.3-0.7c0.1-0.2,0.2-0.5,0.4-0.7c0.3-0.5,0.6-1,0.9-1.4c0.1-0.1,0.2-0.3,0.3-0.4c0.1-0.1,0.2-0.2,0.3-0.3
			c0.5-0.5,1-0.9,1.5-1.2c0.5-0.3,1.1-0.6,1.8-0.9c0.2-0.1,0.5-0.2,0.7-0.2c0.2-0.1,0.5-0.1,0.8-0.2c0.1,0,0.2-0.1,0.3-0.1
			s0.2,0,0.3-0.1c0.1,0,0.3,0,0.4,0c0.1,0,0.3,0,0.4,0c0,0,0.1,0,0.1,0C72.6,116.3,72.7,116.3,72.7,116.3z"/>
		<path class="st0" d="M98.9,128.9c0,0.1,0.1,0.3,0.1,0.5c0,0.2,0,0.4-0.1,0.5v0.3c0,0.1-0.1,0.3,0,0.4c0,0.1,0,0.3,0,0.4
			c0,0.1-0.1,0.3-0.1,0.4c0,0.1,0,0.2-0.1,0.4c-0.1,0.2-0.1,0.4-0.2,0.6c-0.1,0.2-0.1,0.4-0.2,0.6c-0.4,0.9-0.9,1.6-1.5,2.2
			c-0.6,0.6-1.4,1-2.3,1.4c-0.2,0.1-0.5,0.2-0.7,0.2c-0.2,0-0.5,0.1-0.7,0.2c-0.1,0-0.2,0.1-0.3,0.1s-0.2,0-0.3,0
			c-0.1,0-0.1,0-0.2,0c-0.1,0-0.1,0-0.2,0c-0.1,0-0.2,0-0.4,0c-0.2,0-0.4,0-0.5,0h-0.3c-0.1,0-0.2,0-0.3,0c-0.1,0-0.2,0-0.3,0
			c-0.1,0-0.1,0-0.2,0c-0.1,0-0.1,0-0.2,0c-0.2-0.1-0.4-0.1-0.6-0.1c-0.2,0-0.4-0.1-0.5-0.2c-0.2-0.1-0.4-0.1-0.6-0.2
			c-0.2-0.1-0.4-0.2-0.6-0.3c-0.7-0.4-1.2-0.8-1.7-1.4c-0.5-0.5-0.9-1.1-1.2-1.9c-0.1-0.2-0.2-0.3-0.2-0.5c0-0.2-0.1-0.4-0.2-0.6
			c0-0.1-0.1-0.2-0.1-0.3c0-0.1,0-0.2-0.1-0.3c0-0.1-0.1-0.3-0.1-0.5s0-0.3-0.1-0.5c0-0.1,0-0.2,0-0.3c0-0.1,0-0.2,0-0.3
			c0-0.1-0.1-0.3,0-0.5c0-0.2,0-0.4,0.1-0.5v-0.2c0-0.1,0-0.2,0-0.3c0-0.1,0-0.2,0-0.3c0-0.1,0-0.2,0-0.3s0-0.2,0.1-0.3
			c0.1-0.2,0.1-0.5,0.2-0.7c0.1-0.2,0.1-0.5,0.2-0.7c0.3-0.8,0.7-1.4,1.2-1.9c0.5-0.5,1-1,1.7-1.4c0.2-0.1,0.4-0.2,0.6-0.3
			c0.2-0.1,0.4-0.2,0.6-0.3c0.2-0.1,0.5-0.2,0.8-0.2c0.3,0,0.5-0.1,0.8-0.2c0.1,0,0.3,0,0.4,0c0.1,0,0.3,0,0.4,0
			c1.1,0,2,0.1,2.8,0.3c0.8,0.2,1.5,0.6,2.1,1c0.2,0.1,0.4,0.3,0.6,0.5c0.2,0.2,0.4,0.4,0.5,0.6c0.1,0.2,0.3,0.4,0.4,0.6
			c0.1,0.2,0.2,0.4,0.4,0.6c0.1,0.2,0.2,0.4,0.3,0.7c0.1,0.2,0.2,0.5,0.3,0.7c0.1,0.1,0.1,0.3,0.1,0.5c0,0.2,0.1,0.3,0.1,0.5
			c0,0.1,0,0.1,0,0.2s0,0.1,0,0.2c0,0.1,0,0.2,0,0.3C98.9,128.7,98.9,128.8,98.9,128.9z M95,129.9c0-0.1,0-0.2,0-0.4
			c0-0.2,0-0.3,0-0.4v-0.2c0-0.1-0.1-0.2-0.1-0.3s0-0.2,0-0.3c0-0.1,0-0.1,0-0.2c0-0.1-0.1-0.3-0.1-0.5c0-0.2-0.1-0.3-0.1-0.5
			c-0.2-0.5-0.4-0.9-0.7-1.2c-0.3-0.3-0.7-0.6-1.1-0.8c-0.1,0-0.2-0.1-0.3-0.1c-0.1,0-0.2-0.1-0.4-0.1c-0.1,0-0.3-0.1-0.5,0
			c-0.2,0-0.3,0-0.5,0c-0.1,0-0.1,0.1-0.2,0c-0.1,0-0.1,0-0.2,0c-0.1,0-0.3,0.1-0.4,0.1s-0.2,0.1-0.3,0.1c-0.5,0.2-0.8,0.5-1.1,0.9
			c-0.3,0.4-0.5,0.8-0.7,1.3c-0.1,0.2-0.1,0.4-0.1,0.6c0,0.2-0.1,0.4-0.1,0.6c0,0.1,0,0.2,0,0.3c0,0.1,0,0.2,0,0.3
			c0,0.1-0.1,0.3,0,0.6c0,0.3,0,0.5,0.1,0.6v0.3c0,0.1,0.1,0.3,0.1,0.4c0,0.1,0,0.3,0.1,0.4c0.2,0.6,0.4,1,0.6,1.4
			c0.2,0.3,0.6,0.7,1,0.9c0.1,0.1,0.3,0.2,0.4,0.2c0.2,0.1,0.3,0.1,0.5,0.1c0.1,0,0.1,0,0.2,0c0.1,0,0.1,0,0.2,0c0.1,0,0.2,0,0.2,0
			c0.1,0,0.2,0,0.2,0h0.2c0.1,0,0.3-0.1,0.4-0.1c0.1,0,0.3-0.1,0.4-0.1c0.5-0.2,0.9-0.4,1.2-0.8c0.3-0.3,0.6-0.7,0.8-1.2
			c0.1-0.2,0.1-0.4,0.2-0.6c0-0.2,0.1-0.4,0.1-0.6c0-0.1,0-0.1,0-0.2c0-0.1,0-0.1,0-0.2c0-0.1,0-0.2,0-0.3S95,130,95,129.9z"/>
		<path class="st0" d="M109.8,121.9c1.1,0,2.1,0.1,2.8,0.5c0.7,0.4,1.3,0.9,1.8,1.6c0.1,0.2,0.2,0.4,0.3,0.7s0.2,0.5,0.2,0.7
			c0,0.1,0.1,0.3,0.1,0.4c0,0.1,0,0.3,0.1,0.4c0,0.1,0,0.2,0,0.2c0,0.3,0.1,0.5,0.1,0.8c0,0.3,0,0.6,0,0.8v2.5v4.5c0,0.4,0,0.7,0,1
			c0,0.3-0.1,0.5-0.4,0.6c-0.1,0-0.2,0.1-0.4,0.1c-0.2,0-0.3,0-0.4,0h-1.5c-0.2,0-0.4,0-0.6,0s-0.3-0.1-0.4-0.2
			c-0.1-0.1-0.1-0.3-0.1-0.4c0-0.2,0-0.4,0-0.6v-2v-4.2c0-0.7,0-1.3-0.1-1.9c-0.1-0.6-0.2-1.1-0.5-1.5c-0.3-0.4-0.6-0.6-1.1-0.8
			c-0.1,0-0.2-0.1-0.3-0.1c-0.1,0-0.2,0-0.3-0.1c-0.1,0-0.2,0-0.3,0c-0.1,0-0.2,0-0.3,0c-0.1,0-0.1,0-0.2,0s-0.1,0-0.2,0
			c-0.4,0.1-0.8,0.3-1,0.4c-0.6,0.4-1,1.1-1.1,1.9c-0.1,0.8-0.2,1.7-0.2,2.8v3.5v1.7c0,0.2,0,0.3,0,0.5s0,0.3-0.1,0.4
			c-0.1,0.2-0.2,0.3-0.4,0.4c-0.2,0-0.5,0.1-0.8,0.1h-1.4c-0.2,0-0.4,0-0.6,0s-0.4-0.1-0.4-0.2c-0.1-0.2-0.2-0.4-0.2-0.7
			c0-0.3,0-0.6,0-0.9V131v-6.2v-1.4c0-0.2,0-0.4,0-0.6c0-0.2,0.1-0.3,0.2-0.4c0-0.1,0.1-0.1,0.2-0.1c0.1,0,0.2-0.1,0.3-0.1h0.1
			c0.1,0,0.2,0,0.3,0c0.1,0,0.2,0,0.3,0h1.2c0.1,0,0.3,0,0.4,0c0.1,0,0.3,0,0.4,0.1c0.1,0.1,0.2,0.1,0.3,0.3c0,0.1,0.1,0.2,0.1,0.4
			c0,0.1,0,0.1,0,0.2s0,0.1,0,0.2c0,0.1,0.1,0.1,0.1,0.2c0,0,0.1,0,0.1,0.1c0.2,0,0.4-0.1,0.5-0.2c0.1-0.2,0.3-0.3,0.4-0.4
			c0.5-0.4,1.1-0.7,1.7-0.9c0.2-0.1,0.3-0.1,0.5-0.1c0.2,0,0.4,0,0.6-0.1c0.1,0,0.1,0,0.3,0S109.8,121.9,109.8,121.9z"/>
		<path class="st0" d="M124.8,121.9c1.5,0,2.8,0.2,3.8,0.7s1.8,1.2,2.4,2.1c0.3,0.4,0.5,1,0.7,1.5c0,0.1,0.1,0.2,0.1,0.4
			c0,0.1,0,0.3,0,0.4c-0.1,0.2-0.2,0.3-0.4,0.3c-0.2,0-0.4,0-0.7,0h-1.5c-0.2,0-0.3,0-0.5,0s-0.3,0-0.4-0.1
			c-0.1-0.1-0.3-0.2-0.3-0.4c-0.1-0.2-0.1-0.3-0.2-0.5c-0.1-0.2-0.2-0.4-0.4-0.6s-0.3-0.3-0.4-0.4c-0.3-0.2-0.6-0.3-0.9-0.4
			c-0.1,0-0.2-0.1-0.3-0.1c-0.1,0-0.2,0-0.3-0.1h-0.3c-0.4,0-0.7,0-0.9,0.1c-0.5,0.2-1,0.4-1.3,0.8c-0.3,0.3-0.6,0.8-0.8,1.2
			c-0.1,0.2-0.2,0.4-0.2,0.7c0,0.2-0.1,0.5-0.2,0.7c0,0.1,0,0.1,0,0.2c0,0.1,0,0.1,0,0.2c0,0.2-0.1,0.4,0,0.8c0,0.3,0,0.6,0.1,0.8
			c0,0.1,0,0.3,0,0.3c0,0.1,0.1,0.3,0.1,0.4c0,0.1,0,0.3,0.1,0.4c0.1,0.4,0.3,0.8,0.5,1.2c0.2,0.4,0.5,0.7,0.8,0.9
			c0.1,0.1,0.2,0.1,0.3,0.2c0.2,0.1,0.4,0.2,0.6,0.3s0.5,0.1,0.8,0.1c0,0,0.1,0,0.2,0c0.1,0,0.1,0,0.2,0h0.3c0.1,0,0.3-0.1,0.4-0.1
			c0.1,0,0.2-0.1,0.3-0.1c0.6-0.2,1-0.6,1.3-1.1c0.1-0.1,0.1-0.2,0.2-0.3c0.1-0.1,0.1-0.2,0.1-0.3c0.1-0.2,0.1-0.4,0.2-0.5
			c0.1-0.2,0.2-0.3,0.4-0.4c0.2-0.1,0.4-0.1,0.8-0.1c0.4,0,0.7,0,0.9,0c0.1,0,0.3,0,0.4,0c0.1,0,0.3,0,0.3,0h0.2c0.1,0,0.1,0,0.2,0
			c0.1,0,0.1,0,0.2,0.1c0.1,0.1,0.2,0.2,0.2,0.3c0,0.1,0,0.3,0,0.4c-0.2,0.6-0.4,1.2-0.6,1.7c-0.8,1.4-2,2.4-3.7,3
			c-0.2,0.1-0.4,0.1-0.6,0.1c-0.2,0-0.4,0.1-0.6,0.1c-0.1,0-0.2,0-0.3,0s-0.2,0-0.3,0h-0.3c-0.1,0-0.2,0.1-0.4,0c-0.2,0-0.3,0-0.4,0
			c-0.1,0-0.3-0.1-0.4,0c-0.1,0-0.2,0-0.4,0c-0.1,0-0.2,0-0.3,0c-0.1,0-0.2,0-0.3,0c-0.2-0.1-0.4-0.1-0.6-0.2
			c-0.2-0.1-0.4-0.1-0.5-0.2c-0.9-0.4-1.6-0.9-2.2-1.4s-1.1-1.3-1.5-2.2c-0.1-0.2-0.2-0.4-0.2-0.5c-0.1-0.2-0.1-0.4-0.2-0.6
			c0-0.1,0-0.1,0-0.2c0-0.1,0-0.1-0.1-0.2c0-0.1-0.1-0.3-0.1-0.4c0-0.1,0-0.3-0.1-0.4V130c0-0.1-0.1-0.2-0.1-0.3s0-0.2,0.1-0.3
			c0-0.1,0-0.2,0-0.3c0-0.1,0-0.1,0-0.2c0-0.1,0.1-0.3,0-0.4c0-0.1,0-0.2,0-0.3c0.1-0.3,0.2-0.7,0.2-1c0.1-0.3,0.1-0.6,0.3-0.9
			c0.4-1,0.9-1.7,1.6-2.4c0.6-0.6,1.4-1.1,2.4-1.5c0.3-0.1,0.5-0.2,0.8-0.2c0.3,0,0.6-0.1,0.9-0.2c0.1,0,0.3,0,0.4,0
			C124.5,121.9,124.6,121.9,124.8,121.9z"/>
		<path class="st0" d="M148,129.3c0,0.1,0,0.3,0,0.5c0,0.2-0.1,0.3-0.2,0.4c-0.1,0.1-0.2,0.1-0.4,0.2c-0.2,0-0.4,0-0.6,0.1
			c-0.2,0-0.4,0-0.6,0c-0.2,0-0.4,0-0.6,0h-6.8c-0.1,0-0.3,0-0.4,0s-0.2,0-0.3,0.1c-0.1,0.1-0.2,0.1-0.3,0.2c0,0-0.1,0.1-0.1,0.2
			c0,0.1,0,0.2,0,0.3c0,0.1,0.1,0.2,0.1,0.3c0,0.1,0,0.2,0.1,0.3c0.1,0.4,0.3,0.8,0.5,1.1c0.2,0.3,0.5,0.5,0.9,0.8
			c0.1,0.1,0.3,0.2,0.5,0.2c0.2,0,0.3,0.1,0.5,0.1c0.1,0,0.4,0.1,0.6,0.1c0.3,0,0.5,0,0.7,0h0.3c0.2,0,0.4-0.1,0.5-0.1
			s0.3-0.1,0.5-0.2c0.2-0.1,0.4-0.2,0.6-0.4s0.4-0.3,0.5-0.4c0.1-0.1,0.2-0.3,0.3-0.4c0.1-0.1,0.2-0.2,0.4-0.3
			c0.2-0.1,0.4-0.1,0.7-0.1c0.3,0,0.6,0,0.8,0c0.1,0,0.2,0,0.4,0c0.1,0,0.2,0,0.3,0h0.3c0.2,0,0.3,0.1,0.4,0.1
			c0.1,0,0.1,0.1,0.1,0.3c0,0.1,0,0.2,0,0.3c-0.1,0.3-0.2,0.5-0.3,0.7c-0.1,0.2-0.2,0.4-0.4,0.6c-0.4,0.6-0.9,1.1-1.4,1.5
			s-1.2,0.7-2,1c-0.2,0.1-0.4,0.1-0.6,0.1s-0.4,0.1-0.6,0.1c-0.1,0-0.2,0-0.2,0c-0.1,0-0.2,0-0.2,0h-0.3c-0.1,0-0.2,0.1-0.3,0
			c-0.1,0-0.2,0-0.3,0c-0.2,0-0.3,0-0.4,0c-0.1,0-0.2,0-0.4,0c-0.1,0-0.2-0.1-0.3-0.1s-0.2,0-0.3-0.1c-0.2,0-0.4-0.1-0.6-0.1
			c-0.2,0-0.4-0.1-0.6-0.2c-0.2-0.1-0.4-0.1-0.6-0.2c-0.2-0.1-0.3-0.1-0.5-0.2c-0.6-0.4-1.1-0.8-1.6-1.3c-0.5-0.5-0.9-1.1-1.1-1.7
			c-0.1-0.2-0.2-0.4-0.2-0.6c-0.1-0.2-0.1-0.4-0.2-0.7c0-0.1,0-0.1,0-0.2c0-0.1,0-0.1,0-0.2c-0.1-0.2-0.1-0.5-0.1-0.7
			c0-0.3,0-0.5-0.1-0.8c0-0.1,0-0.2,0-0.3c0-0.1,0-0.2,0-0.3v-0.3l0.1-0.7c0.1-0.3,0.1-0.6,0.2-0.9c0.1-0.3,0.1-0.6,0.3-0.8
			c0.8-1.9,2.2-3.3,4.1-4.1c0.3-0.1,0.5-0.2,0.8-0.2c0.3,0,0.6-0.1,0.9-0.2c0.1,0,0.3,0,0.4,0c0.1,0,0.3,0,0.4,0
			c1,0,1.8,0.1,2.5,0.3c0.7,0.2,1.3,0.5,1.8,0.9c0.2,0.1,0.3,0.2,0.5,0.4s0.3,0.3,0.4,0.4c0.1,0.1,0.1,0.2,0.2,0.2
			c0.1,0.2,0.3,0.4,0.4,0.6c0.1,0.2,0.3,0.4,0.4,0.7c0.1,0.2,0.2,0.3,0.2,0.5c0.1,0.2,0.1,0.4,0.2,0.6c0.1,0.2,0.2,0.5,0.2,0.8
			c0.1,0.3,0.1,0.5,0.2,0.8c0,0.1,0.1,0.3,0,0.5c0,0.2,0,0.3,0,0.5V129.3z M143.8,127.7c0.1-0.2,0.1-0.4,0-0.7
			c-0.1-0.3-0.2-0.5-0.2-0.6c-0.3-0.5-0.6-0.9-1-1.2c-0.4-0.3-1-0.4-1.8-0.4c-0.1,0-0.1,0-0.2,0c-0.1,0-0.1,0-0.2,0
			c-0.1,0-0.2,0.1-0.3,0.1c-0.1,0-0.2,0-0.3,0.1c-0.8,0.3-1.4,0.8-1.8,1.5c0,0.1-0.1,0.2-0.1,0.3c0,0.1-0.1,0.2-0.1,0.4
			c0,0.1,0,0.2,0,0.4c0,0.1,0.1,0.2,0.2,0.3c0.1,0.1,0.4,0.1,0.6,0.1c0.3,0,0.5,0,0.8,0h3.1c0.3,0,0.5,0,0.8,0
			S143.7,127.8,143.8,127.7z"/>
		<path class="st0" d="M165,129.3c0,0.1,0,0.3,0,0.5c0,0.2,0,0.4-0.1,0.5v0.4c-0.1,0.2-0.1,0.4-0.1,0.6c0,0.2,0,0.4-0.1,0.6
			c0,0.2-0.1,0.3-0.1,0.5s-0.1,0.3-0.2,0.5c-0.1,0.3-0.3,0.6-0.4,0.9c-0.1,0.3-0.3,0.5-0.4,0.8c-0.1,0.2-0.2,0.3-0.3,0.5
			c-0.1,0.1-0.3,0.3-0.4,0.4l-0.2,0.2c-0.1,0.1-0.2,0.2-0.3,0.3s-0.2,0.1-0.3,0.2c-0.1,0.1-0.3,0.2-0.5,0.3
			c-0.2,0.1-0.4,0.2-0.5,0.3s-0.4,0.2-0.6,0.2c-0.2,0-0.4,0.1-0.6,0.1c-0.1,0-0.2,0.1-0.3,0.1c-0.1,0-0.2,0-0.4,0.1h-0.3
			c-0.2,0-0.3,0-0.4,0h-0.3c-0.1,0-0.2-0.1-0.4,0s-0.2,0-0.3,0c-0.3-0.1-0.6-0.2-0.9-0.3c-0.3-0.1-0.5-0.2-0.7-0.3
			c-0.1-0.1-0.3-0.2-0.4-0.2s-0.2-0.2-0.4-0.3c-0.1-0.1-0.2-0.1-0.3-0.3s-0.3-0.1-0.4,0c-0.1,0.1-0.1,0.1-0.1,0.2s0,0.2-0.1,0.3
			c0,0.2-0.1,0.4,0,0.6c0,0.2,0,0.5,0,0.7v2.9c0,0.2,0,0.5,0,0.7c0,0.2-0.1,0.4-0.2,0.6c-0.1,0.1-0.2,0.1-0.3,0.2
			c-0.1,0-0.3,0.1-0.5,0.1s-0.4,0-0.6,0s-0.3,0-0.5,0h-0.8c-0.1,0-0.1,0-0.2,0s-0.1,0-0.2,0h-0.2c-0.3-0.1-0.5-0.3-0.5-0.5
			c0-0.3,0-0.6,0-1v-16.4c0-0.2,0-0.4,0-0.7c0-0.2,0-0.4,0.1-0.5c0.1-0.1,0.2-0.2,0.3-0.3c0.1,0,0.2-0.1,0.4-0.1c0.1,0,0.3,0,0.4,0
			h1.3c0.2,0,0.4,0,0.5,0s0.3,0,0.4,0.1c0.1,0.1,0.2,0.2,0.2,0.4c0,0.1,0.1,0.3,0.1,0.4c0,0.1,0,0.1,0.1,0.1c0,0,0.1,0.1,0.1,0.1
			c0.2,0,0.4,0,0.5-0.2c0.1-0.1,0.3-0.2,0.4-0.3c0.2-0.2,0.5-0.3,0.8-0.5s0.6-0.3,0.9-0.4c0.1-0.1,0.3-0.1,0.5-0.1
			c0.2,0,0.3,0,0.5-0.1c0.1,0,0.2,0,0.2,0s0.2,0,0.2,0c1.1,0,2,0.1,2.7,0.4c0.7,0.3,1.4,0.8,1.9,1.3c0.1,0.1,0.2,0.2,0.3,0.3
			c0.1,0.1,0.1,0.2,0.2,0.3c0.1,0.2,0.2,0.3,0.3,0.5s0.2,0.3,0.3,0.5c0,0,0.1,0.1,0.1,0.1c0,0.1,0,0.1,0.1,0.2
			c0.1,0.2,0.2,0.4,0.3,0.7c0,0.1,0.1,0.2,0.1,0.3c0,0.1,0.1,0.2,0.1,0.4c0.1,0.2,0.1,0.5,0.2,0.7c0,0.2,0.1,0.5,0.1,0.8
			c0,0.1,0,0.2,0,0.3c0,0.1,0,0.2,0,0.3V129.3z M161.1,130c0-0.1,0-0.2,0-0.4c0-0.2,0-0.3,0-0.4v-0.3c0-0.1-0.1-0.2-0.1-0.4
			c0-0.1,0-0.3-0.1-0.4c0-0.2-0.1-0.4-0.1-0.5c0-0.2-0.1-0.3-0.2-0.5c-0.2-0.6-0.5-1.1-0.9-1.4c-0.4-0.4-0.9-0.6-1.5-0.8
			c-0.1,0-0.3-0.1-0.5-0.1s-0.3,0-0.5,0c-0.1,0-0.1,0-0.2,0c-0.1,0-0.1,0-0.2,0c-0.1,0-0.3,0.1-0.4,0.1c-0.1,0-0.2,0.1-0.3,0.1
			c-0.5,0.2-0.9,0.5-1.1,1c-0.3,0.4-0.5,0.9-0.7,1.4c0,0.1-0.1,0.3-0.1,0.5s0,0.3-0.1,0.5c0,0.1,0,0.2,0,0.4c0,0.1,0,0.2,0,0.3
			c0,0.1,0,0.2,0,0.3c0,0.1,0,0.2,0,0.3v0.3c0,0.1,0,0.2,0,0.3c0,0.1,0,0.1,0.1,0.2c0,0.1,0,0.2,0,0.3c0,0.1,0,0.2,0.1,0.3
			s0,0.2,0.1,0.3c0.2,0.5,0.4,1,0.6,1.3c0.2,0.3,0.6,0.6,1,0.9c0.3,0.1,0.6,0.3,0.9,0.4c0.1,0,0.1,0,0.2,0c0.1,0,0.1,0,0.2,0
			c0.1,0,0.2,0,0.3,0c0.1,0,0.3,0,0.4,0c0.1,0,0.3-0.1,0.5-0.1c0.2,0,0.3-0.1,0.5-0.1c0.4-0.2,0.8-0.4,1.1-0.8s0.5-0.7,0.7-1.2
			c0.1-0.2,0.2-0.5,0.2-0.7c0-0.2,0.1-0.5,0.1-0.8c0-0.1,0-0.2,0-0.3S161.1,130,161.1,130z"/>
		<path class="st0" d="M169.3,117.9h1.9c0.3,0,0.5,0,0.7,0c0.2,0,0.4,0.1,0.5,0.3c0,0.1,0.1,0.2,0.1,0.3c0,0.1,0,0.3,0,0.4v1.3
			c0,0.1,0,0.2,0,0.3c0,0.1,0,0.2,0,0.3v0.3c0,0.1,0,0.3,0,0.4c0,0.1,0.1,0.2,0.1,0.3c0.1,0.2,0.4,0.3,0.7,0.3c0.3,0,0.7,0,1,0
			c0.1,0,0.2,0,0.3,0c0.1,0,0.2,0,0.3,0.1c0.2,0.1,0.3,0.3,0.3,0.5s0,0.5,0,0.8c0,0.1,0,0.3,0,0.4c0,0.1,0,0.2,0,0.3
			c-0.1,0.3-0.3,0.5-0.6,0.5c-0.3,0-0.6,0-1,0c-0.1,0-0.2,0-0.2,0c-0.1,0-0.2,0-0.2,0c-0.1,0-0.1,0-0.2,0c-0.1,0-0.1,0-0.2,0
			c-0.2,0-0.3,0.1-0.3,0.2c-0.1,0.1-0.1,0.3-0.2,0.4c0,0.1,0,0.2,0,0.3c0,0.1,0,0.2,0,0.3v1.7v3.3c0,0.5,0,0.9,0,1.2
			c0,0.3,0.1,0.6,0.4,0.9c0.1,0.1,0.2,0.2,0.4,0.2c0.2,0,0.3,0.1,0.5,0.1c0.1,0,0.1,0,0.2,0c0.1,0,0.1,0,0.2,0h0.3
			c0.2,0,0.4,0,0.5,0c0.1,0,0.3,0.1,0.4,0.2c0.1,0.1,0.1,0.3,0.1,0.4c0,0.2,0,0.4,0,0.5c0,0.4,0,0.8,0,1.1c0,0.3-0.2,0.5-0.5,0.7
			c-0.1,0-0.2,0.1-0.3,0c-0.1,0-0.2,0-0.3,0h-0.3c0,0-0.1,0-0.2,0c-0.1,0-0.1,0-0.2,0c-0.1,0-0.2,0-0.3,0c-0.1,0-0.2,0-0.3,0
			c-0.1,0-0.2,0-0.3,0c-0.1,0-0.2,0-0.3,0h-0.3c-0.1,0-0.2,0-0.3,0c-0.1,0-0.2,0-0.3,0c-0.1,0-0.3,0-0.4-0.1c-0.1,0-0.2,0-0.3-0.1
			c-0.2-0.1-0.4-0.1-0.6-0.2c-0.2-0.1-0.4-0.2-0.5-0.3c-0.1,0-0.1-0.1-0.2-0.1c-0.1,0-0.1-0.1-0.2-0.2c0,0-0.1-0.1-0.1-0.1
			c-0.1,0-0.1-0.1-0.1-0.1c-0.3-0.4-0.5-0.7-0.6-1.2c0-0.1-0.1-0.1,0-0.2c0-0.1,0-0.1,0-0.2c0,0,0-0.1,0-0.1c0-0.1,0-0.1,0-0.1v-0.3
			c0-0.1,0-0.2,0-0.3c0-0.1,0-0.2,0-0.3v-1.1v-4.2v-1.5c0-0.1,0-0.3,0-0.4c0-0.1,0-0.3,0-0.4c-0.1-0.3-0.2-0.4-0.4-0.5
			c-0.2-0.1-0.5-0.1-0.8-0.1c-0.3,0-0.6,0-0.8-0.1c-0.1-0.1-0.2-0.1-0.3-0.3c0-0.1-0.1-0.3-0.1-0.4v-0.6c0-0.3,0-0.6,0.1-0.8
			c0-0.2,0.2-0.3,0.5-0.4c0.1,0,0.1-0.1,0.2,0c0.1,0,0.2,0,0.3,0c0.3,0,0.5,0,0.8,0c0.2,0,0.4-0.1,0.5-0.3c0.1-0.1,0.1-0.3,0.1-0.4
			c0-0.2,0-0.3,0-0.5v-1.7c0-0.1,0-0.3,0-0.5c0-0.2,0-0.3,0.1-0.4c0.1-0.2,0.2-0.3,0.4-0.4c0,0,0.1,0,0.2,0
			C169.3,118,169.3,118,169.3,117.9z"/>
	</g>
</g>
</svg>
