<?xml version="1.0" encoding="utf-8"?>
<!-- Generator: Adobe Illustrator 21.1.0, SVG Export Plug-In . SVG Version: 6.00 Build 0)  -->
<svg version="1.1" id="Layer_1" xmlns="http://www.w3.org/2000/svg" xmlns:xlink="http://www.w3.org/1999/xlink" x="0px" y="0px"
	 viewBox="0 0 200 200" style="enable-background:new 0 0 200 200;" xml:space="preserve">
<style type="text/css">
	.st0{fill:#FFFFFF;}
</style>
<g>
	<path class="st0" d="M39.3,100.1c0-1.5,0-3,0-4.5c0-0.7,0.3-1.1,0.8-1.5c4.5-2.9,8.9-5.9,13.4-8.9c1-0.6,1.4-0.6,2.4,0
		c4.4,3,8.9,5.9,13.4,8.9c0.5,0.4,0.8,0.8,0.8,1.5c0,3,0,6.1,0,9.1c0,0.6-0.3,1.1-0.8,1.5c-4.5,2.9-8.9,5.9-13.4,8.9
		c-1,0.6-1.4,0.6-2.4,0c-4.4-3-8.9-5.9-13.4-8.9c-0.6-0.4-0.8-0.9-0.8-1.5C39.3,103.1,39.3,101.6,39.3,100.1z M53.2,111.3
		c0-2,0-3.8,0-5.6c0-0.1-0.2-0.3-0.3-0.4c-1.6-1.1-3.2-2.2-4.8-3.2c-0.1-0.1-0.4-0.1-0.5,0c-1.4,0.9-2.7,1.8-4.2,2.8
		C46.7,107,49.9,109.1,53.2,111.3z M56.1,111.3c3.3-2.2,6.5-4.3,9.8-6.5c-1.4-1-2.8-1.9-4.1-2.8c-0.1-0.1-0.4,0-0.6,0.1
		c-1.6,1-3.1,2-4.7,3.1c-0.2,0.1-0.4,0.5-0.4,0.8c0,1.2,0,2.3,0,3.5C56.1,110,56.1,110.6,56.1,111.3z M53.2,89
		c-3.3,2.2-6.5,4.3-9.8,6.5c1.5,1,2.9,1.9,4.3,2.9c1.3-0.9,2.6-1.8,3.9-2.6c1.2-0.7,1.8-1.6,1.6-3c-0.1-0.7,0-1.3,0-2
		C53.2,90.2,53.2,89.7,53.2,89z M56.1,89c0,1.9,0,3.7,0,5.4c0,0.2,0.2,0.4,0.4,0.5c1.6,1.1,3.1,2.1,4.7,3.2c0.3,0.2,0.5,0.2,0.8,0
		c1.2-0.8,2.3-1.6,3.5-2.3c0.1-0.1,0.2-0.2,0.4-0.3C62.6,93.3,59.5,91.2,56.1,89z M58.9,100.1c-1.4-0.9-2.7-1.8-4-2.7
		c-0.1-0.1-0.3-0.1-0.4,0c-1.4,0.9-2.7,1.8-4.1,2.8c1.4,0.9,2.7,1.8,4.1,2.7c0.1,0.1,0.3,0.1,0.4,0C56.2,101.9,57.5,101,58.9,100.1z
		 M45.2,100.1c-1-0.7-1.9-1.3-2.9-1.9c0,1.3,0,2.5,0,3.8C43.3,101.4,44.2,100.8,45.2,100.1z M67.1,98.2c-1,0.6-1.9,1.2-2.9,1.9
		c1,0.7,1.9,1.3,2.9,1.9C67.1,100.7,67.1,99.5,67.1,98.2z"/>
	<path class="st0" d="M77.2,100.1c0-2.8,0-5.7,0-8.5c0-1.2,0.5-1.8,1.8-1.8c2.3,0,4.7-0.1,7,0.1c4.9,0.3,8.9,4.3,9.2,9.2
		c0.3,4.4-1.3,7.8-5.2,10c-1.5,0.9-3.2,1.2-5,1.3c-2,0-4.1,0-6.1,0c-1.2,0-1.7-0.5-1.8-1.8C77.2,105.8,77.2,103,77.2,100.1z
		 M80.2,107.5c2,0,3.9,0.1,5.7,0c3.6-0.2,6.3-3.2,6.5-7c0.2-3.6-2.2-7-5.7-7.5c-2.1-0.3-4.3-0.1-6.4-0.2c0,0-0.1,0-0.1,0.1
		C80.2,97.7,80.2,102.6,80.2,107.5z"/>
	<path class="st0" d="M168.5,95.8c0,0.3,0,0.5,0,0.8c0,4,0,8.1,0,12.1c0,1.1-0.6,1.8-1.6,1.7c-0.7-0.1-1.1-0.5-1.2-1.2
		c0-0.2,0-0.5,0-0.7c0-5.6,0-11.2,0-16.9c0-0.4,0-0.8,0.2-1.1c0.5-1,1.8-1,2.5-0.1c2.3,3,4.7,6,7,8.9c1.3,1.7,2.7,3.4,4.2,5.3
		c0-0.4,0-0.6,0-0.9c0-4,0-8,0-12.1c0-0.3,0-0.5,0-0.8c0.1-0.7,0.7-1.2,1.4-1.2c0.7,0,1.3,0.5,1.4,1.2c0,0.2,0,0.4,0,0.6
		c0,5.7,0,11.4,0,17c0,0.5-0.1,1.1-0.5,1.4c-0.7,0.6-1.6,0.4-2.2-0.4c-3.1-3.9-6.2-7.8-9.2-11.8c-0.6-0.8-1.2-1.5-1.8-2.3
		C168.6,95.7,168.6,95.8,168.5,95.8z"/>
	<path class="st0" d="M104.2,92.8c0,2,0,3.9,0,5.9c0.3,0,0.6,0,0.8,0c1.6,0,3.3,0,4.9,0c1.1,0,1.8,0.5,1.8,1.4
		c0,0.9-0.6,1.5-1.7,1.5c-1.7,0-3.4,0-5.1,0c-0.2,0-0.5,0-0.7,0c0,2,0,3.9,0,5.9c0.2,0,0.5,0,0.7,0c3,0,6,0,9,0
		c1.1,0,1.7,0.7,1.6,1.6c-0.1,0.8-0.7,1.3-1.6,1.3c-2.1,0-4.1,0-6.2,0c-1.6,0-3.2,0-4.7,0c-1.2,0-1.7-0.5-1.7-1.7
		c0-5.7,0-11.4,0-17.2c0-1.2,0.5-1.7,1.7-1.7c3.6,0,7.3,0,10.9,0c1.1,0,1.7,0.6,1.7,1.5c0,0.9-0.6,1.4-1.7,1.4c-2.9,0-5.8,0-8.7,0
		C104.8,92.8,104.5,92.8,104.2,92.8z"/>
	<path class="st0" d="M147.1,92.8c0,2,0,3.9,0,5.9c0.3,0,0.5,0,0.7,0c1.7,0,3.5,0,5.2,0c1,0,1.6,0.5,1.7,1.4c0,0.9-0.6,1.5-1.7,1.5
		c-1.7,0-3.4,0-5.1,0c-0.2,0-0.5,0-0.7,0c0,2,0,3.9,0,5.9c0.2,0,0.5,0,0.7,0c2.9,0,5.8,0,8.7,0c0.3,0,0.5,0,0.8,0
		c0.7,0.1,1.1,0.7,1.1,1.4c0,0.7-0.4,1.3-1.1,1.4c-0.2,0-0.4,0-0.6,0c-3.6,0-7.2,0-10.7,0c-1.3,0-1.8-0.5-1.8-1.7
		c0-5.7,0-11.4,0-17.1c0-1.2,0.5-1.7,1.7-1.7c3.6,0,7.2,0,10.8,0c0.2,0,0.4,0,0.6,0.1c0.7,0.1,1.1,0.7,1.1,1.4
		c0,0.7-0.5,1.3-1.1,1.4c-0.2,0-0.5,0-0.8,0c-2.9,0-5.8,0-8.6,0C147.6,92.8,147.4,92.8,147.1,92.8z"/>
	<path class="st0" d="M125.6,102.9c0,0.3,0,0.6,0,0.8c0,1.7,0,3.4,0,5c0,1.1-0.5,1.7-1.5,1.7c-0.9,0-1.4-0.6-1.4-1.8
		c0,0,0-0.1,0-0.1c0-5.6,0-11.2,0-16.8c0-1.4,0.5-1.9,1.9-1.9c2.6,0,5.1-0.1,7.7,0.1c3.5,0.2,6.1,3.2,6,6.7
		c-0.2,3.5-2.9,6.2-6.5,6.3c-1.8,0-3.6,0-5.4,0C126.1,102.9,125.9,102.9,125.6,102.9z M125.6,99.9c2.2,0,4.3,0,6.4,0
		c0.2,0,0.4,0,0.6-0.1c1.7-0.5,2.8-2.1,2.6-3.9c-0.2-1.8-1.7-3.2-3.6-3.2c-1.9,0-3.8,0-5.7,0c-0.1,0-0.3,0-0.4,0.1
		C125.6,95.2,125.6,97.5,125.6,99.9z"/>
	<path class="st0" d="M15.3,100.2c0.2-4.3,2-7.7,6-9.4c4.1-1.8,8-1.2,11.4,1.8c0.8,0.7,0.9,1.6,0.3,2.3c-0.6,0.7-1.5,0.6-2.3-0.1
		c-2.2-2-5.7-2.5-8.5-1.2c-2.7,1.3-4.3,4.1-4,7.2c0.3,3,1.7,5.2,4.5,6.3c2.9,1.1,5.6,0.6,8-1.4c0.2-0.2,0.5-0.4,0.7-0.5
		c0.6-0.3,1.4,0,1.7,0.5c0.4,0.6,0.3,1.4-0.3,1.9c-2.3,2-4.9,3-8,2.8c-5-0.4-8.5-3.6-9.4-8.5C15.4,101.3,15.4,100.7,15.3,100.2z"/>
</g>
</svg>
