<?xml version="1.0" encoding="utf-8"?>
<!-- Generator: Adobe Illustrator 21.1.0, SVG Export Plug-In . SVG Version: 6.00 Build 0)  -->
<svg version="1.1" id="Layer_1" xmlns="http://www.w3.org/2000/svg" xmlns:xlink="http://www.w3.org/1999/xlink" x="0px" y="0px"
	 viewBox="0 0 200 200" style="enable-background:new 0 0 200 200;" xml:space="preserve">
<style type="text/css">
	.st0{fill:#FFFFFF;}
</style>
<g>
	<path class="st0" d="M45.1,111.5c0.7-0.2,1.8-0.4,2.8-0.7c7-2.1,10.2-11,6-17c-0.6-0.8-0.6-1.5-0.5-2.4c0.1-1.4-0.1-2.8-0.2-4.2
		c-0.1-0.9-0.7-1.3-1.6-1c-1.6,0.6-3.1,1.3-4.6,1.9c-0.6,0.2-1.4,0.5-2,0.3c-3.4-0.7-6.8-0.7-10.3,0c-0.7,0.1-1.5-0.1-2.2-0.4
		c-1.4-0.5-2.8-1.2-4.2-1.7c-1.1-0.4-1.9,0-2,1.2c-0.1,1.4-0.1,2.9-0.1,4.3c0,0.5,0,1.1-0.3,1.5c-4.8,7.2-1.1,16.3,7.4,17.9
		c0.5,0.1,1,0.2,1.6,0.3c-0.4,1-0.7,2-1.2,2.9c-0.2,0.3-0.6,0.6-1,0.8c-2.5,0.8-4.6,0-6.2-2.4c-1-1.5-2.2-2.5-4-2.5
		c-0.2,0-0.5,0.1-0.7,0.2c0,0.2-0.1,0.3,0,0.4c1.9,1.5,3,3.5,4.2,5.5c1.2,1.9,3.3,2.3,5.4,2.2c0.7,0,1.3-0.1,2.3-0.2
		c0,1.6,0.1,3.1,0,4.6c-0.2,1.3-1.2,1.2-2.2,0.9c-4.6-1.7-8.4-4.4-11.3-8.3c-6.3-8.3-6.7-19.6-1.1-28.4c5.7-8.9,16.3-13.1,26.7-10.7
		c9.8,2.3,17.5,10.9,18.7,21c1.4,11.3-5.2,22.2-15.8,26.2c-2.1,0.8-2.7,0.4-2.7-1.8c0-1.7,0.1-3.5,0-5.2
		C45.9,115.1,45.4,113.4,45.1,111.5z"/>
	<path class="st0" d="M92.5,91.2c-2.3-0.2-4.4-0.5-6.5-0.5c-3.6,0-5.6,1.7-6.5,5.2c-0.7,2.9-0.7,5.9,0.1,8.8
		c1.1,3.7,4.5,5.5,8.1,4.4c0.3-0.1,0.7-0.6,0.7-1c0.1-1.6,0-3.1,0-4.8c-1.4,0-2.6,0-4.1,0c0-1.7-0.1-3.3,0.1-4.8
		c0-0.3,0.7-0.7,1.1-0.7c2.7-0.1,5.3,0,8,0c0.9,0,1.2,0.4,1.2,1.2c0,4.3,0,8.7-0.1,13c0,0.5-0.5,1.3-1,1.5
		c-4.6,2.2-9.4,2.3-14.1,0.5c-3.8-1.5-5.6-4.7-6.4-8.5c-0.8-4-0.7-8,0.3-12c1.4-5.2,4.5-8.1,9.9-8.5c3-0.2,6,0.5,9,0.8
		c0.9,0.1,1.3,0.7,1,1.7C93,88.7,92.7,90,92.5,91.2z"/>
	<path class="st0" d="M128.4,102.3c0,3.6,0,7.1,0,10.6c0,1.2-0.3,1.7-1.6,1.6c-1.2-0.1-2.4,0.1-3.6-0.1c-0.4,0-1-0.7-1-1.1
		c-0.1-8.8,0-17.6-0.1-26.5c0-0.8,0.4-1.1,1.1-1.1c1.3,0,2.6,0,3.9,0c1,0,1.2,0.4,1.2,1.3c0,3.1,0,6.1,0,9.3c2.7,0,5.3,0,8.2,0
		c0-1.6,0-3.2,0-4.8c0-1.5,0.1-2.9,0-4.4c-0.1-1,0.2-1.6,1.4-1.5c1.2,0.1,2.4,0.1,3.6,0c0.9,0,1.3,0.2,1.3,1.2c0,8.7,0,17.4,0,26.1
		c0,0.9-0.3,1.3-1.3,1.3c-1.2-0.1-2.4-0.1-3.6,0c-1.1,0.1-1.4-0.4-1.4-1.4c0.1-3.5,0-7.1,0-10.7
		C133.9,102.3,131.3,102.3,128.4,102.3z"/>
	<path class="st0" d="M172.3,95.1c2.1-0.3,3.9-0.7,5.8-0.7c2.8,0,4.9,1.5,5.8,4.2c1.4,4.2,1.2,8.4-0.3,12.6
		c-0.9,2.6-3.1,3.7-5.7,3.8c-2.5,0.1-4.7-0.4-6.8-1.8c-0.6,1.1-3.7,1.8-4.6,1.1c-0.3-0.2-0.3-0.7-0.3-1.1c0-8.7,0-17.4,0-26.1
		c0-1,0.4-1.2,1.3-1.2c5-0.2,5-0.2,5,4.8C172.3,92.1,172.3,93.7,172.3,95.1z M172.3,104.6c0,0.9,0.1,1.8,0,2.7
		c-0.2,1.3,0.2,2.1,1.7,2.4c2.1,0.4,3.7,0.1,4.1-1.2c0.9-2.5,1-5.1,0-7.6c-0.6-1.4-2-1.8-3.9-1.4c-1.6,0.3-2.1,1.1-1.9,2.6
		C172.4,103,172.3,103.8,172.3,104.6z"/>
	<path class="st0" d="M158.8,113.3c-2.6,1.3-5.2,2.1-8,1.6c-3.5-0.6-5.2-2.3-5.3-5.9c-0.1-4.3,0-8.7,0-13c0-0.8,0.3-1.1,1.1-1.1
		c1.3,0,2.5,0.1,3.8,0c1.1-0.1,1.4,0.3,1.4,1.4c-0.1,3.5,0,7.1,0,10.6c0,1.1-0.1,2.5,1.3,2.7c1.3,0.2,2.7-0.3,4-0.6
		c0.2-0.1,0.3-0.9,0.3-1.4c0-3.8,0.1-7.5,0-11.3c0-1.2,0.3-1.6,1.5-1.5c1.1,0.1,2.3,0.1,3.4,0c1,0,1.3,0.4,1.3,1.3
		c0,5.7,0,11.4,0,17.1c0,0.9-0.3,1.3-1.2,1.2C161.1,114.3,159.5,115.2,158.8,113.3z"/>
	<path class="st0" d="M109.1,89.4c2.1,0,3.9,0,6,0c0,1.8,0,3.5,0,5.4c0.7,0,1.3,0.1,1.8,0.1c0.5,0,0.9,0,1.4,0
		c1.5-0.1,1.4,1,1.2,1.7c-0.4,1.1,1.3,3-1.1,3.4c-1,0.1-2,0-3.2,0c0,2.9-0.1,5.6,0,8.3c0.1,1.3,1.3,1.6,2.4,1.5
		c1.6-0.2,2.1,0.3,2,1.9c-0.1,2.9,0,2.9-2.9,3.2c-5,0.5-7.7-2-7.7-7c0-2.5,0-5.1,0-7.4c-0.9-1.2-3,0.7-3.1-1.6c0-1-0.2-2.3,0.3-3
		c0.5-0.6,1.8-0.7,2.9-1C109.1,93.1,109.1,91.3,109.1,89.4z"/>
	<path class="st0" d="M104,104.6c0,2.8,0,5.5,0,8.3c0,1.1-0.3,1.7-1.5,1.6c-1.1-0.1-2.3-0.1-3.4,0c-0.9,0-1.3-0.3-1.3-1.2
		c0-5.7,0-11.4,0-17.1c0-0.9,0.3-1.3,1.2-1.2c0.1,0,0.2,0,0.3,0c1.5,0.1,3.5-0.4,4.4,0.3c0.8,0.7,0.4,2.8,0.4,4.3
		C104,101.2,104,102.9,104,104.6z"/>
	<path class="st0" d="M97.4,89.9c0-1.9,1.5-3.5,3.4-3.5c1.9,0,3.4,1.5,3.4,3.3c0.1,1.9-1.5,3.5-3.4,3.6C99,93.4,97.5,91.8,97.4,89.9
		z"/>
</g>
</svg>
