<?xml version="1.0" encoding="utf-8"?>
<!-- Generator: Adobe Illustrator 21.1.0, SVG Export Plug-In . SVG Version: 6.00 Build 0)  -->
<svg version="1.1" xmlns="http://www.w3.org/2000/svg" xmlns:xlink="http://www.w3.org/1999/xlink" x="0px" y="0px"
	 viewBox="0 0 238 200" style="enable-background:new 0 0 238 200;" xml:space="preserve">
<style type="text/css">
	.st0{fill:#1A1A1A;}
	.st1{fill:#333333;}
	.st2{fill:#FFFFFF;}
</style>
<g id="Layer_4">
	<circle class="st0" cx="119" cy="78" r="65.5"/>
</g>
<g id="Layer_2">
	
		<ellipse transform="matrix(0.3078 -0.9514 0.9514 0.3078 7.4651 166.0682)" class="st0" cx="117.9" cy="77.9" rx="37.9" ry="71.3"/>
	
		<ellipse transform="matrix(0.5519 -0.8339 0.8339 0.5519 -49.3895 116.6026)" class="st0" cx="83.8" cy="104.3" rx="30.8" ry="32.2"/>
	<ellipse transform="matrix(0.8312 -0.556 0.556 0.8312 8.14 79.8184)" class="st0" cx="135.5" cy="26.5" rx="16.5" ry="16.5"/>
	
		<ellipse transform="matrix(0.9978 -6.592149e-02 6.592149e-02 0.9978 -7.2497 10.7361)" class="st0" cx="159.1" cy="115.2" rx="21" ry="16.5"/>
</g>
<g id="Layer_3">
	<rect x="90" y="55" class="st1" width="58" height="10"/>
	<rect x="90" y="73" class="st1" width="29" height="10"/>
	<rect x="90" y="91" class="st1" width="58" height="10"/>
</g>
<g id="Layer_5">
	<g>
		<path class="st2" d="M48.4,170c0.2,0.2,0.3,0.4,0.3,0.7v4.3c0,0.3-0.1,0.5-0.3,0.7c-1.3,1-2.7,1.6-4.4,1.6c-1.3,0-2.5-0.3-3.5-1
			c-1.1-0.6-1.9-1.5-2.5-2.6c-0.6-1.1-0.9-2.3-0.9-3.7c0-1.3,0.3-2.5,0.9-3.6c0.6-1.1,1.4-2,2.5-2.6c1.1-0.6,2.2-1,3.5-1
			c0.9,0,1.7,0.1,2.4,0.4s1.3,0.6,2,1.2c0.1,0.1,0.2,0.2,0.3,0.3c0,0.1,0.1,0.3,0.1,0.4c0,0.2-0.1,0.4-0.3,0.6
			c-0.2,0.2-0.4,0.2-0.6,0.2c-0.2,0-0.4-0.1-0.6-0.2c-0.5-0.4-1-0.7-1.4-0.9c-0.5-0.2-1.1-0.3-1.8-0.3c-0.9,0-1.8,0.2-2.6,0.7
			c-0.8,0.5-1.4,1.2-1.9,2c-0.5,0.8-0.7,1.8-0.7,2.8c0,1,0.2,1.9,0.7,2.8s1.1,1.5,1.9,2c0.8,0.5,1.6,0.7,2.6,0.7c1,0,2-0.3,2.9-0.9
			v-3.2h-2.5c-0.3,0-0.5-0.1-0.7-0.2c-0.2-0.2-0.3-0.4-0.3-0.6s0.1-0.4,0.3-0.6c0.2-0.2,0.4-0.2,0.7-0.2h3.4
			C48,169.8,48.2,169.9,48.4,170z"/>
		<path class="st2" d="M52.6,176.5c-0.8-0.4-1.3-1-1.8-1.8c-0.4-0.8-0.6-1.6-0.6-2.6c0-1,0.2-1.8,0.6-2.6c0.4-0.8,1-1.3,1.8-1.8
			c0.8-0.4,1.6-0.6,2.6-0.6c0.9,0,1.8,0.2,2.5,0.6c0.8,0.4,1.3,1,1.8,1.8c0.4,0.8,0.6,1.6,0.6,2.6c0,1-0.2,1.8-0.6,2.6
			c-0.4,0.8-1,1.3-1.8,1.8c-0.8,0.4-1.6,0.6-2.6,0.6S53.4,176.9,52.6,176.5z M56.9,175.1c0.5-0.3,0.9-0.7,1.1-1.2
			c0.3-0.5,0.4-1.1,0.4-1.7c0-0.6-0.1-1.2-0.4-1.7c-0.3-0.5-0.6-0.9-1.1-1.2c-0.5-0.3-1-0.4-1.6-0.4s-1.2,0.1-1.6,0.4
			c-0.5,0.3-0.9,0.7-1.1,1.2c-0.3,0.5-0.4,1.1-0.4,1.7c0,0.6,0.1,1.2,0.4,1.7c0.3,0.5,0.7,0.9,1.1,1.2c0.5,0.3,1,0.4,1.6,0.4
			S56.4,175.4,56.9,175.1z"/>
		<path class="st2" d="M64.8,176.5c-0.8-0.4-1.3-1-1.8-1.8s-0.6-1.6-0.6-2.6c0-1,0.2-1.8,0.6-2.6s1-1.3,1.8-1.8
			c0.8-0.4,1.6-0.6,2.6-0.6c0.9,0,1.8,0.2,2.5,0.6c0.8,0.4,1.3,1,1.8,1.8c0.4,0.8,0.6,1.6,0.6,2.6c0,1-0.2,1.8-0.6,2.6
			c-0.4,0.8-1,1.3-1.8,1.8c-0.8,0.4-1.6,0.6-2.6,0.6S65.5,176.9,64.8,176.5z M69,175.1c0.5-0.3,0.9-0.7,1.1-1.2
			c0.3-0.5,0.4-1.1,0.4-1.7c0-0.6-0.1-1.2-0.4-1.7c-0.3-0.5-0.6-0.9-1.1-1.2c-0.5-0.3-1-0.4-1.6-0.4s-1.2,0.1-1.6,0.4
			c-0.5,0.3-0.9,0.7-1.1,1.2c-0.3,0.5-0.4,1.1-0.4,1.7c0,0.6,0.1,1.2,0.4,1.7s0.7,0.9,1.1,1.2c0.5,0.3,1,0.4,1.6,0.4
			S68.5,175.4,69,175.1z"/>
		<path class="st2" d="M83.6,172.5c-0.2,0.2-0.4,0.2-0.6,0.2h-6.8c0.1,0.8,0.5,1.5,1.1,2c0.6,0.5,1.4,0.8,2.3,0.8
			c0.4,0,0.7-0.1,1.1-0.2c0.4-0.1,0.7-0.3,1-0.5c0.2-0.1,0.4-0.2,0.6-0.2c0.2,0,0.4,0.1,0.5,0.2c0.2,0.2,0.3,0.4,0.3,0.6
			c0,0.2-0.1,0.4-0.3,0.5c-0.4,0.3-0.9,0.6-1.5,0.8c-0.6,0.2-1.2,0.3-1.7,0.3c-1,0-1.9-0.2-2.6-0.6c-0.8-0.4-1.4-1-1.8-1.8
			c-0.4-0.8-0.7-1.6-0.7-2.6s0.2-1.8,0.6-2.6c0.4-0.8,1-1.4,1.7-1.8c0.7-0.4,1.6-0.6,2.5-0.6c0.9,0,1.7,0.2,2.4,0.6s1.2,1,1.5,1.7
			c0.4,0.7,0.5,1.6,0.5,2.5C83.9,172.2,83.8,172.4,83.6,172.5z M77.3,169.4c-0.5,0.5-0.9,1.1-1,1.9h6c-0.1-0.8-0.4-1.4-0.9-1.9
			c-0.5-0.5-1.1-0.7-1.9-0.7C78.5,168.7,77.8,168.9,77.3,169.4z"/>
		<path class="st2" d="M94.3,168c0,0.1,0,0.3-0.1,0.4l-5.5,12.4c-0.1,0.4-0.4,0.6-0.7,0.6c-0.1,0-0.3,0-0.4-0.1
			c-0.4-0.2-0.5-0.4-0.5-0.7c0-0.1,0-0.3,0.1-0.4l1.8-4l-4.1-7.7c-0.1-0.1-0.1-0.2-0.1-0.4c0-0.2,0-0.3,0.1-0.4
			c0.1-0.1,0.2-0.2,0.4-0.3c0.1,0,0.2-0.1,0.4-0.1c0.3,0,0.6,0.2,0.8,0.5l3.3,6.6l2.9-6.5c0.2-0.3,0.4-0.5,0.7-0.5
			c0.2,0,0.3,0,0.4,0.1C94.1,167.4,94.3,167.7,94.3,168z"/>
		<path class="st2" d="M101.6,176.8c-0.2-0.2-0.3-0.4-0.3-0.7v-12.2c0-0.3,0.1-0.5,0.3-0.7s0.4-0.3,0.7-0.3c0.1,0,0.3,0,0.4,0.1
			c0.1,0.1,0.2,0.1,0.3,0.2l7.8,10.4v-9.8c0-0.3,0.1-0.5,0.3-0.7c0.2-0.2,0.4-0.3,0.7-0.3s0.5,0.1,0.7,0.3s0.3,0.4,0.3,0.7v12.2
			c0,0.3-0.1,0.5-0.3,0.7s-0.4,0.3-0.7,0.3c-0.1,0-0.3,0-0.4-0.1c-0.1-0.1-0.2-0.1-0.3-0.2l-7.8-10.4v9.8c0,0.3-0.1,0.5-0.3,0.7
			c-0.2,0.2-0.4,0.3-0.7,0.3C102,177.1,101.8,177,101.6,176.8z"/>
		<path class="st2" d="M123.1,167.8c0.8,0.4,1.3,1,1.8,1.8c0.4,0.8,0.7,1.6,0.7,2.5v4c0,0.3-0.1,0.5-0.3,0.7
			c-0.2,0.2-0.4,0.3-0.7,0.3c-0.3,0-0.5-0.1-0.7-0.3s-0.3-0.4-0.3-0.7v-0.7c-0.4,0.5-0.9,0.9-1.5,1.2c-0.6,0.3-1.2,0.4-1.9,0.4
			c-0.9,0-1.6-0.2-2.3-0.6c-0.7-0.4-1.3-1-1.7-1.8c-0.4-0.8-0.6-1.6-0.6-2.5c0-0.9,0.2-1.8,0.6-2.5c0.4-0.8,1-1.4,1.8-1.8
			c0.8-0.4,1.6-0.7,2.5-0.7S122.4,167.4,123.1,167.8z M122.2,175.1c0.5-0.3,0.9-0.7,1.1-1.2c0.3-0.5,0.4-1.1,0.4-1.7
			c0-0.6-0.1-1.2-0.4-1.7c-0.3-0.5-0.7-0.9-1.1-1.2c-0.5-0.3-1-0.4-1.6-0.4c-0.6,0-1.1,0.1-1.6,0.4c-0.5,0.3-0.9,0.7-1.2,1.2
			c-0.3,0.5-0.4,1.1-0.4,1.7c0,0.6,0.1,1.2,0.4,1.7c0.3,0.5,0.7,0.9,1.2,1.2c0.5,0.3,1,0.4,1.6,0.4
			C121.2,175.5,121.7,175.4,122.2,175.1z"/>
		<path class="st2" d="M135.7,167.6c0.1,0.1,0.1,0.3,0.1,0.4c0,0.1,0,0.2-0.1,0.3l-3.8,8c-0.2,0.4-0.5,0.6-0.8,0.6
			c-0.2,0-0.4,0-0.5-0.1c-0.1-0.1-0.3-0.2-0.4-0.5l-3.8-8c0-0.1-0.1-0.2-0.1-0.3c0-0.3,0.2-0.6,0.5-0.7c0.1-0.1,0.2-0.1,0.4-0.1
			c0.1,0,0.3,0,0.4,0.1c0.1,0.1,0.2,0.2,0.3,0.3l3.1,6.8l3.1-6.8c0.1-0.1,0.2-0.3,0.3-0.3c0.1-0.1,0.3-0.1,0.4-0.1
			c0.2,0,0.3,0,0.4,0.1C135.5,167.4,135.6,167.5,135.7,167.6z"/>
		<path class="st2" d="M137.9,165.3c-0.2-0.2-0.4-0.5-0.4-0.8s0.1-0.6,0.4-0.8c0.2-0.2,0.5-0.4,0.8-0.4s0.6,0.1,0.8,0.4
			c0.2,0.2,0.4,0.5,0.4,0.8s-0.1,0.6-0.4,0.8c-0.2,0.2-0.5,0.4-0.8,0.4S138.1,165.5,137.9,165.3z M138.1,176.8
			c-0.2-0.2-0.3-0.4-0.3-0.7v-8c0-0.3,0.1-0.5,0.3-0.7s0.4-0.3,0.7-0.3c0.3,0,0.5,0.1,0.7,0.3s0.3,0.4,0.3,0.7v8
			c0,0.3-0.1,0.5-0.3,0.7s-0.4,0.3-0.7,0.3C138.4,177.1,138.2,177,138.1,176.8z"/>
		<path class="st2" d="M150.1,167.8c0.8,0.4,1.3,1,1.8,1.8c0.4,0.8,0.6,1.6,0.6,2.6v3.9c0,0.9-0.2,1.8-0.6,2.6
			c-0.4,0.8-1,1.4-1.8,1.8s-1.6,0.7-2.6,0.7c-0.9,0-1.7-0.2-2.4-0.5s-1.4-0.8-1.9-1.5c-0.1-0.2-0.2-0.3-0.2-0.5
			c0-0.3,0.1-0.5,0.4-0.6c0.2-0.1,0.3-0.2,0.5-0.2c0.3,0,0.5,0.1,0.7,0.4c0.3,0.4,0.7,0.7,1.2,1s1,0.3,1.7,0.3
			c0.6,0,1.1-0.1,1.6-0.4c0.5-0.3,0.9-0.7,1.2-1.2s0.4-1.2,0.4-2V175c-0.4,0.7-0.9,1.2-1.5,1.5c-0.6,0.4-1.3,0.6-2.1,0.6
			c-0.9,0-1.7-0.2-2.4-0.6c-0.7-0.4-1.2-1-1.6-1.8c-0.4-0.8-0.6-1.6-0.6-2.6c0-1,0.2-1.8,0.6-2.6s1-1.3,1.8-1.8
			c0.8-0.4,1.6-0.6,2.6-0.6C148.5,167.1,149.3,167.4,150.1,167.8z M149.2,175.1c0.5-0.3,0.9-0.7,1.1-1.2c0.3-0.5,0.4-1.1,0.4-1.7
			c0-0.6-0.1-1.2-0.4-1.7c-0.3-0.5-0.6-0.9-1.1-1.2c-0.5-0.3-1-0.4-1.6-0.4s-1.2,0.1-1.6,0.4c-0.5,0.3-0.9,0.7-1.1,1.2
			c-0.3,0.5-0.4,1.1-0.4,1.7c0,0.6,0.1,1.2,0.4,1.7s0.7,0.9,1.1,1.2c0.5,0.3,1,0.4,1.6,0.4S148.7,175.4,149.2,175.1z"/>
		<path class="st2" d="M162.2,167.8c0.8,0.4,1.3,1,1.8,1.8c0.4,0.8,0.7,1.6,0.7,2.5v4c0,0.3-0.1,0.5-0.3,0.7
			c-0.2,0.2-0.4,0.3-0.7,0.3c-0.3,0-0.5-0.1-0.7-0.3s-0.3-0.4-0.3-0.7v-0.7c-0.4,0.5-0.9,0.9-1.5,1.2c-0.6,0.3-1.2,0.4-1.9,0.4
			c-0.9,0-1.6-0.2-2.3-0.6c-0.7-0.4-1.3-1-1.7-1.8c-0.4-0.8-0.6-1.6-0.6-2.5c0-0.9,0.2-1.8,0.6-2.5c0.4-0.8,1-1.4,1.8-1.8
			c0.8-0.4,1.6-0.7,2.5-0.7S161.4,167.4,162.2,167.8z M161.3,175.1c0.5-0.3,0.9-0.7,1.1-1.2c0.3-0.5,0.4-1.1,0.4-1.7
			c0-0.6-0.1-1.2-0.4-1.7c-0.3-0.5-0.7-0.9-1.1-1.2c-0.5-0.3-1-0.4-1.6-0.4c-0.6,0-1.1,0.1-1.6,0.4c-0.5,0.3-0.9,0.7-1.2,1.2
			c-0.3,0.5-0.4,1.1-0.4,1.7c0,0.6,0.1,1.2,0.4,1.7c0.3,0.5,0.7,0.9,1.2,1.2c0.5,0.3,1,0.4,1.6,0.4
			C160.3,175.5,160.8,175.4,161.3,175.1z"/>
		<path class="st2" d="M172.1,175.5c0.1,0.2,0.2,0.4,0.2,0.6c0,0.3-0.1,0.5-0.3,0.6s-0.5,0.3-0.8,0.3h-0.3c-0.6,0-1.1-0.2-1.6-0.5
			c-0.5-0.3-0.9-0.7-1.1-1.3c-0.3-0.5-0.4-1.1-0.4-1.8v-4.4h-0.8c-0.3,0-0.5-0.1-0.6-0.2c-0.2-0.1-0.2-0.3-0.2-0.5
			c0-0.2,0.1-0.4,0.2-0.6c0.2-0.1,0.4-0.2,0.6-0.2h0.8V165c0-0.3,0.1-0.5,0.3-0.6s0.4-0.3,0.6-0.3c0.3,0,0.5,0.1,0.6,0.3
			s0.3,0.4,0.3,0.6v2.6h1.5c0.3,0,0.5,0.1,0.6,0.2c0.2,0.1,0.2,0.3,0.2,0.6c0,0.2-0.1,0.4-0.2,0.5c-0.2,0.1-0.4,0.2-0.6,0.2h-1.5
			v4.4c0,0.5,0.1,0.9,0.4,1.2c0.3,0.3,0.6,0.5,1,0.5h0.6C171.8,175.3,171.9,175.3,172.1,175.5z"/>
		<path class="st2" d="M174.8,165.3c-0.2-0.2-0.4-0.5-0.4-0.8s0.1-0.6,0.4-0.8c0.2-0.2,0.5-0.4,0.8-0.4s0.6,0.1,0.8,0.4
			c0.2,0.2,0.4,0.5,0.4,0.8s-0.1,0.6-0.4,0.8c-0.2,0.2-0.5,0.4-0.8,0.4S175.1,165.5,174.8,165.3z M175,176.8
			c-0.2-0.2-0.3-0.4-0.3-0.7v-8c0-0.3,0.1-0.5,0.3-0.7s0.4-0.3,0.7-0.3c0.3,0,0.5,0.1,0.7,0.3s0.3,0.4,0.3,0.7v8
			c0,0.3-0.1,0.5-0.3,0.7s-0.4,0.3-0.7,0.3C175.4,177.1,175.2,177,175,176.8z"/>
		<path class="st2" d="M181.9,176.5c-0.8-0.4-1.3-1-1.8-1.8s-0.6-1.6-0.6-2.6c0-1,0.2-1.8,0.6-2.6s1-1.3,1.8-1.8
			c0.8-0.4,1.6-0.6,2.6-0.6c0.9,0,1.8,0.2,2.5,0.6c0.8,0.4,1.3,1,1.8,1.8c0.4,0.8,0.6,1.6,0.6,2.6c0,1-0.2,1.8-0.6,2.6
			c-0.4,0.8-1,1.3-1.8,1.8c-0.8,0.4-1.6,0.6-2.6,0.6S182.6,176.9,181.9,176.5z M186.1,175.1c0.5-0.3,0.9-0.7,1.1-1.2
			c0.3-0.5,0.4-1.1,0.4-1.7c0-0.6-0.1-1.2-0.4-1.7c-0.3-0.5-0.6-0.9-1.1-1.2c-0.5-0.3-1-0.4-1.6-0.4s-1.2,0.1-1.6,0.4
			c-0.5,0.3-0.9,0.7-1.1,1.2c-0.3,0.5-0.4,1.1-0.4,1.7c0,0.6,0.1,1.2,0.4,1.7s0.7,0.9,1.1,1.2c0.5,0.3,1,0.4,1.6,0.4
			S185.6,175.4,186.1,175.1z"/>
		<path class="st2" d="M199.3,167.7c0.7,0.4,1.2,0.9,1.5,1.6c0.4,0.7,0.6,1.5,0.6,2.5v4.4c0,0.3-0.1,0.5-0.3,0.7s-0.4,0.3-0.7,0.3
			c-0.3,0-0.5-0.1-0.7-0.3c-0.2-0.2-0.3-0.4-0.3-0.7v-4.4c0-1-0.3-1.7-0.8-2.2c-0.5-0.5-1.2-0.7-2.1-0.7c-0.5,0-1,0.1-1.4,0.3
			s-0.7,0.5-1,0.8c-0.2,0.3-0.4,0.7-0.4,1.2v5.1c0,0.3-0.1,0.5-0.3,0.7s-0.4,0.3-0.7,0.3c-0.3,0-0.5-0.1-0.7-0.3s-0.3-0.4-0.3-0.7
			v-8c0-0.3,0.1-0.5,0.3-0.7s0.4-0.3,0.7-0.3c0.3,0,0.5,0.1,0.7,0.3s0.3,0.4,0.3,0.7v0.2c0.4-0.4,0.8-0.7,1.4-0.9
			c0.5-0.2,1.1-0.3,1.7-0.3C197.9,167.1,198.6,167.3,199.3,167.7z"/>
	</g>
</g>
</svg>
