<?xml version="1.0" encoding="utf-8"?>
<!-- Generator: Adobe Illustrator 21.1.0, SVG Export Plug-In . SVG Version: 6.00 Build 0)  -->
<svg version="1.1" xmlns="http://www.w3.org/2000/svg" xmlns:xlink="http://www.w3.org/1999/xlink" x="0px" y="0px"
	 viewBox="0 0 238 200" style="enable-background:new 0 0 238 200;" xml:space="preserve">
<style type="text/css">
	.st0{fill:#FFFFFF;}
</style>
<g id="Layer_3">
	<polygon class="st0" points="202,13 150,13 150,39 176,39 176,65 202,65 	"/>
</g>
<g id="Layer_4">
	<path class="st0" d="M150,65V39H41v135h135V65H150z M100,163H41v-20h59V163z M153,143H41v-22h112V143z"/>
</g>
<g id="Layer_2">
	<g>
		<path class="st0" d="M53.7,125v12.8h-1.2v-6h-7.6v6h-1.3V125h1.3v5.7h7.6V125H53.7z"/>
		<path class="st0" d="M57.5,125l4.2,6.9l4.2-6.9h1.4l-5,8v4.8H61V133l-4.9-8H57.5z"/>
		<path class="st0" d="M69.6,137.8V125h5.3c0.6,0,1.1,0.1,1.5,0.4c0.5,0.2,0.9,0.5,1.2,0.9s0.6,0.8,0.8,1.3c0.2,0.5,0.3,1,0.3,1.5
			c0,0.5-0.1,1-0.3,1.5c-0.2,0.5-0.4,0.9-0.8,1.3s-0.7,0.7-1.2,0.9c-0.4,0.2-1,0.3-1.5,0.3h-4.1v4.7H69.6z M70.9,132H75
			c0.4,0,0.7-0.1,1-0.2c0.3-0.2,0.6-0.4,0.8-0.6c0.2-0.3,0.4-0.6,0.5-0.9c0.1-0.4,0.2-0.7,0.2-1.1c0-0.4-0.1-0.8-0.2-1.1
			c-0.1-0.4-0.3-0.7-0.6-0.9c-0.2-0.3-0.5-0.5-0.8-0.6c-0.3-0.1-0.7-0.2-1-0.2h-4V132z"/>
		<path class="st0" d="M89.9,136.7v1.1h-8.6V125h8.4v1.1h-7.2v4.6h6.2v1.1h-6.2v4.9H89.9z"/>
		<path class="st0" d="M92.8,137.8V125h5.4c0.6,0,1.1,0.1,1.5,0.4c0.5,0.2,0.9,0.5,1.2,0.9c0.3,0.4,0.6,0.8,0.8,1.3
			c0.2,0.5,0.3,1,0.3,1.5c0,0.5-0.1,0.9-0.2,1.3c-0.1,0.4-0.3,0.8-0.6,1.2c-0.2,0.3-0.5,0.6-0.9,0.9c-0.3,0.2-0.7,0.4-1.2,0.5
			l3.1,4.9h-1.4l-3-4.7H94v4.7H92.8z M94,132h4.2c0.4,0,0.7-0.1,1-0.2c0.3-0.2,0.6-0.4,0.8-0.7c0.2-0.3,0.4-0.6,0.5-0.9
			c0.1-0.3,0.2-0.7,0.2-1.1c0-0.4-0.1-0.8-0.2-1.1c-0.1-0.4-0.3-0.7-0.6-0.9c-0.2-0.3-0.5-0.5-0.8-0.6c-0.3-0.2-0.7-0.2-1-0.2H94
			V132z"/>
		<path class="st0" d="M105,137.8V125h1.3v11.7h7.4v1.1H105z"/>
		<path class="st0" d="M116,137.8V125h1.3v12.8H116z"/>
		<path class="st0" d="M122.3,127.4v10.4H121V125h1l8.5,10.6V125h1.3v12.8h-1.1L122.3,127.4z"/>
		<path class="st0" d="M135.4,137.8V125h1.3v7.4l7-7.4h1.4l-5.2,5.6l5.5,7.2H144l-4.9-6.4l-2.4,2.5v3.9H135.4z"/>
		<path class="st0" d="M42.8,152.9c0-0.8,0.1-1.5,0.4-2.3c0.3-0.8,0.7-1.4,1.2-2c0.5-0.6,1.2-1.1,1.9-1.5s1.6-0.6,2.6-0.6
			c1.1,0,2.1,0.3,2.9,0.8c0.8,0.5,1.4,1.2,1.8,2l-1,0.6c-0.2-0.4-0.5-0.8-0.7-1.1s-0.6-0.5-0.9-0.7s-0.7-0.3-1-0.4s-0.7-0.1-1.1-0.1
			c-0.8,0-1.4,0.2-2,0.5c-0.6,0.3-1.1,0.7-1.5,1.2c-0.4,0.5-0.7,1.1-0.9,1.7S44,152.4,44,153c0,0.7,0.1,1.4,0.4,2s0.6,1.2,1,1.7
			c0.4,0.5,0.9,0.9,1.5,1.2s1.2,0.4,1.9,0.4c0.4,0,0.7,0,1.1-0.1s0.7-0.2,1.1-0.4s0.7-0.4,1-0.7c0.3-0.3,0.6-0.7,0.8-1.1l1,0.5
			c-0.2,0.5-0.5,0.9-0.9,1.3s-0.8,0.7-1.2,0.9s-0.9,0.4-1.4,0.6s-1,0.2-1.5,0.2c-0.9,0-1.7-0.2-2.4-0.6s-1.4-0.9-1.9-1.5
			c-0.5-0.6-0.9-1.3-1.2-2.1S42.8,153.7,42.8,152.9z"/>
		<path class="st0" d="M61.6,158.4c0.8,0,1.5-0.2,2-0.5c0.5-0.3,1-0.7,1.3-1.2s0.5-1.1,0.7-1.7c0.1-0.6,0.2-1.3,0.2-1.9v-6.4H67v6.4
			c0,0.9-0.1,1.7-0.3,2.5c-0.2,0.8-0.5,1.5-0.9,2c-0.4,0.6-1,1.1-1.7,1.4c-0.7,0.3-1.5,0.5-2.5,0.5c-1,0-1.9-0.2-2.5-0.5
			s-1.2-0.8-1.7-1.4c-0.4-0.6-0.7-1.3-0.9-2.1c-0.2-0.8-0.3-1.6-0.3-2.4v-6.4h1.2v6.4c0,0.7,0.1,1.3,0.2,2c0.1,0.6,0.4,1.2,0.7,1.7
			c0.3,0.5,0.7,0.9,1.3,1.2C60.2,158.2,60.8,158.4,61.6,158.4z"/>
		<path class="st0" d="M80.2,156.1c0,0.5-0.1,0.9-0.3,1.3s-0.4,0.8-0.8,1c-0.3,0.3-0.7,0.5-1.1,0.7s-0.9,0.2-1.4,0.2h-6v-12.8h6.2
			c0.4,0,0.8,0.1,1.2,0.3c0.4,0.2,0.7,0.4,0.9,0.7s0.4,0.7,0.6,1c0.1,0.4,0.2,0.8,0.2,1.2c0,0.6-0.2,1.2-0.5,1.8s-0.8,0.9-1.4,1.2
			c0.7,0.2,1.3,0.6,1.7,1.2C79.9,154.6,80.2,155.3,80.2,156.1z M71.8,147.7v4.7h4.4c0.3,0,0.6-0.1,0.9-0.2s0.5-0.3,0.7-0.5
			c0.2-0.2,0.3-0.5,0.5-0.7c0.1-0.3,0.2-0.6,0.2-0.9c0-0.3-0.1-0.6-0.2-0.9s-0.2-0.5-0.4-0.7c-0.2-0.2-0.4-0.4-0.7-0.5
			s-0.5-0.2-0.8-0.2H71.8z M78.9,155.9c0-0.3-0.1-0.6-0.2-0.9s-0.3-0.6-0.5-0.8c-0.2-0.2-0.4-0.4-0.7-0.5c-0.3-0.1-0.6-0.2-0.9-0.2
			h-4.9v4.8h4.8c0.3,0,0.6-0.1,0.9-0.2c0.3-0.1,0.5-0.3,0.7-0.5c0.2-0.2,0.4-0.5,0.5-0.8S78.9,156.2,78.9,155.9z"/>
		<path class="st0" d="M91.6,158.3v1.1H83v-12.8h8.4v1.1h-7.2v4.6h6.2v1.1h-6.2v4.9H91.6z"/>
	</g>
</g>
</svg>
