<?xml version="1.0" encoding="utf-8"?>
<!-- Generator: Adobe Illustrator 21.1.0, SVG Export Plug-In . SVG Version: 6.00 Build 0)  -->
<svg version="1.1" xmlns="http://www.w3.org/2000/svg" xmlns:xlink="http://www.w3.org/1999/xlink" x="0px" y="0px"
	 viewBox="0 0 238 200" style="enable-background:new 0 0 238 200;" xml:space="preserve">
<style type="text/css">
	.st0{fill:none;stroke:#FFFFFF;stroke-width:3;stroke-miterlimit:10;}
	.st1{fill:none;stroke:#FFFFFF;stroke-width:3;stroke-linecap:round;stroke-miterlimit:10;}
	.st2{fill:#FFFFFF;}
</style>
<g id="Layer_2">
	<path class="st0" d="M193.8,100"/>
	<path class="st1" d="M144.7,181.4c-13.6,7.9-26.3,10.8-43.1,10.8c-50.9,0-92.1-41.2-92.1-92.1S50.7,7.9,101.6,7.9
		c30.3,0,57.2,14.7,74,37.3"/>
	<path class="st2" d="M33.4,40.3L16.1,11.7l42,7.4C58.1,19.1,40,29.7,33.4,40.3z"/>
	<path class="st2" d="M172.4,40.3l17.3-28.6l-42,7.4C147.7,19.1,165.8,29.7,172.4,40.3z"/>
	<line class="st1" x1="120.8" y1="147.9" x2="144.7" y2="181.4"/>
	<path class="st0" d="M173.4,42.2"/>
</g>
<g id="Layer_3">
	<g>
		<path class="st2" d="M52.4,76.6c0,2.6-0.8,4.6-2.5,6.1c-1.6,1.4-3.6,2.2-6,2.2c-2.5,0-4.6-0.8-6.2-2.5l2.6-2.5
			c1,1,2.2,1.5,3.6,1.5c3.1,0,4.6-1.7,4.6-5.1V59.1h3.9V76.6z"/>
		<path class="st2" d="M69.3,84.6v-1.8c-1.2,1.4-2.9,2-4.8,2c-1.8,0-3.3-0.6-4.5-1.7c-1.2-1.2-1.8-2.9-1.8-5.1V66.4h3.7v11.1
			c0,2.7,1.2,4.1,3.7,4.1c1.1,0,2-0.3,2.7-1c0.7-0.7,1.1-1.7,1.1-3.1V66.4h3.7v18.2H69.3z"/>
		<path class="st2" d="M100.9,84.6V73.6c0-2.7-1.2-4.1-3.7-4.1c-1.1,0-1.9,0.3-2.6,1c-0.8,0.7-1.1,1.7-1.1,2.9v11.3h-3.7V73.6
			c0-2.7-1.2-4.1-3.7-4.1c-1.1,0-2,0.3-2.7,1c-0.7,0.7-1.1,1.7-1.1,3.1v11.1h-3.7V66.4h3.6v1.8c1.2-1.4,2.9-2,4.8-2
			c2.3,0,4,0.9,5.2,2.7c1.5-1.8,3.4-2.7,5.7-2.7c1.9,0,3.4,0.6,4.6,1.7c1.3,1.3,1.9,3,1.9,5.1v11.6H100.9z"/>
		<path class="st2" d="M113.8,92h-3.7V66.5h3.6v1.9c1.2-1.4,2.8-2.2,4.8-2.2c1.9,0,3.4,0.5,4.5,1.6c1.4,1.4,2,3.9,2,7.6
			c0,3.8-0.7,6.4-2,7.7c-1.1,1.1-2.5,1.6-4.4,1.6c-0.7,0-1.3-0.1-1.8-0.2v-3.2c0.3,0.1,0.6,0.1,0.9,0.1c1.5,0,2.5-0.6,3.1-1.8
			c0.4-0.9,0.6-2.3,0.6-4.2c0-1.9-0.2-3.3-0.6-4.2c-0.6-1.2-1.6-1.8-3.1-1.8c-1.5,0-2.5,0.6-3.1,1.8c-0.4,0.9-0.6,2.3-0.6,4.2V92z"
			/>
		<path class="st2" d="M152.4,82.9c-1.7,1.3-3.9,2-6.6,2c-3.8,0-6.8-1.1-9-3.4l2.6-2.5c1.6,1.6,3.8,2.4,6.5,2.4
			c3.5,0,5.3-1.3,5.3-3.9c0-1.2-0.3-2.1-1-2.7c-0.6-0.5-1.5-0.9-2.8-1.1l-3-0.4c-2.1-0.3-3.7-1-4.8-2c-1.2-1.2-1.9-2.8-1.9-4.9
			c0-2.2,0.8-4.1,2.3-5.4c1.5-1.4,3.6-2.1,6.2-2.1c3.2,0,5.9,1,7.9,2.9l-2.5,2.4c-1.4-1.3-3.2-2-5.6-2c-1.5,0-2.6,0.4-3.4,1.1
			c-0.8,0.7-1.2,1.7-1.2,2.8c0,1,0.3,1.8,1,2.4c0.7,0.6,1.6,1,2.9,1.2l2.9,0.4c2.1,0.3,3.7,1,4.8,1.9c1.4,1.2,2.1,3,2.1,5.2
			C155,79.7,154.2,81.5,152.4,82.9z"/>
		<path class="st2" d="M173,82.3c-1.6,1.7-3.6,2.6-6,2.6c-2.3,0-4.2-0.7-5.6-2.1c-1.7-1.6-2.5-4-2.5-7.2c0-3.2,0.8-5.6,2.5-7.2
			c1.4-1.4,3.3-2.1,5.6-2.1c2.4,0,4.4,0.8,6,2.5l-2.5,2.4c-1.1-1.1-2.2-1.7-3.5-1.7c-1.4,0-2.6,0.5-3.4,1.6
			c-0.7,0.9-1.1,2.4-1.1,4.4c0,2.1,0.4,3.5,1.1,4.5c0.8,1.1,1.9,1.6,3.4,1.6c1.3,0,2.4-0.6,3.5-1.7L173,82.3z"/>
		<path class="st2" d="M186.8,72.8c0-1.2-0.3-2-0.9-2.5c-0.6-0.6-1.7-0.9-3.1-0.9c-1.7,0-3,0.6-3.9,1.8l-2.4-2.3
			c0.8-1,1.8-1.6,2.8-2c0.9-0.4,2.2-0.5,3.7-0.5c5,0,7.5,2.1,7.5,6.2v12.1h-3.6V83c-1.2,1.2-2.8,1.9-4.8,1.9c-2.2,0-3.8-0.6-4.8-1.7
			c-1-1-1.4-2.3-1.4-3.9c0-1.6,0.5-2.8,1.6-3.7c1.1-1,2.7-1.5,4.7-1.5h1.8v2.5h-1.2c-2.2,0-3.3,0.9-3.3,2.6c0,1.7,1.1,2.6,3.3,2.6
			c1.6,0,2.7-0.3,3.4-1c0.5-0.5,0.8-1.4,0.8-2.7V72.8z"/>
		<path class="st2" d="M206.1,70.7c-0.8-0.8-1.7-1.2-2.7-1.2c-1,0-1.9,0.4-2.5,1.1c-0.7,0.8-1.1,1.8-1.1,3v11.1h-3.7V66.4h3.6v2
			c1.1-1.5,2.7-2.2,4.8-2.2c1.7,0,3.2,0.6,4.3,1.7L206.1,70.7z"/>
		<path class="st2" d="M213.3,77.2c0.1,1.4,0.5,2.5,1.3,3.3c0.8,0.8,1.9,1.3,3.3,1.3c1.7,0,3.2-0.6,4.4-1.9l2.3,2.2
			c-1.9,1.9-4.1,2.8-6.8,2.8c-2.5,0-4.4-0.7-5.8-2.1c-1.6-1.6-2.4-4-2.4-7.3c0-2.9,0.7-5.2,2.1-6.9c1.4-1.6,3.3-2.4,5.6-2.4
			c2.4,0,4.3,0.8,5.7,2.4c1.4,1.6,2,3.7,2,6.3v1.7h-8.9v-2.6h5.3c0-0.9-0.2-1.8-0.5-2.5c-0.6-1.5-1.9-2.3-3.6-2.3s-3,0.8-3.6,2.3
			c-0.2,0.6-0.4,1.2-0.4,1.9V77.2z"/>
		<path class="st2" d="M49.2,105.6v22.1h-3.9v-22.1h-7v-3.5h17.9v3.5H49.2z"/>
		<path class="st2" d="M60.1,105.9v-3.9H64v3.9H60.1z M60.2,127.7v-18.2h3.7v18.2H60.2z"/>
		<path class="st2" d="M91.9,127.7v-11.1c0-2.7-1.2-4.1-3.7-4.1c-1.1,0-1.9,0.3-2.6,1c-0.8,0.7-1.1,1.7-1.1,2.9v11.3h-3.7v-11.1
			c0-2.7-1.2-4.1-3.7-4.1c-1.1,0-2,0.3-2.7,1c-0.7,0.7-1.1,1.7-1.1,3.1v11.1h-3.7v-18.2h3.6v1.8c1.2-1.4,2.9-2,4.8-2
			c2.3,0,4,0.9,5.2,2.7c1.5-1.8,3.4-2.7,5.7-2.7c1.9,0,3.4,0.6,4.6,1.7c1.3,1.3,1.9,3,1.9,5.1v11.6H91.9z"/>
		<path class="st2" d="M103.8,120.3c0.1,1.4,0.5,2.5,1.3,3.3c0.8,0.8,1.9,1.3,3.3,1.3c1.7,0,3.2-0.6,4.4-1.9l2.3,2.2
			c-1.9,1.9-4.1,2.8-6.8,2.8c-2.5,0-4.4-0.7-5.8-2.1c-1.6-1.6-2.4-4-2.4-7.3c0-2.9,0.7-5.2,2.1-6.9c1.4-1.6,3.3-2.4,5.6-2.4
			c2.4,0,4.3,0.8,5.7,2.4c1.4,1.6,2,3.7,2,6.3v1.7h-8.9v-2.6h5.3c0-0.9-0.2-1.8-0.5-2.5c-0.6-1.5-1.9-2.3-3.6-2.3s-3,0.8-3.6,2.3
			c-0.2,0.6-0.4,1.2-0.4,1.9V120.3z"/>
		<path class="st2" d="M130.5,113.8c-0.8-0.8-1.7-1.2-2.7-1.2c-1,0-1.9,0.4-2.5,1.1c-0.7,0.8-1.1,1.8-1.1,3v11.1h-3.7v-18.2h3.6v2
			c1.1-1.5,2.7-2.2,4.8-2.2c1.7,0,3.2,0.6,4.3,1.7L130.5,113.8z"/>
	</g>
</g>
</svg>
