<?xml version="1.0" encoding="utf-8"?>
<!-- Generator: Adobe Illustrator 21.1.0, SVG Export Plug-In . SVG Version: 6.00 Build 0)  -->
<svg version="1.1" id="Layer_1" xmlns="http://www.w3.org/2000/svg" xmlns:xlink="http://www.w3.org/1999/xlink" x="0px" y="0px"
	 viewBox="0 0 238 200" style="enable-background:new 0 0 238 200;" xml:space="preserve">
<style type="text/css">
	.st0{fill:#FFFFFF;}
</style>
<g>
	<path d="M196.7,12.3c6.9,0,13.6-0.4,20.2,0.1c6.2,0.4,10.3,5.4,10.8,11.7c0.5,6.2-2.9,11.3-8.7,13.1c-2.5,0.7-5.1,1-8,1.5
		c5.7,7.5,11.4,14.9,17.1,22.3c-4.1,1.3-5.5,0.8-7.9-2.3c-4.8-6.3-9.6-12.6-14.5-18.7c-0.7-0.9-2.2-1.4-3.3-2
		c-0.3,0.2-0.5,0.4-0.8,0.6c0,16.8,0,33.5,0,50.4c-1.8,0-3.3,0-4.9,0C196.7,63.3,196.7,37.7,196.7,12.3z M201.9,33.5
		c4.9-0.3,9.7-0.2,14.4-0.8c4-0.5,6.3-3.8,6.3-7.8c0-4-2.5-7.1-6.5-7.6c-4.6-0.5-9.3-0.5-14.1-0.7C201.9,22.4,201.9,27.7,201.9,33.5
		z"/>
	<path d="M65.8,61.3c-1.7,0-3.1,0-4.9,0c-1.6-11.5-3.2-23-4.9-35.3c-0.7,1.2-1.1,1.8-1.4,2.4c-5,10.3-10,20.6-15.1,30.9
		c-0.4,0.7-1.1,1.3-1.6,2c-0.6-0.6-1.3-1.2-1.7-1.9c-5.1-10.2-10.1-20.4-15.1-30.6c-0.4-0.8-0.8-1.6-1.6-3
		c-1.6,12.2-3.2,23.7-4.8,35.3c-1.6,0-3.1,0-4.8,0c2.3-16.5,4.6-32.9,6.9-49.3c0.3-0.1,0.6-0.2,0.9-0.3C24.4,25.1,31,38.6,37.9,52.5
		c6.7-13.9,13.2-27.3,19.8-40.8c0.3,0,0.7,0,1,0.1C61.1,28.2,63.4,44.7,65.8,61.3z"/>
	<path d="M181.9,49.9c1.3,0.7,2.5,1.3,3.6,1.9c-3.3,8.1-13.9,12.3-23.6,9.4c-8.9-2.7-14.2-12.1-12.3-21.9
		c1.8-9.6,10.8-15.8,20.9-14.7c9.7,1.1,16.6,9,16.4,19.2c-10.9,0-21.8,0-32.7,0c0.1,6.2,3.3,11.1,8.6,12.8
		C170.8,59.1,177.1,56.6,181.9,49.9z M181.6,39.3c-1.5-6.7-7-10.6-14.2-10.4c-6.4,0.2-11.5,4.5-12.4,10.4
		C163.8,39.3,172.6,39.3,181.6,39.3z"/>
	<path d="M106.7,31.1c0-2.2,0-3.9,0-5.8c1.6,0,3,0,4.6,0c0,12,0,24,0,36.1c-1.5,0-2.8,0-4.4,0c0-1.7,0-3.4,0-6
		c-4.8,5-10.1,7.1-16.2,6.6c-6.2-0.5-11-3.4-14.4-8.5c-5.1-7.6-3.6-18.1,3.4-24.3C87.2,22.4,97.2,23,106.7,31.1z M92.8,28.9
		c-8.1-0.1-14.8,6.2-14.9,14.2c-0.1,7.8,6.5,14.4,14.3,14.5c8.2,0.1,14.5-5.9,14.8-13.9C107.2,35.6,100.9,29,92.8,28.9z"/>
	<path d="M145.6,25.2c-6.8,10.6-13.4,21-20.3,31.7c6.7,0,13,0,19.6,0c0,1.6,0,2.9,0,4.4c-9.2,0-18.4,0-28.1,0
		c6.8-10.6,13.4-21,20.4-31.9c-6.4,0-12.4,0-18.4,0c0-1.5,0-2.8,0-4.2C127.6,25.2,136.4,25.2,145.6,25.2z"/>
	<path d="M201.3,200c-1.6,0-3.1,0-4.6,0c0-20.1,0-40,0-60.1c1.6,0,3,0,4.6,0C201.3,159.9,201.3,179.8,201.3,200z"/>
	<path class="st0" d="M201.9,33.5c0-5.8,0-11.2,0-17c4.8,0.2,9.5,0.2,14.1,0.7c4.1,0.5,6.5,3.6,6.5,7.6c0,4-2.3,7.3-6.3,7.8
		C211.6,33.3,206.8,33.3,201.9,33.5z"/>
	<path class="st0" d="M181.6,39.3c-9,0-17.8,0-26.6,0c0.9-5.9,6.1-10.1,12.4-10.4C174.5,28.6,180.1,32.6,181.6,39.3z"/>
	<path class="st0" d="M92.8,28.9c8.1,0.1,14.4,6.7,14.2,14.8c-0.2,8-6.6,14-14.8,13.9c-7.8-0.1-14.4-6.7-14.3-14.5
		C78,35.1,84.7,28.8,92.8,28.9z"/>
</g>
<circle cx="163.5" cy="112.5" r="3.5"/>
</svg>
