<?xml version="1.0" encoding="utf-8"?>
<!-- Generator: Adobe Illustrator 21.1.0, SVG Export Plug-In . SVG Version: 6.00 Build 0)  -->
<svg version="1.1" id="Layer_1" xmlns="http://www.w3.org/2000/svg" xmlns:xlink="http://www.w3.org/1999/xlink" x="0px" y="0px"
	 viewBox="0 0 200 200" style="enable-background:new 0 0 200 200;" xml:space="preserve">
<style type="text/css">
	.st0{fill:#FFFFFF;}
</style>
<g>
	<g>
		<path class="st0" d="M18.5,121.1c0.4,3.1,0.7,3.4,3.8,3.4c9.2,0,18.4,0,27.5,0c2.2,0,2.9-0.7,2.9-2.8c0-6.6,0-13.3,0-19.9
			c0-0.6-0.3-1.2-0.5-1.7c-0.2,0-0.4,0-0.6,0.1c-0.1,0.7-0.3,1.4-0.3,2.1c0,6.3,0,12.6,0,18.9c0,1.2-0.2,1.9-1.6,1.9
			c-9.4,0-18.7,0-28.1,0c-1.5,0-1.7-0.7-1.4-2.1c0.7,0,1.4,0,2.1,0c4.8,0,9.6,0,14.3,0c2,0,3.6-0.4,5-2c1.9-2.2,4.1-4,6-6.2
			c0.7-0.8,1.2-2,1.2-3c0.1-9,0.1-18,0.1-27c0-0.7,0-1.5,0-2.1c1.8-0.4,2.4,0.2,2.4,1.7c-0.1,3.5,0,7,0,10.5c0,1.7,0,3.3,0,5
			c0,0.3,0.4,0.6,0.6,1c0.2-0.3,0.6-0.6,0.7-1c0.1-0.5,0.1-1,0.1-1.5c0-4.4,0-8.8,0-13.2c0-3.5-0.2-3.7-3.6-4.3
			c-0.7-3.3-0.8-3.4-4.3-3.4c-8.7,0-17.5,0-26.2,0c-3.5,0-3.9,0.4-3.9,3.8c0,12.5,0,25,0,37.5C14.8,120.4,15,120.6,18.5,121.1z"/>
		<path class="st0" d="M18.5,121.1c-3.5-0.5-3.7-0.7-3.7-4.3c0-12.5,0-25,0-37.5c0-3.4,0.4-3.8,3.9-3.8c8.7,0,17.5,0,26.2,0
			c3.5,0,3.6,0.1,4.3,3.4c3.4,0.6,3.6,0.8,3.6,4.3c0,4.4,0,8.8,0,13.2c0,0.5,0.1,1-0.1,1.5c-0.1,0.4-0.5,0.6-0.7,1
			c-0.2-0.3-0.6-0.6-0.6-1c-0.1-1.7,0-3.3,0-5c0-3.5,0-7,0-10.5c0-1.6-0.6-2.1-2.4-1.7c0,0.7,0,1.4,0,2.1c0,9,0,18-0.1,27
			c0,1-0.5,2.2-1.2,3c-1.9,2.1-4.1,4-6,6.2c-1.4,1.6-3,2.1-5,2c-4.8,0-9.6,0-14.3,0c-0.7,0-1.4,0-2.1,0c-0.4,1.4-0.1,2.1,1.4,2.1
			c9.4,0,18.7,0,28.1,0c1.5,0,1.7-0.7,1.6-1.9c0-6.3,0-12.6,0-18.9c0-0.7,0.2-1.4,0.3-2.1c0.2,0,0.4,0,0.6-0.1
			c0.2,0.6,0.5,1.2,0.5,1.7c0,6.6,0,13.3,0,19.9c0,2.2-0.7,2.8-2.9,2.8c-9.2,0-18.4,0-27.5,0C19.2,124.5,18.9,124.2,18.5,121.1z
			 M47.4,110.6c0.1-0.5,0.2-0.7,0.2-1c0-10.3,0-20.7,0-31c0-1.6-0.9-1.7-2.1-1.7c-9.1,0-18.1,0-27.2,0c-1.5,0-2.1,0.4-2.1,2
			c0.1,12.8,0.1,25.6,0,38.4c0,1.6,0.5,2.1,2.1,2.1c6.2-0.1,12.5,0,18.7,0c0.5,0,1-0.1,1.6-0.2c0-2,0-3.9,0-5.8
			c0-2.3,0.6-2.8,2.8-2.9C43.4,110.6,45.4,110.6,47.4,110.6z M46,112c-1.6,0-3.1-0.1-4.5,0.1c-0.5,0.1-1.4,0.7-1.4,1.2
			c-0.2,1.5-0.1,3.1-0.1,4.7C42.1,115.9,44,114,46,112z"/>
		<path class="st0" d="M47.4,110.6c-2,0-3.9,0-5.9,0c-2.3,0-2.8,0.6-2.8,2.9c0,1.9,0,3.8,0,5.8c-0.6,0.1-1.1,0.2-1.6,0.2
			c-6.2,0-12.5,0-18.7,0c-1.6,0-2.1-0.5-2.1-2.1c0-12.8,0.1-25.6,0-38.4c0-1.7,0.6-2,2.1-2c9.1,0.1,18.1,0,27.2,0
			c1.2,0,2.1,0,2.1,1.7c-0.1,10.3,0,20.7,0,31C47.5,109.9,47.4,110.1,47.4,110.6z M21.1,94.5c-0.3-0.6-0.6-0.8-0.6-1.1
			c0-3.8-0.1-7.5,0-11.3c0-0.4,1-1.1,1.5-1.1c2.3-0.1,4.6,0,6.9-0.1c1.5-0.1,2.3,0.4,2.1,2.1c0,0.4,0.3,0.8,0.4,1.2
			c0.2,0,0.5-0.1,0.7-0.1c0-1.1,0.3-2.3-0.1-3.3c-0.2-0.6-1.4-1.2-2.1-1.2c-2.9-0.1-5.7-0.1-8.6-0.1c-1.5,0-2.3,0.8-2.4,2.2
			c-0.1,3.9-0.1,7.8,0,11.7c0,1.4,0.8,2.3,2.3,2.3c2.9,0,5.9,0,8.8,0c1.3,0,2.2-0.8,2.2-2.1c0.1-2.4,0.1-4.7,0-7.1
			c0-0.4-0.5-0.8-0.7-1.1c-0.2,0.4-0.6,0.8-0.6,1.2c-0.1,2,0,4-0.1,5.9c0,0.6-0.3,1.1-0.4,1.7c-1.1-4.4-1.2-4.5-3.4-4.5
			C22.4,89.5,22.4,89.5,21.1,94.5z M34,99.7c3.1,0,6.2,0,9.3,0c0.4,0,0.8-0.4,1.2-0.6c-0.4-0.3-0.8-0.8-1.3-0.8
			c-6.2-0.1-12.3-0.1-18.5,0c-0.4,0-0.9,0.5-1.3,0.7c0.5,0.2,0.9,0.6,1.4,0.6C27.9,99.7,31,99.7,34,99.7z M34.2,108.2
			c2.9,0,5.9,0,8.8,0c0.6,0,1.1-0.5,1.7-0.7c-0.5-0.2-1.1-0.6-1.6-0.6c-6,0-12,0-17.9,0c-0.5,0-1.1,0.4-1.6,0.6
			c0.6,0.3,1.1,0.7,1.7,0.7C28.2,108.3,31.2,108.2,34.2,108.2z M23.4,103c0,0.2,0,0.4,0,0.6c0.6,0.1,1.1,0.3,1.7,0.3
			c6,0,11.9,0,17.9,0c0.5,0,1.1-0.4,1.6-0.6c-0.6-0.2-1.1-0.7-1.7-0.7c-5.9-0.1-11.8,0-17.7,0C24.6,102.6,24,102.8,23.4,103z
			 M28.8,85.9c0-1.6-1.5-3-3.1-2.9c-1.6,0.1-2.9,1.4-2.9,2.9c0,1.6,1.4,3,3,3C27.4,89,28.8,87.6,28.8,85.9z"/>
		<path class="st0" d="M46,112c-2.1,2.1-4,3.9-6,6c0-1.6-0.1-3.1,0.1-4.7c0.1-0.5,0.9-1.2,1.4-1.2C43,111.8,44.4,112,46,112z"/>
		<path class="st0" d="M21.1,94.5c1.3-5,1.3-5,6.2-4.8c2.1,0.1,2.2,0.2,3.4,4.5c0.1-0.6,0.4-1.1,0.4-1.7c0.1-2,0-4,0.1-5.9
			c0-0.4,0.4-0.8,0.6-1.2c0.2,0.4,0.7,0.7,0.7,1.1c0.1,2.4,0.1,4.7,0,7.1c0,1.3-0.9,2.1-2.2,2.1c-2.9,0-5.9,0-8.8,0
			c-1.5,0-2.3-0.9-2.3-2.3c-0.1-3.9-0.1-7.8,0-11.7c0-1.4,0.9-2.2,2.4-2.2c2.9,0,5.7-0.1,8.6,0.1c0.7,0,1.9,0.6,2.1,1.2
			c0.4,1,0.1,2.2,0.1,3.3c-0.2,0-0.5,0.1-0.7,0.1c-0.2-0.4-0.5-0.8-0.4-1.2c0.2-1.7-0.6-2.1-2.1-2.1c-2.3,0.1-4.6,0-6.9,0.1
			c-0.6,0-1.5,0.7-1.5,1.1c-0.1,3.8-0.1,7.5,0,11.3C20.5,93.7,20.8,94,21.1,94.5z M22.7,94.2c2.2,0,4,0,6.1,0
			c-0.3-1.1-0.4-2.7-0.7-2.7c-1.6-0.3-3.3-0.2-4.8,0C23,91.5,22.9,93.1,22.7,94.2z"/>
		<path class="st0" d="M34,99.7c-3.1,0-6.1,0-9.2,0c-0.5,0-0.9-0.4-1.4-0.6c0.4-0.2,0.9-0.7,1.3-0.7c6.2,0,12.3,0,18.5,0
			c0.4,0,0.8,0.5,1.3,0.8c-0.4,0.2-0.8,0.6-1.2,0.6C40.2,99.7,37.1,99.7,34,99.7z"/>
		<path class="st0" d="M34.2,108.2c-3,0-6,0-9,0c-0.6,0-1.1-0.5-1.7-0.7c0.5-0.2,1.1-0.6,1.6-0.6c6,0,12,0,17.9,0
			c0.5,0,1.1,0.4,1.6,0.6c-0.6,0.3-1.1,0.7-1.7,0.7C40,108.3,37.1,108.2,34.2,108.2z"/>
		<path class="st0" d="M23.4,103c0.6-0.1,1.2-0.4,1.8-0.4c5.9,0,11.8,0,17.7,0c0.6,0,1.1,0.5,1.7,0.7c-0.5,0.2-1.1,0.6-1.6,0.6
			c-6,0-11.9,0-17.9,0c-0.6,0-1.1-0.2-1.7-0.3C23.4,103.4,23.4,103.2,23.4,103z"/>
		<path class="st0" d="M28.8,85.9c0,1.6-1.3,3-3,3c-1.7,0-3.1-1.3-3-3c0-1.6,1.3-2.9,2.9-2.9C27.3,83,28.7,84.3,28.8,85.9z M28,85.9
			c-1.1-0.7-1.8-1.5-2.3-1.4c-0.6,0.1-1.4,1-1.4,1.5c0,0.5,0.9,1.4,1.5,1.4C26.3,87.5,27,86.7,28,85.9z"/>
		<path class="st0" d="M22.7,94.2c0.2-1,0.3-2.6,0.6-2.7c1.6-0.3,3.3-0.3,4.8,0c0.3,0.1,0.4,1.6,0.7,2.7
			C26.7,94.2,24.9,94.2,22.7,94.2z"/>
		<path class="st0" d="M28,85.9c-1.1,0.8-1.7,1.6-2.2,1.5c-0.6,0-1.5-0.9-1.5-1.4c0-0.5,0.8-1.4,1.4-1.5
			C26.2,84.4,26.9,85.2,28,85.9z"/>
	</g>
	<g>
		<path class="st0" d="M73,107.5V87.3h9c1.8,0,3.2,0.2,4.1,0.5c0.9,0.4,1.7,1,2.2,1.9c0.6,0.9,0.8,1.9,0.8,3c0,1.4-0.5,2.6-1.4,3.6
			c-0.9,1-2.4,1.6-4.3,1.9c0.7,0.3,1.2,0.7,1.6,1c0.8,0.7,1.5,1.6,2.2,2.7l3.5,5.5h-3.4l-2.7-4.2c-0.8-1.2-1.4-2.1-1.9-2.8
			c-0.5-0.6-1-1.1-1.4-1.4c-0.4-0.3-0.8-0.4-1.2-0.5c-0.3-0.1-0.8-0.1-1.5-0.1h-3.1v9H73z M75.7,96.2h5.8c1.2,0,2.2-0.1,2.9-0.4
			c0.7-0.3,1.2-0.7,1.6-1.2c0.4-0.6,0.5-1.2,0.5-1.8c0-1-0.3-1.7-1-2.4s-1.8-0.9-3.3-0.9h-6.4V96.2z"/>
		<path class="st0" d="M104.6,102.8l2.6,0.3c-0.4,1.5-1.2,2.7-2.2,3.5c-1.1,0.8-2.5,1.2-4.2,1.2c-2.1,0-3.8-0.7-5.1-2
			c-1.3-1.3-1.9-3.2-1.9-5.6c0-2.5,0.6-4.4,1.9-5.7c1.3-1.4,2.9-2,4.9-2c2,0,3.6,0.7,4.8,2c1.2,1.3,1.9,3.2,1.9,5.6
			c0,0.1,0,0.4,0,0.7H96.3c0.1,1.6,0.5,2.8,1.4,3.7c0.8,0.9,1.8,1.3,3.1,1.3c0.9,0,1.7-0.2,2.3-0.7
			C103.7,104.6,104.3,103.9,104.6,102.8z M96.5,98.8h8.2c-0.1-1.2-0.4-2.2-0.9-2.8c-0.8-1-1.8-1.4-3.1-1.4c-1.1,0-2.1,0.4-2.9,1.1
			C97,96.5,96.6,97.5,96.5,98.8z"/>
		<path class="st0" d="M110.8,103.2l2.5-0.4c0.1,1,0.5,1.7,1.2,2.3c0.6,0.5,1.5,0.8,2.6,0.8c1.1,0,2-0.2,2.5-0.7
			c0.6-0.5,0.8-1,0.8-1.6c0-0.6-0.2-1-0.7-1.3c-0.3-0.2-1.2-0.5-2.5-0.8c-1.8-0.5-3.1-0.9-3.8-1.2c-0.7-0.3-1.2-0.8-1.6-1.4
			s-0.5-1.2-0.5-2c0-0.7,0.2-1.3,0.4-1.8c0.3-0.6,0.7-1,1.2-1.4c0.4-0.3,0.9-0.5,1.6-0.7c0.7-0.2,1.4-0.3,2.1-0.3
			c1.2,0,2.2,0.2,3,0.5s1.5,0.8,1.9,1.3c0.4,0.6,0.7,1.3,0.9,2.3L120,97c-0.1-0.8-0.4-1.3-1-1.8c-0.5-0.4-1.3-0.6-2.2-0.6
			c-1.1,0-2,0.2-2.4,0.6c-0.5,0.4-0.7,0.8-0.7,1.3c0,0.3,0.1,0.6,0.3,0.9c0.2,0.3,0.5,0.5,1,0.7c0.2,0.1,1,0.3,2.2,0.6
			c1.8,0.5,3,0.9,3.7,1.2c0.7,0.3,1.2,0.7,1.6,1.3c0.4,0.6,0.6,1.3,0.6,2.1c0,0.8-0.2,1.6-0.7,2.3s-1.2,1.3-2.1,1.7
			c-0.9,0.4-1.9,0.6-3.1,0.6c-1.9,0-3.4-0.4-4.4-1.2S111.1,104.7,110.8,103.2z"/>
		<path class="st0" d="M137.1,107.5v-2.2c-1.1,1.7-2.7,2.5-4.6,2.5c-0.9,0-1.7-0.2-2.4-0.5c-0.8-0.3-1.3-0.7-1.7-1.2
			s-0.6-1.1-0.8-1.8c-0.1-0.5-0.2-1.3-0.2-2.3v-9.1h2.5v8.1c0,1.3,0,2.2,0.2,2.6c0.2,0.7,0.5,1.2,1,1.5c0.5,0.4,1.1,0.6,1.9,0.6
			s1.4-0.2,2.1-0.6s1.1-0.9,1.4-1.6c0.3-0.7,0.4-1.6,0.4-2.9v-7.9h2.5v14.7H137.1z"/>
		<path class="st0" d="M144.7,107.5V92.9h2.2v2.1c0.5-0.7,1.1-1.3,1.8-1.7c0.8-0.4,1.6-0.7,2.6-0.7c1.1,0,2,0.2,2.7,0.7
			c0.7,0.5,1.2,1.1,1.5,1.9c1.2-1.7,2.7-2.6,4.5-2.6c1.5,0,2.6,0.4,3.4,1.2c0.8,0.8,1.2,2,1.2,3.7v10.1h-2.5v-9.2
			c0-1-0.1-1.7-0.2-2.1c-0.2-0.4-0.5-0.8-0.9-1.1s-0.9-0.4-1.5-0.4c-1,0-1.9,0.3-2.6,1c-0.7,0.7-1,1.8-1,3.3v8.5h-2.5V98
			c0-1.1-0.2-1.9-0.6-2.5c-0.4-0.6-1.1-0.8-2-0.8c-0.7,0-1.3,0.2-1.9,0.6c-0.6,0.4-1,0.9-1.3,1.6c-0.3,0.7-0.4,1.7-0.4,3.1v7.6
			H144.7z"/>
		<path class="st0" d="M179.8,102.8l2.6,0.3c-0.4,1.5-1.2,2.7-2.2,3.5c-1.1,0.8-2.5,1.2-4.2,1.2c-2.1,0-3.8-0.7-5.1-2
			c-1.3-1.3-1.9-3.2-1.9-5.6c0-2.5,0.6-4.4,1.9-5.7c1.3-1.4,2.9-2,4.9-2c2,0,3.6,0.7,4.8,2c1.2,1.3,1.9,3.2,1.9,5.6
			c0,0.1,0,0.4,0,0.7h-10.9c0.1,1.6,0.5,2.8,1.4,3.7s1.8,1.3,3.1,1.3c0.9,0,1.7-0.2,2.3-0.7C178.9,104.6,179.4,103.9,179.8,102.8z
			 M171.7,98.8h8.2c-0.1-1.2-0.4-2.2-0.9-2.8c-0.8-1-1.8-1.4-3.1-1.4c-1.1,0-2.1,0.4-2.9,1.1C172.2,96.5,171.8,97.5,171.7,98.8z"/>
	</g>
</g>
</svg>
