<?xml version="1.0" encoding="utf-8"?>
<!-- Generator: Adobe Illustrator 21.1.0, SVG Export Plug-In . SVG Version: 6.00 Build 0)  -->
<svg version="1.1" xmlns="http://www.w3.org/2000/svg" xmlns:xlink="http://www.w3.org/1999/xlink" x="0px" y="0px"
	 viewBox="0 0 238 200" style="enable-background:new 0 0 238 200;" xml:space="preserve">
<style type="text/css">
	.st0{fill:#F5F5F5;}
	.st1{fill:#823434;}
	.st2{fill:#EFB143;}
	.st3{fill:#F2DB8D;}
	.st4{fill:none;}
	.st5{fill:none;stroke:#F7931E;stroke-width:3;stroke-miterlimit:10;}
</style>
<g id="Layer_2">
	<g id="Layer_2_1_">
		<g id="XMLID_1_">
			<g>
				<g id="XMLID_2_">
					<g>
						<path class="st0" d="M210.5,63.5l-21.4,27.6v27l8.8,3.4h-9.6h-9.6l8.6-3.4l0.2-27L166,63.5h2.6l1.9,2.3l16.3,20
							c0,0,1.5,1.7,3,0l16.3-20l1.9-2.3C207.9,63.5,210.5,63.5,210.5,63.5z"/>
						<path class="st1" d="M206.1,65.8l-16.3,20c-1.5,1.7-3,0-3,0l-16.3-20l0,0h18.3c0,0.3-0.1,0.6-0.1,0.9c0,3.6,2.9,6.4,6.4,6.4
							c3.6,0,6.4-2.9,6.4-6.4c0-0.3,0-0.6-0.1-0.9L206.1,65.8L206.1,65.8z"/>
						<path class="st2" d="M201.5,65.8c0,0.3,0.1,0.6,0.1,0.9c0,3.6-2.9,6.4-6.4,6.4c-3.6,0-6.4-2.9-6.4-6.4c0-0.3,0-0.6,0.1-0.9
							c0.4-3.1,3.1-5.5,6.4-5.5C198.3,60.3,201,62.7,201.5,65.8z M195.6,66.9l2.4-0.6l-2.5,0.2l0.3-0.7l0.7-1.6l-1.1,1.6l-0.3,0.4
							l-0.2-0.4L194,64l0.5,1.8l0.2,0.6l-2.5-0.5l2.3,0.9l-1.9,1.6l2.2-1.2l0,2.5l0.4-2.5l2,1.5L195.6,66.9z"/>
						<polygon class="st3" points="198,66.3 195.6,66.9 197.3,68.7 195.3,67.2 194.9,69.7 194.9,67.2 192.7,68.4 194.6,66.8 
							192.3,65.9 194.7,66.4 194.6,65.8 194,64 194.9,65.8 195.1,66.2 195.4,65.8 196.6,64.2 195.8,65.8 195.5,66.5 						"/>
					</g>
					<g>
						<line class="st4" x1="201.5" y1="65.8" x2="206" y2="65.8"/>
						<path class="st5" d="M201.5,65.8c0,0.3,0.1,0.6,0.1,0.9c0,3.6-2.9,6.4-6.4,6.4c-3.6,0-6.4-2.9-6.4-6.4c0-0.3,0-0.6,0.1-0.9
							c0.4-3.1,3.1-5.5,6.4-5.5C198.3,60.3,201,62.7,201.5,65.8z"/>
					</g>
				</g>
			</g>
		</g>
	</g>
</g>
<g id="Layer_3">
	<g>
		<path class="st0" d="M39.2,72H22.8V66h39.9V72H46.2v48h-7V72z"/>
		<path class="st0" d="M75.6,66V120h-7V66H75.6z"/>
		<path class="st0" d="M87.8,66.7c3.4-0.6,7.8-1,13.4-1c6.9,0,11.9,1.6,15.1,4.5c3,2.6,4.7,6.5,4.7,11.3c0,4.9-1.4,8.7-4.2,11.5
			c-3.7,3.9-9.7,5.9-16.5,5.9c-2.1,0-4-0.1-5.6-0.5V120h-7V66.7z M94.8,92.7c1.5,0.4,3.4,0.6,5.8,0.6c8.4,0,13.5-4.1,13.5-11.5
			c0-7.1-5-10.6-12.7-10.6c-3,0-5.4,0.2-6.6,0.6V92.7z"/>
		<path class="st0" d="M129.4,111.5c3.1,1.9,7.7,3.5,12.5,3.5c7.1,0,11.3-3.8,11.3-9.2c0-5-2.9-7.9-10.2-10.7
			c-8.8-3.1-14.2-7.7-14.2-15.3c0-8.4,7-14.6,17.4-14.6c5.5,0,9.5,1.3,11.9,2.6l-1.9,5.7c-1.8-1-5.4-2.6-10.2-2.6
			c-7.4,0-10.2,4.4-10.2,8.1c0,5,3.3,7.5,10.7,10.4c9.1,3.5,13.8,7.9,13.8,15.8c0,8.3-6.2,15.5-18.9,15.5c-5.2,0-10.9-1.5-13.8-3.4
			L129.4,111.5z"/>
	</g>
</g>
</svg>
