<?xml version="1.0" encoding="utf-8"?>
<!-- Generator: Adobe Illustrator 21.1.0, SVG Export Plug-In . SVG Version: 6.00 Build 0)  -->
<svg version="1.1" id="Layer_1" xmlns="http://www.w3.org/2000/svg" xmlns:xlink="http://www.w3.org/1999/xlink" x="0px" y="0px"
	 viewBox="0 0 238 200" style="enable-background:new 0 0 238 200;" xml:space="preserve">
<style type="text/css">
	.st0{fill:#FFFFFF;}
</style>
<g>
	<path class="st0" d="M37.1,106.1c-0.4,0.4-0.8,0.9-1.2,1.3c-2.9,2.9-6.5,4.4-10.7,4.4s-7.7-1.5-10.7-4.4c-2.9-2.9-4.4-6.5-4.4-10.7
		V81.6h6.5v15.1c0,2.4,0.8,4.4,2.5,6.1c1.7,1.7,3.7,2.5,6.1,2.5c2.4,0,4.4-0.8,6.1-2.5c1.7-1.7,2.5-3.7,2.5-6.1V81.6h6.5v15.1
		c0,2.4,0.8,4.4,2.5,6.1c1.7,1.7,3.7,2.5,6.1,2.5s4.4-0.8,6.1-2.5c1.7-1.7,2.5-3.7,2.5-6.1V81.6H64v15.1c0,4.2-1.5,7.7-4.4,10.7
		c-2.9,2.9-6.5,4.4-10.7,4.4c-4.2,0-7.7-1.5-10.7-4.4C37.8,107,37.5,106.5,37.1,106.1z"/>
	<path class="st0" d="M74.8,96.7v15.1h-6.5V73h6.5v11.3c2.5-1.8,5.4-2.7,8.6-2.7c4.2,0,7.7,1.5,10.7,4.4c2.9,2.9,4.4,6.5,4.4,10.7
		v15.1h-6.5V96.7c0-2.4-0.8-4.4-2.5-6.1c-1.7-1.7-3.7-2.5-6.1-2.5c-2.4,0-4.4,0.8-6.1,2.5C75.7,92.3,74.8,94.4,74.8,96.7z"/>
	<path class="st0" d="M102.8,96.7V81.6h6.5v15.1c0,2.4,0.8,4.4,2.5,6.1c1.7,1.7,3.7,2.5,6.1,2.5s4.4-0.8,6.1-2.5
		c1.7-1.7,2.5-3.7,2.5-6.1V81.6h6.5v30.2c0,4.2-1.5,7.7-4.4,10.7s-6.5,4.4-10.7,4.4v-6.5c2.4,0,4.4-0.8,6.1-2.5
		c1.7-1.7,2.5-3.7,2.5-6.1v-2.7c-2.5,1.8-5.4,2.7-8.6,2.7c-4.2,0-7.7-1.5-10.7-4.4C104.3,104.5,102.8,100.9,102.8,96.7z"/>
	<path class="st0" d="M176,107.4c-2.9,2.9-6.5,4.4-10.7,4.4c-4.2,0-7.7-1.5-10.7-4.4c-2.9-2.9-4.4-6.5-4.4-10.7
		c0-4.2,1.5-7.7,4.4-10.7c2.9-2.9,6.5-4.4,10.7-4.4c4.2,0,7.7,1.5,10.7,4.4l0,0l-4.6,4.6l0,0c-1.7-1.7-3.7-2.5-6.1-2.5
		s-4.4,0.8-6.1,2.5c-1.7,1.7-2.5,3.7-2.5,6.1c0,2.4,0.8,4.4,2.5,6.1c1.7,1.7,3.7,2.5,6.1,2.5s4.4-0.8,6.1-2.5l0,0L176,107.4
		L176,107.4z"/>
	<path class="st0" d="M178.3,96.7c0-4.2,1.5-7.7,4.4-10.7c2.9-2.9,6.5-4.4,10.7-4.4v6.5c-2.4,0-4.4,0.8-6.1,2.5
		c-1.7,1.7-2.5,3.7-2.5,6.1v15.1h-6.5V96.7z"/>
	<path class="st0" d="M197.7,96.7V81.6h6.5v15.1c0,2.4,0.8,4.4,2.5,6.1c1.7,1.7,3.7,2.5,6.1,2.5s4.4-0.8,6.1-2.5
		c1.7-1.7,2.5-3.7,2.5-6.1V81.6h6.5v30.2c0,4.2-1.5,7.7-4.4,10.7s-6.5,4.4-10.7,4.4v-6.5c2.4,0,4.4-0.8,6.1-2.5
		c1.7-1.7,2.5-3.7,2.5-6.1v-2.7c-2.5,1.8-5.4,2.7-8.6,2.7c-4.2,0-7.7-1.5-10.7-4.4C199.1,104.5,197.7,100.9,197.7,96.7z"/>
</g>
</svg>
